<svg viewBox="0 0 267 1194" fill="none" xmlns="http://www.w3.org/2000/svg">
<g filter="url(#filter0_d_2920_6431)">
<path d="M0.219727 789.438L0 661.293L0 536.07C0.00972988 536.072 0.019568 536.074 0.0292969 536.076L0.0292969 485.9C0.0292969 469.743 4.82098 454.375 13.8535 441.449C22.2576 429.549 33.8818 420.248 47.4697 414.573C61.1364 408.977 75.9035 407.243 90.1982 409.766C105.672 412.445 119.887 419.933 131.276 431.361L180.209 480.384C186.021 486.216 192.306 484.797 195.525 483.457C198.746 482.117 204.165 478.649 204.165 470.453V468.877C204.165 465.172 202.752 461.625 200.081 458.946L135.911 394.555C135.833 394.475 135.832 394.475 135.754 394.396L9.21973 267.427C-3.0331 255.053 -3.11164 235.113 9.21973 222.818C21.5511 210.524 41.422 210.524 53.6748 222.818L180.288 349.866C186.022 355.62 192.306 354.202 195.525 352.861C198.746 351.522 204.165 348.054 204.165 339.857C204.165 336.154 202.752 332.607 200.081 329.927L22.5723 151.807C8.04162 137.226 0.0292969 117.837 0.0292969 97.2666C0.0293376 81.1097 4.82099 65.7409 13.8535 52.8154C22.2576 40.9146 33.8818 31.6141 47.4697 25.9395C61.1364 20.3436 75.9035 18.6098 90.1982 21.1318C105.672 23.8116 119.887 31.2995 131.276 42.7275L180.131 91.75C185.943 97.582 192.226 96.1631 195.446 94.8232C198.667 93.4834 204.087 90.0159 204.087 81.8193V59.6719C204.087 42.2542 218.146 28.1466 235.504 28.1465C252.862 28.1465 266.922 42.2541 266.922 59.6719V82.1348C266.922 98.2915 262.13 113.581 253.098 126.507C244.694 138.407 233.069 147.708 219.48 153.383C205.814 158.978 191.048 160.712 176.753 158.19C161.28 155.51 147.064 148.023 135.675 136.595L86.7422 87.4941C80.9302 81.6619 74.6461 83.0801 71.4258 84.4199C68.2055 85.7598 62.7861 89.2283 62.7861 97.4248C62.7862 101.129 64.1997 104.676 66.8701 107.355L244.38 285.476C258.91 300.056 266.922 319.444 266.922 340.015C266.922 356.172 262.131 371.462 253.098 384.388C247.835 391.954 241.238 398.416 233.619 403.618L244.458 414.495C258.988 429.076 267 448.464 267 469.034V470.61C267 486.768 262.21 502.058 253.177 514.983C244.773 526.884 233.148 536.184 219.56 541.858C205.893 547.454 191.127 549.188 176.832 546.666C161.359 543.986 147.142 536.5 135.754 525.071L86.8203 475.97C81.0086 470.138 74.7253 471.556 71.5049 472.896C68.2846 474.236 62.8652 477.704 62.8652 485.9L62.8652 519.475C71.8976 517.742 81.1661 517.662 90.1982 519.238C105.672 521.918 119.887 529.406 131.276 540.834L244.458 654.405C258.989 668.985 267 688.375 267 708.945C267 750.875 232.991 785.08 191.127 785.001C173.769 785.001 159.71 770.893 159.71 753.475C159.71 736.057 173.769 721.949 191.127 721.949C198.274 721.949 204.087 716.117 204.087 708.945C204.087 705.241 202.672 701.694 200.002 699.015L86.8203 585.442C81.0086 579.61 74.7253 581.03 71.5049 582.369C68.2846 583.71 62.8652 587.176 62.8652 595.373V614.289C62.8652 615.443 62.8009 616.582 62.6807 617.703L63.1035 863.482C63.1101 867.266 64.6182 870.774 67.2373 873.393C73.0331 879.188 79.3173 877.809 82.542 876.479C85.7666 875.15 91.2119 871.709 91.1982 863.587L90.8906 684.221C90.8611 666.863 104.912 652.812 122.325 652.786C139.739 652.76 153.783 666.916 153.868 684.329L154.176 863.584C154.176 863.695 154.176 863.695 154.177 863.807L154.333 954.713C154.339 958.496 155.848 962.003 158.468 964.623L159.582 965.737C165.378 971.533 171.662 970.153 174.887 968.823C178.111 967.494 183.557 964.054 183.543 955.82L183.479 886.556C183.452 870.421 188.21 855.074 197.257 842.238C205.581 830.347 217.248 821.132 230.869 815.425C235.785 813.406 240.854 811.904 246 810.922L246 965.72C244.487 978.259 240.006 990.077 232.801 1000.3C224.476 1012.19 212.808 1021.41 199.188 1027.11C190.312 1030.76 180.936 1032.73 171.508 1032.97C168.101 1033.36 165.468 1033.85 163.23 1034.77C160.006 1036.1 154.56 1039.54 154.574 1047.77L154.692 1116.98C154.72 1133.12 149.962 1148.46 140.916 1161.3C132.592 1173.19 120.924 1182.41 107.304 1188.11C93.6829 1193.71 78.8862 1195.35 64.5283 1192.88C49.002 1190.13 34.7468 1182.65 23.3223 1171.22C8.77682 1156.68 0.73175 1137.3 0.696289 1116.72L0.263672 865.251C0.262062 864.335 0.172075 863.435 0 862.561L0 789.395C0.0733515 789.408 0.146436 789.425 0.219727 789.438ZM63.4521 1116.83C63.4589 1120.61 64.9668 1124.12 67.5859 1126.74C73.3817 1132.53 79.6661 1131.15 82.8906 1129.82C86.1151 1128.49 91.5611 1125.05 91.5469 1116.82L91.4277 1047.5C91.4 1031.37 96.1588 1016.02 105.205 1003.18C105.761 1002.39 106.332 1001.61 106.917 1000.84C96.96 987.587 91.5515 971.53 91.5225 954.66L91.4951 939.306C82.4299 941.015 73.195 941.109 64.124 939.48C63.7974 939.423 63.4719 939.36 63.1465 939.298L63.4521 1116.83Z" fill="white"/>
</g>
<defs>
<filter id="filter0_d_2920_6431" x="0" y="0" width="267" height="1194" filterUnits="userSpaceOnUse" color-interpolation-filters="sRGB">
<feFlood flood-opacity="0" result="BackgroundImageFix"/>
<feColorMatrix in="SourceAlpha" type="matrix" values="0 0 0 0 0 0 0 0 0 0 0 0 0 0 0 0 0 0 127 0" result="hardAlpha"/>
<feOffset dy="-20"/>
<feComposite in2="hardAlpha" operator="out"/>
<feColorMatrix type="matrix" values="0 0 0 0 0 0 0 0 0 0 0 0 0 0 0 0 0 0 0.25 0"/>
<feBlend mode="normal" in2="BackgroundImageFix" result="effect1_dropShadow_2920_6431"/>
<feBlend mode="normal" in="SourceGraphic" in2="effect1_dropShadow_2920_6431" result="shape"/>
</filter>
</defs>
</svg>
