<svg viewBox="0 0 1522 661" fill="none" xmlns="http://www.w3.org/2000/svg">
<g filter="url(#filter0_d_0_1_1)">
<rect y="346" width="939" height="295" fill="white"/>
<rect x="0.5" y="346.5" width="938" height="294" stroke="black"/>
</g>
<path d="M91.696 417.736H98.944V399.496H91.696V396.232H102.784V402.472H103.024C103.536 400.52 104.496 399 105.904 397.912C107.344 396.792 109.168 396.232 111.376 396.232H114.832V400.072H110.176C107.968 400.072 106.176 400.712 104.8 401.992C103.456 403.272 102.784 404.952 102.784 407.032V417.736H112.384V421H91.696V417.736ZM131.613 421.576C129.821 421.576 128.205 421.272 126.765 420.664C125.357 420.056 124.141 419.192 123.117 418.072C122.125 416.92 121.357 415.56 120.813 413.992C120.269 412.392 119.997 410.616 119.997 408.664C119.997 406.68 120.269 404.888 120.813 403.288C121.389 401.688 122.173 400.328 123.165 399.208C124.157 398.056 125.341 397.176 126.717 396.568C128.125 395.96 129.677 395.656 131.373 395.656C133.037 395.656 134.541 395.96 135.885 396.568C137.261 397.176 138.429 398.024 139.389 399.112C140.349 400.168 141.085 401.432 141.597 402.904C142.109 404.376 142.365 405.992 142.365 407.752V409.576H124.029V410.728C124.029 411.816 124.205 412.824 124.557 413.752C124.909 414.68 125.405 415.48 126.045 416.152C126.717 416.824 127.517 417.352 128.445 417.736C129.405 418.088 130.461 418.264 131.613 418.264C133.277 418.264 134.717 417.88 135.933 417.112C137.149 416.344 138.077 415.288 138.717 413.944L141.549 415.864C140.813 417.528 139.581 418.904 137.853 419.992C136.157 421.048 134.077 421.576 131.613 421.576ZM131.373 398.824C130.317 398.824 129.341 399.016 128.445 399.4C127.549 399.784 126.765 400.312 126.093 400.984C125.453 401.656 124.941 402.456 124.557 403.384C124.205 404.28 124.029 405.272 124.029 406.36V406.696H138.237V406.168C138.237 405.08 138.061 404.088 137.709 403.192C137.389 402.296 136.925 401.528 136.317 400.888C135.741 400.216 135.021 399.704 134.157 399.352C133.325 399 132.397 398.824 131.373 398.824ZM150.267 421V396.232H154.107V400.264H154.299C154.555 399.656 154.875 399.08 155.259 398.536C155.643 397.96 156.107 397.464 156.651 397.048C157.227 396.632 157.899 396.296 158.667 396.04C159.435 395.784 160.331 395.656 161.355 395.656C163.947 395.656 166.027 396.488 167.595 398.152C169.163 399.784 169.947 402.104 169.947 405.112V421H166.107V405.784C166.107 403.512 165.611 401.832 164.619 400.744C163.627 399.624 162.171 399.064 160.251 399.064C159.483 399.064 158.731 399.16 157.995 399.352C157.259 399.544 156.603 399.832 156.027 400.216C155.451 400.6 154.987 401.096 154.635 401.704C154.283 402.312 154.107 403.016 154.107 403.816V421H150.267ZM194.744 416.968H194.552C192.952 420.04 190.408 421.576 186.92 421.576C183.88 421.576 181.496 420.44 179.768 418.168C178.072 415.896 177.224 412.712 177.224 408.616C177.224 404.52 178.072 401.336 179.768 399.064C181.496 396.792 183.88 395.656 186.92 395.656C190.408 395.656 192.952 397.192 194.552 400.264H194.744V385.48H198.584V421H194.744V416.968ZM188.408 418.168C189.272 418.168 190.088 418.056 190.856 417.832C191.624 417.608 192.296 417.288 192.872 416.872C193.448 416.424 193.896 415.896 194.216 415.288C194.568 414.648 194.744 413.912 194.744 413.08V404.152C194.744 403.32 194.568 402.6 194.216 401.992C193.896 401.352 193.448 400.824 192.872 400.408C192.296 399.96 191.624 399.624 190.856 399.4C190.088 399.176 189.272 399.064 188.408 399.064C186.168 399.064 184.424 399.752 183.176 401.128C181.96 402.472 181.352 404.264 181.352 406.504V410.728C181.352 412.968 181.96 414.776 183.176 416.152C184.424 417.496 186.168 418.168 188.408 418.168ZM217.957 421.576C216.165 421.576 214.549 421.272 213.109 420.664C211.701 420.056 210.485 419.192 209.461 418.072C208.469 416.92 207.701 415.56 207.157 413.992C206.613 412.392 206.341 410.616 206.341 408.664C206.341 406.68 206.613 404.888 207.157 403.288C207.733 401.688 208.517 400.328 209.509 399.208C210.501 398.056 211.685 397.176 213.061 396.568C214.469 395.96 216.021 395.656 217.717 395.656C219.381 395.656 220.885 395.96 222.229 396.568C223.605 397.176 224.773 398.024 225.733 399.112C226.693 400.168 227.429 401.432 227.941 402.904C228.453 404.376 228.709 405.992 228.709 407.752V409.576H210.373V410.728C210.373 411.816 210.549 412.824 210.901 413.752C211.253 414.68 211.749 415.48 212.389 416.152C213.061 416.824 213.861 417.352 214.789 417.736C215.749 418.088 216.805 418.264 217.957 418.264C219.621 418.264 221.061 417.88 222.277 417.112C223.493 416.344 224.421 415.288 225.061 413.944L227.893 415.864C227.157 417.528 225.925 418.904 224.197 419.992C222.501 421.048 220.421 421.576 217.957 421.576ZM217.717 398.824C216.661 398.824 215.685 399.016 214.789 399.4C213.893 399.784 213.109 400.312 212.437 400.984C211.797 401.656 211.285 402.456 210.901 403.384C210.549 404.28 210.373 405.272 210.373 406.36V406.696H224.581V406.168C224.581 405.08 224.405 404.088 224.053 403.192C223.733 402.296 223.269 401.528 222.661 400.888C222.085 400.216 221.365 399.704 220.501 399.352C219.669 399 218.741 398.824 217.717 398.824ZM235.602 417.736H242.85V399.496H235.602V396.232H246.69V402.472H246.93C247.442 400.52 248.402 399 249.81 397.912C251.25 396.792 253.074 396.232 255.282 396.232H258.738V400.072H254.082C251.874 400.072 250.082 400.712 248.706 401.992C247.362 403.272 246.69 404.952 246.69 407.032V417.736H256.29V421H235.602V417.736ZM270.528 406.072C270.528 403.736 270.784 401.496 271.296 399.352C271.84 397.176 272.56 395.16 273.456 393.304C274.384 391.448 275.456 389.784 276.672 388.312C277.888 386.808 279.168 385.544 280.512 384.52H284.4C282.992 385.576 281.664 386.808 280.416 388.216C279.2 389.592 278.112 391.112 277.152 392.776C276.224 394.408 275.488 396.184 274.944 398.104C274.4 399.992 274.128 401.96 274.128 404.008V408.136C274.128 410.184 274.4 412.168 274.944 414.088C275.488 415.976 276.224 417.752 277.152 419.416C278.112 421.048 279.2 422.552 280.416 423.928C281.664 425.336 282.992 426.568 284.4 427.624H280.512C279.168 426.632 277.888 425.384 276.672 423.88C275.456 422.376 274.384 420.696 273.456 418.84C272.56 416.984 271.84 414.984 271.296 412.84C270.784 410.664 270.528 408.408 270.528 406.072ZM308.429 406.072C308.429 408.408 308.157 410.664 307.613 412.84C307.101 414.984 306.381 416.984 305.453 418.84C304.557 420.696 303.501 422.376 302.285 423.88C301.069 425.384 299.789 426.632 298.445 427.624H294.557C295.933 426.568 297.245 425.336 298.493 423.928C299.741 422.552 300.829 421.048 301.757 419.416C302.717 417.752 303.469 415.976 304.013 414.088C304.557 412.168 304.829 410.184 304.829 408.136V404.008C304.829 401.96 304.557 399.992 304.013 398.104C303.469 396.184 302.717 394.408 301.757 392.776C300.829 391.112 299.741 389.592 298.493 388.216C297.245 386.808 295.933 385.576 294.557 384.52H298.445C299.789 385.544 301.069 386.808 302.285 388.312C303.501 389.784 304.557 391.448 305.453 393.304C306.381 395.16 307.101 397.176 307.613 399.352C308.157 401.496 308.429 403.736 308.429 406.072ZM351.015 417.736H359.367V399.496H350.535V396.232H359.367V391.144C359.367 389.48 359.799 388.12 360.663 387.064C361.559 386.008 362.951 385.48 364.839 385.48H373.143V388.744H363.207V396.232H373.143V399.496H363.207V417.736H372.039V421H351.015V417.736ZM396.069 416.968H395.877C395.621 417.576 395.301 418.168 394.917 418.744C394.533 419.288 394.053 419.768 393.477 420.184C392.933 420.6 392.277 420.936 391.509 421.192C390.741 421.448 389.845 421.576 388.821 421.576C386.229 421.576 384.149 420.76 382.581 419.128C381.013 417.464 380.229 415.128 380.229 412.12V396.232H384.069V411.448C384.069 413.72 384.565 415.416 385.557 416.536C386.549 417.624 388.005 418.168 389.924 418.168C390.693 418.168 391.445 418.072 392.181 417.88C392.917 417.688 393.573 417.4 394.149 417.016C394.725 416.632 395.189 416.152 395.541 415.576C395.893 414.968 396.069 414.248 396.069 413.416V396.232H399.909V421H396.069V416.968ZM409.298 421V396.232H413.138V400.264H413.33C413.586 399.656 413.906 399.08 414.29 398.536C414.674 397.96 415.138 397.464 415.682 397.048C416.258 396.632 416.93 396.296 417.698 396.04C418.466 395.784 419.362 395.656 420.386 395.656C422.978 395.656 425.058 396.488 426.626 398.152C428.194 399.784 428.978 402.104 428.978 405.112V421H425.138V405.784C425.138 403.512 424.642 401.832 423.65 400.744C422.658 399.624 421.202 399.064 419.282 399.064C418.514 399.064 417.762 399.16 417.026 399.352C416.29 399.544 415.634 399.832 415.058 400.216C414.482 400.6 414.018 401.096 413.666 401.704C413.314 402.312 413.138 403.016 413.138 403.816V421H409.298ZM448.639 421.576C446.847 421.576 445.247 421.272 443.839 420.664C442.463 420.024 441.295 419.144 440.335 418.024C439.375 416.904 438.639 415.544 438.127 413.944C437.647 412.344 437.407 410.568 437.407 408.616C437.407 406.664 437.663 404.888 438.175 403.288C438.687 401.688 439.423 400.328 440.383 399.208C441.343 398.056 442.511 397.176 443.887 396.568C445.263 395.96 446.831 395.656 448.591 395.656C450.991 395.656 452.943 396.184 454.447 397.24C455.951 398.296 457.055 399.672 457.759 401.368L454.687 403C454.239 401.72 453.487 400.728 452.431 400.024C451.407 399.32 450.127 398.968 448.591 398.968C447.471 398.968 446.463 399.16 445.567 399.544C444.703 399.896 443.967 400.408 443.359 401.08C442.751 401.752 442.287 402.552 441.967 403.48C441.679 404.408 441.535 405.416 441.535 406.504V410.728C441.535 411.816 441.679 412.824 441.967 413.752C442.287 414.68 442.751 415.48 443.359 416.152C443.967 416.824 444.719 417.352 445.615 417.736C446.511 418.088 447.535 418.264 448.687 418.264C450.351 418.264 451.727 417.88 452.815 417.112C453.903 416.344 454.767 415.288 455.407 413.944L458.143 415.816C457.407 417.48 456.255 418.856 454.687 419.944C453.151 421.032 451.135 421.576 448.639 421.576ZM477.756 421C475.868 421 474.476 420.472 473.58 419.416C472.716 418.36 472.284 417 472.284 415.336V399.496H464.028V396.232H470.172C471.004 396.232 471.58 396.072 471.9 395.752C472.252 395.4 472.428 394.808 472.428 393.976V387.496H476.124V396.232H487.404V399.496H476.124V417.736H487.404V421H477.756ZM506.874 390.76C505.754 390.76 504.97 390.536 504.522 390.088C504.074 389.608 503.85 389.016 503.85 388.312V387.544C503.85 386.84 504.074 386.264 504.522 385.816C504.97 385.336 505.754 385.096 506.874 385.096C507.994 385.096 508.778 385.336 509.226 385.816C509.674 386.264 509.898 386.84 509.898 387.544V388.312C509.898 389.016 509.674 389.608 509.226 390.088C508.778 390.536 507.994 390.76 506.874 390.76ZM496.026 417.736H504.954V399.496H496.026V396.232H508.794V417.736H517.146V421H496.026V417.736ZM534.119 421.576C532.391 421.576 530.823 421.272 529.415 420.664C528.039 420.056 526.855 419.192 525.863 418.072C524.903 416.92 524.167 415.56 523.655 413.992C523.143 412.392 522.887 410.6 522.887 408.616C522.887 406.664 523.143 404.888 523.655 403.288C524.167 401.688 524.903 400.328 525.863 399.208C526.855 398.056 528.039 397.176 529.415 396.568C530.823 395.96 532.391 395.656 534.119 395.656C535.847 395.656 537.399 395.96 538.775 396.568C540.183 397.176 541.367 398.056 542.327 399.208C543.319 400.328 544.071 401.688 544.583 403.288C545.095 404.888 545.351 406.664 545.351 408.616C545.351 410.6 545.095 412.392 544.583 413.992C544.071 415.56 543.319 416.92 542.327 418.072C541.367 419.192 540.183 420.056 538.775 420.664C537.399 421.272 535.847 421.576 534.119 421.576ZM534.119 418.264C536.263 418.264 537.991 417.624 539.303 416.344C540.615 415.064 541.271 413.08 541.271 410.392V406.84C541.271 404.152 540.615 402.168 539.303 400.888C537.991 399.608 536.263 398.968 534.119 398.968C531.975 398.968 530.247 399.608 528.935 400.888C527.623 402.168 526.967 404.152 526.967 406.84V410.392C526.967 413.08 527.623 415.064 528.935 416.344C530.247 417.624 531.975 418.264 534.119 418.264ZM553.204 421V396.232H557.044V400.264H557.236C557.492 399.656 557.812 399.08 558.196 398.536C558.58 397.96 559.044 397.464 559.588 397.048C560.164 396.632 560.836 396.296 561.604 396.04C562.372 395.784 563.268 395.656 564.292 395.656C566.884 395.656 568.964 396.488 570.532 398.152C572.1 399.784 572.884 402.104 572.884 405.112V421H569.044V405.784C569.044 403.512 568.548 401.832 567.556 400.744C566.564 399.624 565.108 399.064 563.188 399.064C562.42 399.064 561.668 399.16 560.932 399.352C560.196 399.544 559.54 399.832 558.964 400.216C558.388 400.6 557.924 401.096 557.572 401.704C557.22 402.312 557.044 403.016 557.044 403.816V421H553.204Z" fill="black"/>
<path d="M97.84 493.072C97.84 490.736 98.096 488.496 98.608 486.352C99.152 484.176 99.872 482.16 100.768 480.304C101.696 478.448 102.768 476.784 103.984 475.312C105.2 473.808 106.48 472.544 107.824 471.52H111.712C110.304 472.576 108.976 473.808 107.728 475.216C106.512 476.592 105.424 478.112 104.464 479.776C103.536 481.408 102.8 483.184 102.256 485.104C101.712 486.992 101.44 488.96 101.44 491.008V495.136C101.44 497.184 101.712 499.168 102.256 501.088C102.8 502.976 103.536 504.752 104.464 506.416C105.424 508.048 106.512 509.552 107.728 510.928C108.976 512.336 110.304 513.568 111.712 514.624H107.824C106.48 513.632 105.2 512.384 103.984 510.88C102.768 509.376 101.696 507.696 100.768 505.84C99.872 503.984 99.152 501.984 98.608 499.84C98.096 497.664 97.84 495.408 97.84 493.072ZM120.477 504.736H127.725V486.496H120.477V483.232H131.565V489.472H131.805C132.317 487.52 133.277 486 134.685 484.912C136.125 483.792 137.949 483.232 140.157 483.232H143.613V487.072H138.957C136.749 487.072 134.957 487.712 133.581 488.992C132.237 490.272 131.565 491.952 131.565 494.032V504.736H141.165V508H120.477V504.736ZM165.819 503.968H165.627C165.371 504.576 165.051 505.168 164.667 505.744C164.283 506.288 163.803 506.768 163.227 507.184C162.683 507.6 162.027 507.936 161.259 508.192C160.491 508.448 159.595 508.576 158.571 508.576C155.979 508.576 153.899 507.76 152.331 506.128C150.763 504.464 149.979 502.128 149.979 499.12V483.232H153.819V498.448C153.819 500.72 154.315 502.416 155.307 503.536C156.299 504.624 157.755 505.168 159.674 505.168C160.443 505.168 161.195 505.072 161.931 504.88C162.667 504.688 163.323 504.4 163.899 504.016C164.475 503.632 164.939 503.152 165.291 502.576C165.643 501.968 165.819 501.248 165.819 500.416V483.232H169.659V508H165.819V503.968ZM179.048 508V483.232H182.888V487.264H183.08C183.336 486.656 183.656 486.08 184.04 485.536C184.424 484.96 184.888 484.464 185.432 484.048C186.008 483.632 186.68 483.296 187.448 483.04C188.216 482.784 189.112 482.656 190.136 482.656C192.728 482.656 194.808 483.488 196.376 485.152C197.944 486.784 198.728 489.104 198.728 492.112V508H194.888V492.784C194.888 490.512 194.392 488.832 193.4 487.744C192.408 486.624 190.952 486.064 189.032 486.064C188.264 486.064 187.512 486.16 186.776 486.352C186.04 486.544 185.384 486.832 184.808 487.216C184.232 487.6 183.768 488.096 183.416 488.704C183.064 489.312 182.888 490.016 182.888 490.816V508H179.048ZM217.813 508.576C215.221 508.576 212.981 508.144 211.093 507.28C209.237 506.384 207.653 505.2 206.341 503.728L208.933 501.472C210.117 502.72 211.413 503.68 212.821 504.352C214.229 505.024 215.925 505.36 217.909 505.36C219.829 505.36 221.397 505.024 222.613 504.352C223.861 503.648 224.485 502.56 224.485 501.088C224.485 500.448 224.357 499.92 224.101 499.504C223.877 499.056 223.557 498.704 223.141 498.448C222.725 498.192 222.261 498 221.749 497.872C221.237 497.712 220.693 497.584 220.117 497.488L216.229 496.912C215.365 496.784 214.421 496.608 213.397 496.384C212.405 496.16 211.493 495.808 210.661 495.328C209.829 494.816 209.125 494.144 208.549 493.312C208.005 492.48 207.733 491.392 207.733 490.048C207.733 488.8 207.973 487.728 208.453 486.832C208.965 485.904 209.669 485.136 210.565 484.528C211.461 483.888 212.517 483.424 213.733 483.136C214.949 482.816 216.277 482.656 217.717 482.656C219.957 482.656 221.893 483.008 223.525 483.712C225.189 484.416 226.613 485.392 227.797 486.64L225.301 488.992C225.013 488.64 224.645 488.288 224.197 487.936C223.781 487.552 223.253 487.216 222.613 486.928C222.005 486.608 221.285 486.352 220.453 486.16C219.621 485.968 218.661 485.872 217.573 485.872C215.621 485.872 214.117 486.208 213.061 486.88C212.037 487.552 211.525 488.528 211.525 489.808C211.525 490.448 211.637 490.992 211.861 491.44C212.117 491.856 212.453 492.192 212.869 492.448C213.285 492.704 213.749 492.912 214.261 493.072C214.805 493.2 215.349 493.312 215.893 493.408L219.781 493.984C220.677 494.112 221.621 494.288 222.613 494.512C223.605 494.736 224.517 495.104 225.349 495.616C226.181 496.096 226.869 496.752 227.413 497.584C227.989 498.416 228.277 499.504 228.277 500.848C228.277 503.312 227.317 505.216 225.397 506.56C223.509 507.904 220.981 508.576 217.813 508.576ZM275.088 508.576C273.36 508.576 271.792 508.272 270.384 507.664C269.008 507.056 267.824 506.192 266.832 505.072C265.872 503.92 265.136 502.56 264.624 500.992C264.112 499.392 263.855 497.6 263.855 495.616C263.855 493.664 264.112 491.888 264.624 490.288C265.136 488.688 265.872 487.328 266.832 486.208C267.824 485.056 269.008 484.176 270.384 483.568C271.792 482.96 273.36 482.656 275.088 482.656C276.816 482.656 278.368 482.96 279.744 483.568C281.152 484.176 282.336 485.056 283.296 486.208C284.288 487.328 285.04 488.688 285.552 490.288C286.064 491.888 286.32 493.664 286.32 495.616C286.32 497.6 286.064 499.392 285.552 500.992C285.04 502.56 284.288 503.92 283.296 505.072C282.336 506.192 281.152 507.056 279.744 507.664C278.368 508.272 276.816 508.576 275.088 508.576ZM275.088 505.264C277.232 505.264 278.96 504.624 280.272 503.344C281.584 502.064 282.24 500.08 282.24 497.392V493.84C282.24 491.152 281.584 489.168 280.272 487.888C278.96 486.608 277.232 485.968 275.088 485.968C272.944 485.968 271.216 486.608 269.904 487.888C268.592 489.168 267.936 491.152 267.936 493.84V497.392C267.936 500.08 268.592 502.064 269.904 503.344C271.216 504.624 272.944 505.264 275.088 505.264ZM294.173 508V483.232H298.013V487.264H298.205C298.461 486.656 298.781 486.08 299.165 485.536C299.549 484.96 300.013 484.464 300.557 484.048C301.133 483.632 301.805 483.296 302.573 483.04C303.341 482.784 304.237 482.656 305.261 482.656C307.853 482.656 309.933 483.488 311.501 485.152C313.069 486.784 313.853 489.104 313.853 492.112V508H310.013V492.784C310.013 490.512 309.517 488.832 308.525 487.744C307.533 486.624 306.077 486.064 304.157 486.064C303.389 486.064 302.637 486.16 301.901 486.352C301.165 486.544 300.509 486.832 299.933 487.216C299.357 487.6 298.893 488.096 298.541 488.704C298.189 489.312 298.013 490.016 298.013 490.816V508H294.173ZM361.863 508.576C360.071 508.576 358.455 508.272 357.015 507.664C355.607 507.056 354.391 506.192 353.367 505.072C352.375 503.92 351.607 502.56 351.063 500.992C350.519 499.392 350.247 497.616 350.247 495.664C350.247 493.68 350.519 491.888 351.063 490.288C351.639 488.688 352.423 487.328 353.415 486.208C354.407 485.056 355.591 484.176 356.967 483.568C358.375 482.96 359.927 482.656 361.623 482.656C363.287 482.656 364.791 482.96 366.135 483.568C367.511 484.176 368.679 485.024 369.639 486.112C370.599 487.168 371.335 488.432 371.847 489.904C372.359 491.376 372.615 492.992 372.615 494.752V496.576H354.279V497.728C354.279 498.816 354.455 499.824 354.807 500.752C355.159 501.68 355.655 502.48 356.295 503.152C356.967 503.824 357.767 504.352 358.695 504.736C359.655 505.088 360.711 505.264 361.863 505.264C363.527 505.264 364.967 504.88 366.183 504.112C367.399 503.344 368.327 502.288 368.967 500.944L371.799 502.864C371.063 504.528 369.831 505.904 368.103 506.992C366.407 508.048 364.327 508.576 361.863 508.576ZM361.623 485.824C360.567 485.824 359.591 486.016 358.695 486.4C357.799 486.784 357.015 487.312 356.343 487.984C355.703 488.656 355.191 489.456 354.807 490.384C354.455 491.28 354.279 492.272 354.279 493.36V493.696H368.487V493.168C368.487 492.08 368.311 491.088 367.959 490.192C367.639 489.296 367.175 488.528 366.567 487.888C365.991 487.216 365.271 486.704 364.407 486.352C363.575 486 362.647 485.824 361.623 485.824ZM387.765 508L378.885 483.232H382.773L386.325 493.6L390.165 504.784H390.357L394.197 493.6L397.749 483.232H401.541L392.661 508H387.765ZM419.426 508.576C417.634 508.576 416.018 508.272 414.578 507.664C413.17 507.056 411.954 506.192 410.93 505.072C409.938 503.92 409.17 502.56 408.626 500.992C408.082 499.392 407.81 497.616 407.81 495.664C407.81 493.68 408.082 491.888 408.626 490.288C409.202 488.688 409.986 487.328 410.978 486.208C411.97 485.056 413.154 484.176 414.53 483.568C415.938 482.96 417.49 482.656 419.186 482.656C420.85 482.656 422.354 482.96 423.698 483.568C425.074 484.176 426.242 485.024 427.202 486.112C428.162 487.168 428.898 488.432 429.41 489.904C429.922 491.376 430.178 492.992 430.178 494.752V496.576H411.842V497.728C411.842 498.816 412.018 499.824 412.37 500.752C412.722 501.68 413.218 502.48 413.858 503.152C414.53 503.824 415.33 504.352 416.258 504.736C417.218 505.088 418.274 505.264 419.426 505.264C421.09 505.264 422.53 504.88 423.746 504.112C424.962 503.344 425.89 502.288 426.53 500.944L429.362 502.864C428.626 504.528 427.394 505.904 425.666 506.992C423.97 508.048 421.89 508.576 419.426 508.576ZM419.186 485.824C418.13 485.824 417.154 486.016 416.258 486.4C415.362 486.784 414.578 487.312 413.906 487.984C413.266 488.656 412.754 489.456 412.37 490.384C412.018 491.28 411.842 492.272 411.842 493.36V493.696H426.05V493.168C426.05 492.08 425.874 491.088 425.522 490.192C425.202 489.296 424.738 488.528 424.13 487.888C423.554 487.216 422.834 486.704 421.97 486.352C421.138 486 420.21 485.824 419.186 485.824ZM437.071 504.736H444.319V486.496H437.071V483.232H448.159V489.472H448.399C448.911 487.52 449.871 486 451.279 484.912C452.719 483.792 454.543 483.232 456.751 483.232H460.207V487.072H455.551C453.343 487.072 451.551 487.712 450.175 488.992C448.831 490.272 448.159 491.952 448.159 494.032V504.736H457.759V508H437.071V504.736ZM484.572 483.232H488.412L476.124 513.424C475.836 514.128 475.516 514.736 475.164 515.248C474.812 515.792 474.396 516.224 473.916 516.544C473.436 516.896 472.86 517.152 472.188 517.312C471.516 517.504 470.716 517.6 469.788 517.6H466.14V514.336H471.9L474.684 507.52L464.7 483.232H468.636L472.812 493.6L476.508 503.008H476.7L480.396 493.6L484.572 483.232ZM539.975 503.968H539.783C539.527 504.576 539.207 505.168 538.823 505.744C538.439 506.288 537.959 506.768 537.383 507.184C536.839 507.6 536.183 507.936 535.415 508.192C534.647 508.448 533.751 508.576 532.727 508.576C530.135 508.576 528.055 507.76 526.487 506.128C524.919 504.464 524.135 502.128 524.135 499.12V483.232H527.975V498.448C527.975 500.72 528.471 502.416 529.463 503.536C530.455 504.624 531.911 505.168 533.831 505.168C534.599 505.168 535.351 505.072 536.087 504.88C536.823 504.688 537.479 504.4 538.055 504.016C538.631 503.632 539.095 503.152 539.447 502.576C539.799 501.968 539.975 501.248 539.975 500.416V483.232H543.815V508H539.975V503.968ZM553.06 483.232H556.9V487.264H557.092C558.692 484.192 561.236 482.656 564.724 482.656C567.764 482.656 570.132 483.792 571.828 486.064C573.556 488.336 574.42 491.52 574.42 495.616C574.42 499.712 573.556 502.896 571.828 505.168C570.132 507.44 567.764 508.576 564.724 508.576C561.236 508.576 558.692 507.04 557.092 503.968H556.9V517.6H553.06V483.232ZM563.236 505.168C565.476 505.168 567.204 504.496 568.42 503.152C569.668 501.776 570.292 499.968 570.292 497.728V493.504C570.292 491.264 569.668 489.472 568.42 488.128C567.204 486.752 565.476 486.064 563.236 486.064C562.372 486.064 561.556 486.176 560.788 486.4C560.02 486.624 559.348 486.96 558.772 487.408C558.196 487.824 557.732 488.352 557.38 488.992C557.06 489.6 556.9 490.32 556.9 491.152V500.08C556.9 500.912 557.06 501.648 557.38 502.288C557.732 502.896 558.196 503.424 558.772 503.872C559.348 504.288 560.02 504.608 560.788 504.832C561.556 505.056 562.372 505.168 563.236 505.168ZM597.681 503.968H597.489C595.889 507.04 593.345 508.576 589.857 508.576C586.817 508.576 584.433 507.44 582.705 505.168C581.009 502.896 580.161 499.712 580.161 495.616C580.161 491.52 581.009 488.336 582.705 486.064C584.433 483.792 586.817 482.656 589.857 482.656C593.345 482.656 595.889 484.192 597.489 487.264H597.681V472.48H601.521V508H597.681V503.968ZM591.345 505.168C592.209 505.168 593.025 505.056 593.793 504.832C594.561 504.608 595.233 504.288 595.809 503.872C596.385 503.424 596.833 502.896 597.153 502.288C597.505 501.648 597.681 500.912 597.681 500.08V491.152C597.681 490.32 597.505 489.6 597.153 488.992C596.833 488.352 596.385 487.824 595.809 487.408C595.233 486.96 594.561 486.624 593.793 486.4C593.025 486.176 592.209 486.064 591.345 486.064C589.105 486.064 587.361 486.752 586.113 488.128C584.897 489.472 584.289 491.264 584.289 493.504V497.728C584.289 499.968 584.897 501.776 586.113 503.152C587.361 504.496 589.105 505.168 591.345 505.168ZM629.823 508C628.319 508 627.247 507.616 626.607 506.848C625.967 506.08 625.567 505.12 625.407 503.968H625.167C624.623 505.408 623.743 506.544 622.527 507.376C621.343 508.176 619.743 508.576 617.727 508.576C615.135 508.576 613.071 507.904 611.535 506.56C609.999 505.216 609.23 503.376 609.23 501.04C609.23 498.736 610.063 496.96 611.727 495.712C613.423 494.464 616.143 493.84 619.887 493.84H625.167V491.392C625.167 489.568 624.655 488.208 623.631 487.312C622.607 486.384 621.151 485.92 619.263 485.92C617.599 485.92 616.239 486.256 615.183 486.928C614.127 487.568 613.279 488.448 612.639 489.568L610.047 487.648C610.367 487.008 610.799 486.384 611.343 485.776C611.887 485.168 612.559 484.64 613.359 484.192C614.159 483.712 615.071 483.344 616.095 483.088C617.119 482.8 618.255 482.656 619.503 482.656C622.415 482.656 624.719 483.392 626.415 484.864C628.143 486.336 629.007 488.384 629.007 491.008V504.64H632.463V508H629.823ZM618.398 505.36C619.391 505.36 620.287 505.248 621.087 505.024C621.919 504.768 622.639 504.448 623.247 504.064C623.855 503.648 624.319 503.168 624.639 502.624C624.991 502.048 625.167 501.44 625.167 500.8V496.72H619.887C617.583 496.72 615.903 497.04 614.847 497.68C613.791 498.32 613.263 499.248 613.263 500.464V501.472C613.263 502.752 613.711 503.728 614.607 504.4C615.535 505.04 616.799 505.36 618.398 505.36ZM650.444 508C648.556 508 647.164 507.472 646.268 506.416C645.404 505.36 644.972 504 644.972 502.336V486.496H636.716V483.232H642.86C643.692 483.232 644.268 483.072 644.588 482.752C644.94 482.4 645.116 481.808 645.116 480.976V474.496H648.812V483.232H660.092V486.496H648.812V504.736H660.092V508H650.444ZM678.457 508.576C676.665 508.576 675.049 508.272 673.609 507.664C672.201 507.056 670.985 506.192 669.961 505.072C668.969 503.92 668.201 502.56 667.657 500.992C667.113 499.392 666.841 497.616 666.841 495.664C666.841 493.68 667.113 491.888 667.657 490.288C668.233 488.688 669.017 487.328 670.009 486.208C671.001 485.056 672.185 484.176 673.561 483.568C674.969 482.96 676.521 482.656 678.217 482.656C679.881 482.656 681.385 482.96 682.729 483.568C684.105 484.176 685.273 485.024 686.233 486.112C687.193 487.168 687.929 488.432 688.441 489.904C688.953 491.376 689.209 492.992 689.209 494.752V496.576H670.873V497.728C670.873 498.816 671.049 499.824 671.401 500.752C671.753 501.68 672.249 502.48 672.889 503.152C673.561 503.824 674.361 504.352 675.289 504.736C676.249 505.088 677.305 505.264 678.457 505.264C680.121 505.264 681.561 504.88 682.777 504.112C683.993 503.344 684.921 502.288 685.561 500.944L688.393 502.864C687.657 504.528 686.425 505.904 684.697 506.992C683.001 508.048 680.921 508.576 678.457 508.576ZM678.217 485.824C677.161 485.824 676.185 486.016 675.289 486.4C674.393 486.784 673.609 487.312 672.937 487.984C672.297 488.656 671.785 489.456 671.401 490.384C671.049 491.28 670.873 492.272 670.873 493.36V493.696H685.081V493.168C685.081 492.08 684.905 491.088 684.553 490.192C684.233 489.296 683.769 488.528 683.161 487.888C682.585 487.216 681.865 486.704 681.001 486.352C680.169 486 679.241 485.824 678.217 485.824ZM711.366 493.072C711.366 495.408 711.094 497.664 710.55 499.84C710.038 501.984 709.318 503.984 708.39 505.84C707.494 507.696 706.438 509.376 705.222 510.88C704.006 512.384 702.726 513.632 701.382 514.624H697.494C698.87 513.568 700.182 512.336 701.43 510.928C702.678 509.552 703.766 508.048 704.694 506.416C705.654 504.752 706.406 502.976 706.95 501.088C707.494 499.168 707.766 497.184 707.766 495.136V491.008C707.766 488.96 707.494 486.992 706.95 485.104C706.406 483.184 705.654 481.408 704.694 479.776C703.766 478.112 702.678 476.592 701.43 475.216C700.182 473.808 698.87 472.576 697.494 471.52H701.382C702.726 472.544 704.006 473.808 705.222 475.312C706.438 476.784 707.494 478.448 708.39 480.304C709.318 482.16 710.038 484.176 710.55 486.352C711.094 488.496 711.366 490.736 711.366 493.072Z" fill="black"/>
<path d="M92.224 561.496H103.6C106.48 561.496 108.736 562.28 110.368 563.848C112 565.416 112.816 567.512 112.816 570.136C112.816 572.152 112.32 573.736 111.328 574.888C110.368 576.04 109.12 576.856 107.584 577.336V577.48C109.472 577.928 111.024 578.776 112.24 580.024C113.456 581.24 114.064 583.016 114.064 585.352C114.064 586.696 113.84 587.96 113.392 589.144C112.944 590.328 112.304 591.352 111.472 592.216C110.672 593.08 109.712 593.768 108.592 594.28C107.504 594.76 106.32 595 105.04 595H92.224V561.496ZM103.84 591.496C105.696 591.496 107.152 591.08 108.208 590.248C109.264 589.416 109.792 588.136 109.792 586.408V584.44C109.792 582.744 109.264 581.48 108.208 580.648C107.152 579.784 105.696 579.352 103.84 579.352H96.256V591.496H103.84ZM103.168 576.04C104.864 576.04 106.192 575.672 107.152 574.936C108.112 574.168 108.592 573.016 108.592 571.48V569.608C108.592 568.072 108.112 566.92 107.152 566.152C106.192 565.384 104.864 565 103.168 565H96.256V576.04H103.168ZM137.037 590.968H136.845C136.589 591.576 136.269 592.168 135.885 592.744C135.501 593.288 135.021 593.768 134.445 594.184C133.901 594.6 133.245 594.936 132.477 595.192C131.709 595.448 130.813 595.576 129.789 595.576C127.197 595.576 125.117 594.76 123.549 593.128C121.981 591.464 121.197 589.128 121.197 586.12V570.232H125.037V585.448C125.037 587.72 125.533 589.416 126.525 590.536C127.517 591.624 128.973 592.168 130.893 592.168C131.661 592.168 132.413 592.072 133.149 591.88C133.885 591.688 134.541 591.4 135.117 591.016C135.693 590.632 136.157 590.152 136.509 589.576C136.861 588.968 137.037 588.248 137.037 587.416V570.232H140.877V595H137.037V590.968ZM161.163 595C159.275 595 157.883 594.472 156.987 593.416C156.123 592.36 155.691 591 155.691 589.336V573.496H147.435V570.232H153.579C154.411 570.232 154.987 570.072 155.307 569.752C155.659 569.4 155.835 568.808 155.835 567.976V561.496H159.531V570.232H170.811V573.496H159.531V591.736H170.811V595H161.163ZM189.944 595C188.056 595 186.664 594.472 185.768 593.416C184.904 592.36 184.472 591 184.472 589.336V573.496H176.216V570.232H182.36C183.192 570.232 183.768 570.072 184.088 569.752C184.44 569.4 184.616 568.808 184.616 567.976V561.496H188.312V570.232H199.592V573.496H188.312V591.736H199.592V595H189.944ZM217.525 595.576C215.797 595.576 214.229 595.272 212.821 594.664C211.445 594.056 210.261 593.192 209.269 592.072C208.309 590.92 207.573 589.56 207.061 587.992C206.549 586.392 206.293 584.6 206.293 582.616C206.293 580.664 206.549 578.888 207.061 577.288C207.573 575.688 208.309 574.328 209.269 573.208C210.261 572.056 211.445 571.176 212.821 570.568C214.229 569.96 215.797 569.656 217.525 569.656C219.253 569.656 220.805 569.96 222.181 570.568C223.589 571.176 224.773 572.056 225.733 573.208C226.725 574.328 227.477 575.688 227.989 577.288C228.501 578.888 228.757 580.664 228.757 582.616C228.757 584.6 228.501 586.392 227.989 587.992C227.477 589.56 226.725 590.92 225.733 592.072C224.773 593.192 223.589 594.056 222.181 594.664C220.805 595.272 219.253 595.576 217.525 595.576ZM217.525 592.264C219.669 592.264 221.397 591.624 222.709 590.344C224.021 589.064 224.677 587.08 224.677 584.392V580.84C224.677 578.152 224.021 576.168 222.709 574.888C221.397 573.608 219.669 572.968 217.525 572.968C215.381 572.968 213.653 573.608 212.341 574.888C211.029 576.168 210.373 578.152 210.373 580.84V584.392C210.373 587.08 211.029 589.064 212.341 590.344C213.653 591.624 215.381 592.264 217.525 592.264ZM236.61 595V570.232H240.45V574.264H240.642C240.898 573.656 241.218 573.08 241.602 572.536C241.986 571.96 242.45 571.464 242.994 571.048C243.57 570.632 244.242 570.296 245.01 570.04C245.778 569.784 246.674 569.656 247.698 569.656C250.29 569.656 252.37 570.488 253.938 572.152C255.506 573.784 256.29 576.104 256.29 579.112V595H252.45V579.784C252.45 577.512 251.954 575.832 250.962 574.744C249.97 573.624 248.514 573.064 246.594 573.064C245.826 573.064 245.074 573.16 244.338 573.352C243.602 573.544 242.946 573.832 242.37 574.216C241.794 574.6 241.33 575.096 240.978 575.704C240.626 576.312 240.45 577.016 240.45 577.816V595H236.61ZM270.528 580.072C270.528 577.736 270.784 575.496 271.296 573.352C271.84 571.176 272.56 569.16 273.456 567.304C274.384 565.448 275.456 563.784 276.672 562.312C277.888 560.808 279.168 559.544 280.512 558.52H284.4C282.992 559.576 281.664 560.808 280.416 562.216C279.2 563.592 278.112 565.112 277.152 566.776C276.224 568.408 275.488 570.184 274.944 572.104C274.4 573.992 274.128 575.96 274.128 578.008V582.136C274.128 584.184 274.4 586.168 274.944 588.088C275.488 589.976 276.224 591.752 277.152 593.416C278.112 595.048 279.2 596.552 280.416 597.928C281.664 599.336 282.992 600.568 284.4 601.624H280.512C279.168 600.632 277.888 599.384 276.672 597.88C275.456 596.376 274.384 594.696 273.456 592.84C272.56 590.984 271.84 588.984 271.296 586.84C270.784 584.664 270.528 582.408 270.528 580.072ZM303.869 595.432C302.557 595.432 301.629 595.16 301.085 594.616C300.573 594.072 300.317 593.384 300.317 592.552V591.688C300.317 590.856 300.573 590.168 301.085 589.624C301.629 589.08 302.557 588.808 303.869 588.808C305.181 588.808 306.093 589.08 306.605 589.624C307.149 590.168 307.421 590.856 307.421 591.688V592.552C307.421 593.384 307.149 594.072 306.605 594.616C306.093 595.16 305.181 595.432 303.869 595.432ZM332.65 595.432C331.338 595.432 330.41 595.16 329.866 594.616C329.354 594.072 329.098 593.384 329.098 592.552V591.688C329.098 590.856 329.354 590.168 329.866 589.624C330.41 589.08 331.338 588.808 332.65 588.808C333.962 588.808 334.874 589.08 335.386 589.624C335.93 590.168 336.202 590.856 336.202 591.688V592.552C336.202 593.384 335.93 594.072 335.386 594.616C334.874 595.16 333.962 595.432 332.65 595.432ZM361.431 595.432C360.119 595.432 359.191 595.16 358.647 594.616C358.135 594.072 357.879 593.384 357.879 592.552V591.688C357.879 590.856 358.135 590.168 358.647 589.624C359.191 589.08 360.119 588.808 361.431 588.808C362.743 588.808 363.655 589.08 364.167 589.624C364.711 590.168 364.983 590.856 364.983 591.688V592.552C364.983 593.384 364.711 594.072 364.167 594.616C363.655 595.16 362.743 595.432 361.431 595.432ZM394.773 580.072C394.773 582.408 394.501 584.664 393.957 586.84C393.445 588.984 392.725 590.984 391.797 592.84C390.901 594.696 389.845 596.376 388.629 597.88C387.413 599.384 386.133 600.632 384.789 601.624H380.901C382.277 600.568 383.589 599.336 384.837 597.928C386.085 596.552 387.173 595.048 388.101 593.416C389.061 591.752 389.813 589.976 390.357 588.088C390.901 586.168 391.173 584.184 391.173 582.136V578.008C391.173 575.96 390.901 573.992 390.357 572.104C389.813 570.184 389.061 568.408 388.101 566.776C387.173 565.112 386.085 563.592 384.837 562.216C383.589 560.808 382.277 559.576 380.901 558.52H384.789C386.133 559.544 387.413 560.808 388.629 562.312C389.845 563.784 390.901 565.448 391.797 567.304C392.725 569.16 393.445 571.176 393.957 573.352C394.501 575.496 394.773 577.736 394.773 580.072Z" fill="black"/>
<g filter="url(#filter1_d_0_1)">
<rect width="939" height="211" fill="white"/>
<rect x="0.5" y="0.5" width="938" height="210" stroke="black"/>
</g>
<path d="M109.84 58.2V47.592H109.456L102.4 64.824L95.344 47.592H94.96V58.2V75H91.264V41.496H96.448L102.352 56.28H102.64L108.544 41.496H113.536V75H109.84V58.2ZM131.181 75.576C129.453 75.576 127.885 75.272 126.477 74.664C125.101 74.056 123.917 73.192 122.925 72.072C121.965 70.92 121.229 69.56 120.717 67.992C120.205 66.392 119.949 64.6 119.949 62.616C119.949 60.664 120.205 58.888 120.717 57.288C121.229 55.688 121.965 54.328 122.925 53.208C123.917 52.056 125.101 51.176 126.477 50.568C127.885 49.96 129.453 49.656 131.181 49.656C132.909 49.656 134.461 49.96 135.837 50.568C137.245 51.176 138.429 52.056 139.389 53.208C140.381 54.328 141.133 55.688 141.645 57.288C142.157 58.888 142.413 60.664 142.413 62.616C142.413 64.6 142.157 66.392 141.645 67.992C141.133 69.56 140.381 70.92 139.389 72.072C138.429 73.192 137.245 74.056 135.837 74.664C134.461 75.272 132.909 75.576 131.181 75.576ZM131.181 72.264C133.325 72.264 135.053 71.624 136.365 70.344C137.677 69.064 138.333 67.08 138.333 64.392V60.84C138.333 58.152 137.677 56.168 136.365 54.888C135.053 53.608 133.325 52.968 131.181 52.968C129.037 52.968 127.309 53.608 125.997 54.888C124.685 56.168 124.029 58.152 124.029 60.84V64.392C124.029 67.08 124.685 69.064 125.997 70.344C127.309 71.624 129.037 72.264 131.181 72.264ZM165.963 70.968H165.771C164.171 74.04 161.627 75.576 158.139 75.576C155.099 75.576 152.715 74.44 150.987 72.168C149.291 69.896 148.443 66.712 148.443 62.616C148.443 58.52 149.291 55.336 150.987 53.064C152.715 50.792 155.099 49.656 158.139 49.656C161.627 49.656 164.171 51.192 165.771 54.264H165.963V39.48H169.802V75H165.963V70.968ZM159.627 72.168C160.491 72.168 161.307 72.056 162.075 71.832C162.843 71.608 163.515 71.288 164.091 70.872C164.667 70.424 165.115 69.896 165.435 69.288C165.787 68.648 165.963 67.912 165.963 67.08V58.152C165.963 57.32 165.787 56.6 165.435 55.992C165.115 55.352 164.667 54.824 164.091 54.408C163.515 53.96 162.843 53.624 162.075 53.4C161.307 53.176 160.491 53.064 159.627 53.064C157.387 53.064 155.643 53.752 154.395 55.128C153.179 56.472 152.571 58.264 152.571 60.504V64.728C152.571 66.968 153.179 68.776 154.395 70.152C155.643 71.496 157.387 72.168 159.627 72.168ZM194.6 70.968H194.408C194.152 71.576 193.832 72.168 193.448 72.744C193.064 73.288 192.584 73.768 192.008 74.184C191.464 74.6 190.808 74.936 190.04 75.192C189.272 75.448 188.376 75.576 187.352 75.576C184.76 75.576 182.68 74.76 181.112 73.128C179.544 71.464 178.76 69.128 178.76 66.12V50.232H182.6V65.448C182.6 67.72 183.096 69.416 184.088 70.536C185.08 71.624 186.536 72.168 188.456 72.168C189.224 72.168 189.976 72.072 190.712 71.88C191.448 71.688 192.104 71.4 192.68 71.016C193.256 70.632 193.72 70.152 194.072 69.576C194.424 68.968 194.6 68.248 194.6 67.416V50.232H198.44V75H194.6V70.968ZM206.965 71.736H215.605V42.744H206.965V39.48H219.445V71.736H228.085V75H206.965V71.736ZM246.738 75.576C244.946 75.576 243.33 75.272 241.89 74.664C240.482 74.056 239.266 73.192 238.242 72.072C237.25 70.92 236.482 69.56 235.938 67.992C235.394 66.392 235.122 64.616 235.122 62.664C235.122 60.68 235.394 58.888 235.938 57.288C236.514 55.688 237.298 54.328 238.29 53.208C239.282 52.056 240.466 51.176 241.842 50.568C243.25 49.96 244.802 49.656 246.498 49.656C248.162 49.656 249.666 49.96 251.01 50.568C252.386 51.176 253.554 52.024 254.514 53.112C255.474 54.168 256.21 55.432 256.722 56.904C257.234 58.376 257.49 59.992 257.49 61.752V63.576H239.154V64.728C239.154 65.816 239.33 66.824 239.682 67.752C240.034 68.68 240.53 69.48 241.17 70.152C241.842 70.824 242.642 71.352 243.57 71.736C244.53 72.088 245.586 72.264 246.738 72.264C248.402 72.264 249.842 71.88 251.058 71.112C252.274 70.344 253.202 69.288 253.842 67.944L256.674 69.864C255.938 71.528 254.706 72.904 252.978 73.992C251.282 75.048 249.202 75.576 246.738 75.576ZM246.498 52.824C245.442 52.824 244.466 53.016 243.57 53.4C242.674 53.784 241.89 54.312 241.218 54.984C240.578 55.656 240.066 56.456 239.682 57.384C239.33 58.28 239.154 59.272 239.154 60.36V60.696H253.362V60.168C253.362 59.08 253.186 58.088 252.834 57.192C252.514 56.296 252.05 55.528 251.442 54.888C250.866 54.216 250.146 53.704 249.282 53.352C248.45 53 247.522 52.824 246.498 52.824ZM295.229 75V41.496H299.261V71.496H315.149V75H295.229ZM333.082 75.576C331.29 75.576 329.674 75.272 328.234 74.664C326.826 74.056 325.61 73.192 324.586 72.072C323.594 70.92 322.826 69.56 322.282 67.992C321.738 66.392 321.466 64.616 321.466 62.664C321.466 60.68 321.738 58.888 322.282 57.288C322.858 55.688 323.642 54.328 324.634 53.208C325.626 52.056 326.81 51.176 328.186 50.568C329.594 49.96 331.146 49.656 332.842 49.656C334.506 49.656 336.01 49.96 337.354 50.568C338.73 51.176 339.898 52.024 340.858 53.112C341.818 54.168 342.554 55.432 343.066 56.904C343.578 58.376 343.834 59.992 343.834 61.752V63.576H325.498V64.728C325.498 65.816 325.674 66.824 326.026 67.752C326.378 68.68 326.874 69.48 327.514 70.152C328.186 70.824 328.986 71.352 329.914 71.736C330.874 72.088 331.93 72.264 333.082 72.264C334.746 72.264 336.186 71.88 337.402 71.112C338.618 70.344 339.546 69.288 340.186 67.944L343.018 69.864C342.282 71.528 341.05 72.904 339.322 73.992C337.626 75.048 335.546 75.576 333.082 75.576ZM332.842 52.824C331.786 52.824 330.81 53.016 329.914 53.4C329.018 53.784 328.234 54.312 327.562 54.984C326.922 55.656 326.41 56.456 326.026 57.384C325.674 58.28 325.498 59.272 325.498 60.36V60.696H339.706V60.168C339.706 59.08 339.53 58.088 339.178 57.192C338.858 56.296 338.394 55.528 337.786 54.888C337.21 54.216 336.49 53.704 335.626 53.352C334.794 53 333.866 52.824 332.842 52.824ZM358.983 75L350.103 50.232H353.991L357.543 60.6L361.383 71.784H361.575L365.415 60.6L368.967 50.232H372.759L363.879 75H358.983ZM390.645 75.576C388.853 75.576 387.237 75.272 385.797 74.664C384.389 74.056 383.173 73.192 382.148 72.072C381.157 70.92 380.389 69.56 379.845 67.992C379.301 66.392 379.029 64.616 379.029 62.664C379.029 60.68 379.301 58.888 379.845 57.288C380.421 55.688 381.205 54.328 382.197 53.208C383.189 52.056 384.373 51.176 385.749 50.568C387.157 49.96 388.709 49.656 390.405 49.656C392.069 49.656 393.573 49.96 394.917 50.568C396.293 51.176 397.461 52.024 398.421 53.112C399.381 54.168 400.117 55.432 400.629 56.904C401.141 58.376 401.397 59.992 401.397 61.752V63.576H383.061V64.728C383.061 65.816 383.237 66.824 383.589 67.752C383.941 68.68 384.437 69.48 385.077 70.152C385.749 70.824 386.549 71.352 387.477 71.736C388.437 72.088 389.493 72.264 390.645 72.264C392.309 72.264 393.749 71.88 394.965 71.112C396.181 70.344 397.109 69.288 397.749 67.944L400.581 69.864C399.845 71.528 398.613 72.904 396.885 73.992C395.189 75.048 393.109 75.576 390.645 75.576ZM390.405 52.824C389.349 52.824 388.373 53.016 387.477 53.4C386.581 53.784 385.797 54.312 385.125 54.984C384.485 55.656 383.973 56.456 383.589 57.384C383.237 58.28 383.061 59.272 383.061 60.36V60.696H397.269V60.168C397.269 59.08 397.093 58.088 396.741 57.192C396.421 56.296 395.957 55.528 395.349 54.888C394.773 54.216 394.053 53.704 393.189 53.352C392.357 53 391.429 52.824 390.405 52.824ZM408.434 71.736H417.074V42.744H408.434V39.48H420.914V71.736H429.554V75H408.434V71.736Z" fill="black"/>
<path d="M99.952 162L91.072 137.232H94.96L98.512 147.6L102.352 158.784H102.544L106.384 147.6L109.936 137.232H113.728L104.848 162H99.952ZM140.541 162C139.037 162 137.965 161.616 137.325 160.848C136.685 160.08 136.285 159.12 136.125 157.968H135.885C135.341 159.408 134.461 160.544 133.245 161.376C132.061 162.176 130.461 162.576 128.445 162.576C125.853 162.576 123.789 161.904 122.253 160.56C120.717 159.216 119.949 157.376 119.949 155.04C119.949 152.736 120.781 150.96 122.445 149.712C124.141 148.464 126.861 147.84 130.605 147.84H135.885V145.392C135.885 143.568 135.373 142.208 134.349 141.312C133.325 140.384 131.869 139.92 129.981 139.92C128.317 139.92 126.957 140.256 125.901 140.928C124.845 141.568 123.997 142.448 123.357 143.568L120.765 141.648C121.085 141.008 121.517 140.384 122.061 139.776C122.605 139.168 123.277 138.64 124.077 138.192C124.877 137.712 125.789 137.344 126.813 137.088C127.837 136.8 128.973 136.656 130.221 136.656C133.133 136.656 135.437 137.392 137.133 138.864C138.861 140.336 139.725 142.384 139.725 145.008V158.64H143.181V162H140.541ZM129.117 159.36C130.109 159.36 131.005 159.248 131.805 159.024C132.637 158.768 133.357 158.448 133.965 158.064C134.573 157.648 135.037 157.168 135.357 156.624C135.709 156.048 135.885 155.44 135.885 154.8V150.72H130.605C128.301 150.72 126.621 151.04 125.565 151.68C124.509 152.32 123.981 153.248 123.981 154.464V155.472C123.981 156.752 124.429 157.728 125.325 158.4C126.253 159.04 127.517 159.36 129.117 159.36ZM149.259 158.736H156.507V140.496H149.259V137.232H160.347V143.472H160.587C161.099 141.52 162.059 140 163.467 138.912C164.907 137.792 166.731 137.232 168.939 137.232H172.395V141.072H167.739C165.531 141.072 163.739 141.712 162.363 142.992C161.019 144.272 160.347 145.952 160.347 148.032V158.736H169.947V162H149.259V158.736ZM218.389 162.576C216.597 162.576 214.997 162.272 213.589 161.664C212.213 161.024 211.045 160.144 210.085 159.024C209.125 157.904 208.389 156.544 207.877 154.944C207.397 153.344 207.157 151.568 207.157 149.616C207.157 147.664 207.413 145.888 207.925 144.288C208.437 142.688 209.173 141.328 210.133 140.208C211.093 139.056 212.261 138.176 213.637 137.568C215.013 136.96 216.581 136.656 218.341 136.656C220.741 136.656 222.693 137.184 224.197 138.24C225.701 139.296 226.805 140.672 227.509 142.368L224.437 144C223.989 142.72 223.237 141.728 222.181 141.024C221.157 140.32 219.877 139.968 218.341 139.968C217.221 139.968 216.213 140.16 215.317 140.544C214.453 140.896 213.717 141.408 213.109 142.08C212.501 142.752 212.037 143.552 211.717 144.48C211.429 145.408 211.285 146.416 211.285 147.504V151.728C211.285 152.816 211.429 153.824 211.717 154.752C212.037 155.68 212.501 156.48 213.109 157.152C213.717 157.824 214.469 158.352 215.365 158.736C216.261 159.088 217.285 159.264 218.437 159.264C220.101 159.264 221.477 158.88 222.565 158.112C223.653 157.344 224.517 156.288 225.157 154.944L227.893 156.816C227.157 158.48 226.005 159.856 224.437 160.944C222.901 162.032 220.885 162.576 218.389 162.576ZM246.306 162.576C244.578 162.576 243.01 162.272 241.602 161.664C240.226 161.056 239.042 160.192 238.05 159.072C237.09 157.92 236.354 156.56 235.842 154.992C235.33 153.392 235.074 151.6 235.074 149.616C235.074 147.664 235.33 145.888 235.842 144.288C236.354 142.688 237.09 141.328 238.05 140.208C239.042 139.056 240.226 138.176 241.602 137.568C243.01 136.96 244.578 136.656 246.306 136.656C248.034 136.656 249.586 136.96 250.962 137.568C252.37 138.176 253.554 139.056 254.514 140.208C255.506 141.328 256.258 142.688 256.77 144.288C257.282 145.888 257.538 147.664 257.538 149.616C257.538 151.6 257.282 153.392 256.77 154.992C256.258 156.56 255.506 157.92 254.514 159.072C253.554 160.192 252.37 161.056 250.962 161.664C249.586 162.272 248.034 162.576 246.306 162.576ZM246.306 159.264C248.45 159.264 250.178 158.624 251.49 157.344C252.802 156.064 253.458 154.08 253.458 151.392V147.84C253.458 145.152 252.802 143.168 251.49 141.888C250.178 140.608 248.45 139.968 246.306 139.968C244.162 139.968 242.434 140.608 241.122 141.888C239.81 143.168 239.154 145.152 239.154 147.84V151.392C239.154 154.08 239.81 156.064 241.122 157.344C242.434 158.624 244.162 159.264 246.306 159.264ZM280.944 157.968H280.752C280.496 158.576 280.176 159.168 279.792 159.744C279.408 160.288 278.928 160.768 278.352 161.184C277.808 161.6 277.152 161.936 276.384 162.192C275.616 162.448 274.72 162.576 273.696 162.576C271.104 162.576 269.024 161.76 267.456 160.128C265.888 158.464 265.104 156.128 265.104 153.12V137.232H268.944V152.448C268.944 154.72 269.44 156.416 270.432 157.536C271.424 158.624 272.88 159.168 274.799 159.168C275.568 159.168 276.32 159.072 277.056 158.88C277.792 158.688 278.448 158.4 279.024 158.016C279.6 157.632 280.064 157.152 280.416 156.576C280.768 155.968 280.944 155.248 280.944 154.416V137.232H284.784V162H280.944V157.968ZM294.173 162V137.232H298.013V141.264H298.205C298.461 140.656 298.781 140.08 299.165 139.536C299.549 138.96 300.013 138.464 300.557 138.048C301.133 137.632 301.805 137.296 302.573 137.04C303.341 136.784 304.237 136.656 305.261 136.656C307.853 136.656 309.933 137.488 311.501 139.152C313.069 140.784 313.853 143.104 313.853 146.112V162H310.013V146.784C310.013 144.512 309.517 142.832 308.525 141.744C307.533 140.624 306.077 140.064 304.157 140.064C303.389 140.064 302.637 140.16 301.901 140.352C301.165 140.544 300.509 140.832 299.933 141.216C299.357 141.6 298.893 142.096 298.541 142.704C298.189 143.312 298.013 144.016 298.013 144.816V162H294.173ZM333.85 162C331.962 162 330.57 161.472 329.674 160.416C328.81 159.36 328.378 158 328.378 156.336V140.496H320.122V137.232H326.266C327.098 137.232 327.674 137.072 327.994 136.752C328.346 136.4 328.522 135.808 328.522 134.976V128.496H332.218V137.232H343.498V140.496H332.218V158.736H343.498V162H333.85ZM361.863 162.576C360.071 162.576 358.455 162.272 357.015 161.664C355.607 161.056 354.391 160.192 353.367 159.072C352.375 157.92 351.607 156.56 351.063 154.992C350.519 153.392 350.247 151.616 350.247 149.664C350.247 147.68 350.519 145.888 351.063 144.288C351.639 142.688 352.423 141.328 353.415 140.208C354.407 139.056 355.591 138.176 356.967 137.568C358.375 136.96 359.927 136.656 361.623 136.656C363.287 136.656 364.791 136.96 366.135 137.568C367.511 138.176 368.679 139.024 369.639 140.112C370.599 141.168 371.335 142.432 371.847 143.904C372.359 145.376 372.615 146.992 372.615 148.752V150.576H354.279V151.728C354.279 152.816 354.455 153.824 354.807 154.752C355.159 155.68 355.655 156.48 356.295 157.152C356.967 157.824 357.767 158.352 358.695 158.736C359.655 159.088 360.711 159.264 361.863 159.264C363.527 159.264 364.967 158.88 366.183 158.112C367.399 157.344 368.327 156.288 368.967 154.944L371.799 156.864C371.063 158.528 369.831 159.904 368.103 160.992C366.407 162.048 364.327 162.576 361.863 162.576ZM361.623 139.824C360.567 139.824 359.591 140.016 358.695 140.4C357.799 140.784 357.015 141.312 356.343 141.984C355.703 142.656 355.191 143.456 354.807 144.384C354.455 145.28 354.279 146.272 354.279 147.36V147.696H368.487V147.168C368.487 146.08 368.311 145.088 367.959 144.192C367.639 143.296 367.175 142.528 366.567 141.888C365.991 141.216 365.271 140.704 364.407 140.352C363.575 140 362.647 139.824 361.623 139.824ZM379.509 158.736H386.757V140.496H379.509V137.232H390.597V143.472H390.837C391.349 141.52 392.309 140 393.717 138.912C395.157 137.792 396.981 137.232 399.189 137.232H402.645V141.072H397.989C395.781 141.072 393.989 141.712 392.613 142.992C391.269 144.272 390.597 145.952 390.597 148.032V158.736H400.197V162H379.509V158.736ZM436.351 144.144V140.88H459.199V144.144H436.351ZM436.351 153.744V150.48H459.199V153.744H436.351ZM505.338 162.576C503.29 162.576 501.53 162.192 500.058 161.424C498.586 160.624 497.37 159.488 496.41 158.016C495.45 156.544 494.746 154.736 494.298 152.592C493.85 150.448 493.626 148 493.626 145.248C493.626 142.528 493.85 140.096 494.298 137.952C494.746 135.776 495.45 133.952 496.41 132.48C497.37 131.008 498.586 129.888 500.058 129.12C501.53 128.32 503.29 127.92 505.338 127.92C507.386 127.92 509.146 128.32 510.618 129.12C512.09 129.888 513.306 131.008 514.266 132.48C515.226 133.952 515.93 135.776 516.378 137.952C516.826 140.096 517.05 142.528 517.05 145.248C517.05 148 516.826 150.448 516.378 152.592C515.93 154.736 515.226 156.544 514.266 158.016C513.306 159.488 512.09 160.624 510.618 161.424C509.146 162.192 507.386 162.576 505.338 162.576ZM505.338 159.072C506.682 159.072 507.834 158.816 508.794 158.304C509.754 157.76 510.522 157.008 511.098 156.048C511.706 155.088 512.154 153.936 512.442 152.592C512.73 151.216 512.874 149.68 512.874 147.984V142.512C512.874 140.848 512.73 139.328 512.442 137.952C512.154 136.576 511.706 135.408 511.098 134.448C510.522 133.488 509.754 132.752 508.794 132.24C507.834 131.696 506.682 131.424 505.338 131.424C503.994 131.424 502.842 131.696 501.882 132.24C500.922 132.752 500.138 133.488 499.53 134.448C498.954 135.408 498.522 136.576 498.234 137.952C497.946 139.328 497.802 140.848 497.802 142.512V147.984C497.802 149.68 497.946 151.216 498.234 152.592C498.522 153.936 498.954 155.088 499.53 156.048C500.138 157.008 500.922 157.76 501.882 158.304C502.842 158.816 503.994 159.072 505.338 159.072ZM505.338 148.08C504.218 148.08 503.434 147.856 502.986 147.408C502.57 146.96 502.362 146.416 502.362 145.776V144.72C502.362 144.08 502.57 143.536 502.986 143.088C503.434 142.64 504.218 142.416 505.338 142.416C506.458 142.416 507.226 142.64 507.642 143.088C508.09 143.536 508.314 144.08 508.314 144.72V145.776C508.314 146.416 508.09 146.96 507.642 147.408C507.226 147.856 506.458 148.08 505.338 148.08ZM532.055 155.472H538.247L532.727 168.768H529.511L532.055 155.472ZM534.119 143.424C532.807 143.424 531.879 143.152 531.335 142.608C530.823 142.064 530.567 141.376 530.567 140.544V139.68C530.567 138.848 530.823 138.16 531.335 137.616C531.879 137.072 532.807 136.8 534.119 136.8C535.431 136.8 536.343 137.072 536.855 137.616C537.399 138.16 537.671 138.848 537.671 139.68V140.544C537.671 141.376 537.399 142.064 536.855 142.608C536.343 143.152 535.431 143.424 534.119 143.424Z" fill="black"/>
<path d="M1042.35 526H1038.32V492.496H1050.51C1053.62 492.496 1055.98 493.344 1057.62 495.04C1059.25 496.736 1060.06 499.104 1060.06 502.144C1060.06 504.864 1059.36 507.04 1057.95 508.672C1056.54 510.304 1054.5 511.248 1051.81 511.504L1060.35 526H1055.84L1047.68 511.696H1042.35V526ZM1050.42 508.288C1052.11 508.288 1053.42 507.872 1054.35 507.04C1055.31 506.176 1055.79 504.96 1055.79 503.392V500.896C1055.79 499.328 1055.31 498.128 1054.35 497.296C1053.42 496.432 1052.11 496 1050.42 496H1042.35V508.288H1050.42ZM1083.04 521.968H1082.85C1082.59 522.576 1082.27 523.168 1081.89 523.744C1081.5 524.288 1081.02 524.768 1080.45 525.184C1079.9 525.6 1079.25 525.936 1078.48 526.192C1077.71 526.448 1076.81 526.576 1075.79 526.576C1073.2 526.576 1071.12 525.76 1069.55 524.128C1067.98 522.464 1067.2 520.128 1067.2 517.12V501.232H1071.04V516.448C1071.04 518.72 1071.53 520.416 1072.53 521.536C1073.52 522.624 1074.97 523.168 1076.89 523.168C1077.66 523.168 1078.41 523.072 1079.15 522.88C1079.89 522.688 1080.54 522.4 1081.12 522.016C1081.69 521.632 1082.16 521.152 1082.51 520.576C1082.86 519.968 1083.04 519.248 1083.04 518.416V501.232H1086.88V526H1083.04V521.968ZM1096.27 526V501.232H1100.11V505.264H1100.3C1100.55 504.656 1100.87 504.08 1101.26 503.536C1101.64 502.96 1102.11 502.464 1102.65 502.048C1103.23 501.632 1103.9 501.296 1104.67 501.04C1105.43 500.784 1106.33 500.656 1107.35 500.656C1109.95 500.656 1112.03 501.488 1113.59 503.152C1115.16 504.784 1115.95 507.104 1115.95 510.112V526H1112.11V510.784C1112.11 508.512 1111.61 506.832 1110.62 505.744C1109.63 504.624 1108.17 504.064 1106.25 504.064C1105.48 504.064 1104.73 504.16 1103.99 504.352C1103.26 504.544 1102.6 504.832 1102.03 505.216C1101.45 505.6 1100.99 506.096 1100.63 506.704C1100.28 507.312 1100.11 508.016 1100.11 508.816V526H1096.27ZM1135.03 526.576C1132.44 526.576 1130.2 526.144 1128.31 525.28C1126.46 524.384 1124.87 523.2 1123.56 521.728L1126.15 519.472C1127.34 520.72 1128.63 521.68 1130.04 522.352C1131.45 523.024 1133.14 523.36 1135.13 523.36C1137.05 523.36 1138.62 523.024 1139.83 522.352C1141.08 521.648 1141.7 520.56 1141.7 519.088C1141.7 518.448 1141.58 517.92 1141.32 517.504C1141.1 517.056 1140.78 516.704 1140.36 516.448C1139.94 516.192 1139.48 516 1138.97 515.872C1138.46 515.712 1137.91 515.584 1137.34 515.488L1133.45 514.912C1132.58 514.784 1131.64 514.608 1130.62 514.384C1129.62 514.16 1128.71 513.808 1127.88 513.328C1127.05 512.816 1126.34 512.144 1125.77 511.312C1125.22 510.48 1124.95 509.392 1124.95 508.048C1124.95 506.8 1125.19 505.728 1125.67 504.832C1126.18 503.904 1126.89 503.136 1127.78 502.528C1128.68 501.888 1129.74 501.424 1130.95 501.136C1132.17 500.816 1133.5 500.656 1134.94 500.656C1137.18 500.656 1139.11 501.008 1140.74 501.712C1142.41 502.416 1143.83 503.392 1145.02 504.64L1142.52 506.992C1142.23 506.64 1141.86 506.288 1141.42 505.936C1141 505.552 1140.47 505.216 1139.83 504.928C1139.22 504.608 1138.5 504.352 1137.67 504.16C1136.84 503.968 1135.88 503.872 1134.79 503.872C1132.84 503.872 1131.34 504.208 1130.28 504.88C1129.26 505.552 1128.74 506.528 1128.74 507.808C1128.74 508.448 1128.86 508.992 1129.08 509.44C1129.34 509.856 1129.67 510.192 1130.09 510.448C1130.5 510.704 1130.97 510.912 1131.48 511.072C1132.02 511.2 1132.57 511.312 1133.11 511.408L1137 511.984C1137.9 512.112 1138.84 512.288 1139.83 512.512C1140.82 512.736 1141.74 513.104 1142.57 513.616C1143.4 514.096 1144.09 514.752 1144.63 515.584C1145.21 516.416 1145.5 517.504 1145.5 518.848C1145.5 521.312 1144.54 523.216 1142.62 524.56C1140.73 525.904 1138.2 526.576 1135.03 526.576ZM1192.74 526.576C1190.95 526.576 1189.33 526.272 1187.89 525.664C1186.48 525.056 1185.27 524.192 1184.24 523.072C1183.25 521.92 1182.48 520.56 1181.94 518.992C1181.39 517.392 1181.12 515.616 1181.12 513.664C1181.12 511.68 1181.39 509.888 1181.94 508.288C1182.51 506.688 1183.3 505.328 1184.29 504.208C1185.28 503.056 1186.47 502.176 1187.84 501.568C1189.25 500.96 1190.8 500.656 1192.5 500.656C1194.16 500.656 1195.67 500.96 1197.01 501.568C1198.39 502.176 1199.55 503.024 1200.51 504.112C1201.47 505.168 1202.21 506.432 1202.72 507.904C1203.23 509.376 1203.49 510.992 1203.49 512.752V514.576H1185.15V515.728C1185.15 516.816 1185.33 517.824 1185.68 518.752C1186.03 519.68 1186.53 520.48 1187.17 521.152C1187.84 521.824 1188.64 522.352 1189.57 522.736C1190.53 523.088 1191.59 523.264 1192.74 523.264C1194.4 523.264 1195.84 522.88 1197.06 522.112C1198.27 521.344 1199.2 520.288 1199.84 518.944L1202.67 520.864C1201.94 522.528 1200.71 523.904 1198.98 524.992C1197.28 526.048 1195.2 526.576 1192.74 526.576ZM1192.5 503.824C1191.44 503.824 1190.47 504.016 1189.57 504.4C1188.67 504.784 1187.89 505.312 1187.22 505.984C1186.58 506.656 1186.07 507.456 1185.68 508.384C1185.33 509.28 1185.15 510.272 1185.15 511.36V511.696H1199.36V511.168C1199.36 510.08 1199.19 509.088 1198.83 508.192C1198.51 507.296 1198.05 506.528 1197.44 505.888C1196.87 505.216 1196.15 504.704 1195.28 504.352C1194.45 504 1193.52 503.824 1192.5 503.824ZM1218.64 526L1209.76 501.232H1213.65L1217.2 511.6L1221.04 522.784H1221.23L1225.07 511.6L1228.62 501.232H1232.42L1223.54 526H1218.64ZM1250.3 526.576C1248.51 526.576 1246.89 526.272 1245.45 525.664C1244.04 525.056 1242.83 524.192 1241.8 523.072C1240.81 521.92 1240.04 520.56 1239.5 518.992C1238.96 517.392 1238.68 515.616 1238.68 513.664C1238.68 511.68 1238.96 509.888 1239.5 508.288C1240.08 506.688 1240.86 505.328 1241.85 504.208C1242.84 503.056 1244.03 502.176 1245.4 501.568C1246.81 500.96 1248.36 500.656 1250.06 500.656C1251.72 500.656 1253.23 500.96 1254.57 501.568C1255.95 502.176 1257.12 503.024 1258.08 504.112C1259.04 505.168 1259.77 506.432 1260.28 507.904C1260.8 509.376 1261.05 510.992 1261.05 512.752V514.576H1242.72V515.728C1242.72 516.816 1242.89 517.824 1243.24 518.752C1243.6 519.68 1244.09 520.48 1244.73 521.152C1245.4 521.824 1246.2 522.352 1247.13 522.736C1248.09 523.088 1249.15 523.264 1250.3 523.264C1251.96 523.264 1253.4 522.88 1254.62 522.112C1255.84 521.344 1256.76 520.288 1257.4 518.944L1260.24 520.864C1259.5 522.528 1258.27 523.904 1256.54 524.992C1254.84 526.048 1252.76 526.576 1250.3 526.576ZM1250.06 503.824C1249 503.824 1248.03 504.016 1247.13 504.4C1246.24 504.784 1245.45 505.312 1244.78 505.984C1244.14 506.656 1243.63 507.456 1243.24 508.384C1242.89 509.28 1242.72 510.272 1242.72 511.36V511.696H1256.92V511.168C1256.92 510.08 1256.75 509.088 1256.4 508.192C1256.08 507.296 1255.61 506.528 1255 505.888C1254.43 505.216 1253.71 504.704 1252.84 504.352C1252.01 504 1251.08 503.824 1250.06 503.824ZM1267.95 522.736H1275.19V504.496H1267.95V501.232H1279.03V507.472H1279.27C1279.79 505.52 1280.75 504 1282.15 502.912C1283.59 501.792 1285.42 501.232 1287.63 501.232H1291.08V505.072H1286.43C1284.22 505.072 1282.43 505.712 1281.05 506.992C1279.71 508.272 1279.03 509.952 1279.03 512.032V522.736H1288.63V526H1267.95V522.736ZM1315.45 501.232H1319.29L1307 531.424C1306.71 532.128 1306.39 532.736 1306.04 533.248C1305.69 533.792 1305.27 534.224 1304.79 534.544C1304.31 534.896 1303.74 535.152 1303.06 535.312C1302.39 535.504 1301.59 535.6 1300.66 535.6H1297.02V532.336H1302.78L1305.56 525.52L1295.58 501.232H1299.51L1303.69 511.6L1307.38 521.008H1307.58L1311.27 511.6L1315.45 501.232ZM1358.95 526H1354.91V492.496H1367.11C1370.21 492.496 1372.58 493.344 1374.21 495.04C1375.84 496.736 1376.66 499.104 1376.66 502.144C1376.66 504.864 1375.95 507.04 1374.55 508.672C1373.14 510.304 1371.09 511.248 1368.4 511.504L1376.95 526H1372.43L1364.27 511.696H1358.95V526ZM1367.01 508.288C1368.71 508.288 1370.02 507.872 1370.95 507.04C1371.91 506.176 1372.39 504.96 1372.39 503.392V500.896C1372.39 499.328 1371.91 498.128 1370.95 497.296C1370.02 496.432 1368.71 496 1367.01 496H1358.95V508.288H1367.01ZM1394.21 526.576C1392.42 526.576 1390.8 526.272 1389.36 525.664C1387.95 525.056 1386.74 524.192 1385.71 523.072C1384.72 521.92 1383.95 520.56 1383.41 518.992C1382.86 517.392 1382.59 515.616 1382.59 513.664C1382.59 511.68 1382.86 509.888 1383.41 508.288C1383.98 506.688 1384.77 505.328 1385.76 504.208C1386.75 503.056 1387.94 502.176 1389.31 501.568C1390.72 500.96 1392.27 500.656 1393.97 500.656C1395.63 500.656 1397.14 500.96 1398.48 501.568C1399.86 502.176 1401.02 503.024 1401.98 504.112C1402.94 505.168 1403.68 506.432 1404.19 507.904C1404.7 509.376 1404.96 510.992 1404.96 512.752V514.576H1386.62V515.728C1386.62 516.816 1386.8 517.824 1387.15 518.752C1387.5 519.68 1388 520.48 1388.64 521.152C1389.31 521.824 1390.11 522.352 1391.04 522.736C1392 523.088 1393.06 523.264 1394.21 523.264C1395.87 523.264 1397.31 522.88 1398.53 522.112C1399.74 521.344 1400.67 520.288 1401.31 518.944L1404.14 520.864C1403.41 522.528 1402.18 523.904 1400.45 524.992C1398.75 526.048 1396.67 526.576 1394.21 526.576ZM1393.97 503.824C1392.91 503.824 1391.94 504.016 1391.04 504.4C1390.14 504.784 1389.36 505.312 1388.69 505.984C1388.05 506.656 1387.54 507.456 1387.15 508.384C1386.8 509.28 1386.62 510.272 1386.62 511.36V511.696H1400.83V511.168C1400.83 510.08 1400.66 509.088 1400.3 508.192C1399.98 507.296 1399.52 506.528 1398.91 505.888C1398.34 505.216 1397.62 504.704 1396.75 504.352C1395.92 504 1394.99 503.824 1393.97 503.824ZM1412.86 526V501.232H1416.7V505.264H1416.89C1417.15 504.656 1417.47 504.08 1417.85 503.536C1418.24 502.96 1418.7 502.464 1419.24 502.048C1419.82 501.632 1420.49 501.296 1421.26 501.04C1422.03 500.784 1422.92 500.656 1423.95 500.656C1426.54 500.656 1428.62 501.488 1430.19 503.152C1431.76 504.784 1432.54 507.104 1432.54 510.112V526H1428.7V510.784C1428.7 508.512 1428.2 506.832 1427.21 505.744C1426.22 504.624 1424.76 504.064 1422.84 504.064C1422.08 504.064 1421.32 504.16 1420.59 504.352C1419.85 504.544 1419.2 504.832 1418.62 505.216C1418.04 505.6 1417.58 506.096 1417.23 506.704C1416.88 507.312 1416.7 508.016 1416.7 508.816V526H1412.86ZM1457.34 521.968H1457.15C1455.55 525.04 1453 526.576 1449.51 526.576C1446.47 526.576 1444.09 525.44 1442.36 523.168C1440.67 520.896 1439.82 517.712 1439.82 513.616C1439.82 509.52 1440.67 506.336 1442.36 504.064C1444.09 501.792 1446.47 500.656 1449.51 500.656C1453 500.656 1455.55 502.192 1457.15 505.264H1457.34V490.48H1461.18V526H1457.34V521.968ZM1451 523.168C1451.87 523.168 1452.68 523.056 1453.45 522.832C1454.22 522.608 1454.89 522.288 1455.47 521.872C1456.04 521.424 1456.49 520.896 1456.81 520.288C1457.16 519.648 1457.34 518.912 1457.34 518.08V509.152C1457.34 508.32 1457.16 507.6 1456.81 506.992C1456.49 506.352 1456.04 505.824 1455.47 505.408C1454.89 504.96 1454.22 504.624 1453.45 504.4C1452.68 504.176 1451.87 504.064 1451 504.064C1448.76 504.064 1447.02 504.752 1445.77 506.128C1444.55 507.472 1443.95 509.264 1443.95 511.504V515.728C1443.95 517.968 1444.55 519.776 1445.77 521.152C1447.02 522.496 1448.76 523.168 1451 523.168ZM1480.55 526.576C1478.76 526.576 1477.14 526.272 1475.7 525.664C1474.29 525.056 1473.08 524.192 1472.05 523.072C1471.06 521.92 1470.29 520.56 1469.75 518.992C1469.21 517.392 1468.93 515.616 1468.93 513.664C1468.93 511.68 1469.21 509.888 1469.75 508.288C1470.33 506.688 1471.11 505.328 1472.1 504.208C1473.09 503.056 1474.28 502.176 1475.65 501.568C1477.06 500.96 1478.61 500.656 1480.31 500.656C1481.97 500.656 1483.48 500.96 1484.82 501.568C1486.2 502.176 1487.37 503.024 1488.33 504.112C1489.29 505.168 1490.02 506.432 1490.53 507.904C1491.05 509.376 1491.3 510.992 1491.3 512.752V514.576H1472.97V515.728C1472.97 516.816 1473.14 517.824 1473.49 518.752C1473.85 519.68 1474.34 520.48 1474.98 521.152C1475.65 521.824 1476.45 522.352 1477.38 522.736C1478.34 523.088 1479.4 523.264 1480.55 523.264C1482.21 523.264 1483.65 522.88 1484.87 522.112C1486.09 521.344 1487.01 520.288 1487.65 518.944L1490.49 520.864C1489.75 522.528 1488.52 523.904 1486.79 524.992C1485.09 526.048 1483.01 526.576 1480.55 526.576ZM1480.31 503.824C1479.25 503.824 1478.28 504.016 1477.38 504.4C1476.49 504.784 1475.7 505.312 1475.03 505.984C1474.39 506.656 1473.88 507.456 1473.49 508.384C1473.14 509.28 1472.97 510.272 1472.97 511.36V511.696H1487.17V511.168C1487.17 510.08 1487 509.088 1486.65 508.192C1486.33 507.296 1485.86 506.528 1485.25 505.888C1484.68 505.216 1483.96 504.704 1483.09 504.352C1482.26 504 1481.33 503.824 1480.31 503.824ZM1498.2 522.736H1505.44V504.496H1498.2V501.232H1509.28V507.472H1509.52C1510.04 505.52 1511 504 1512.4 502.912C1513.84 501.792 1515.67 501.232 1517.88 501.232H1521.33V505.072H1516.68C1514.47 505.072 1512.68 505.712 1511.3 506.992C1509.96 508.272 1509.28 509.952 1509.28 512.032V522.736H1518.88V526H1498.2V522.736Z" fill="black"/>
<path d="M526.256 305.968H526.064C525.808 306.576 525.488 307.168 525.104 307.744C524.72 308.288 524.24 308.768 523.664 309.184C523.12 309.6 522.464 309.936 521.696 310.192C520.928 310.448 520.032 310.576 519.008 310.576C516.416 310.576 514.336 309.76 512.768 308.128C511.2 306.464 510.416 304.128 510.416 301.12V285.232H514.256V300.448C514.256 302.72 514.752 304.416 515.744 305.536C516.736 306.624 518.192 307.168 520.112 307.168C520.88 307.168 521.632 307.072 522.368 306.88C523.104 306.688 523.76 306.4 524.336 306.016C524.912 305.632 525.376 305.152 525.728 304.576C526.08 303.968 526.256 303.248 526.256 302.416V285.232H530.096V310H526.256V305.968ZM549.469 310.576C546.877 310.576 544.637 310.144 542.749 309.28C540.893 308.384 539.309 307.2 537.997 305.728L540.589 303.472C541.773 304.72 543.069 305.68 544.477 306.352C545.885 307.024 547.581 307.36 549.565 307.36C551.485 307.36 553.053 307.024 554.269 306.352C555.517 305.648 556.141 304.56 556.141 303.088C556.141 302.448 556.013 301.92 555.757 301.504C555.533 301.056 555.213 300.704 554.797 300.448C554.381 300.192 553.917 300 553.405 299.872C552.893 299.712 552.349 299.584 551.773 299.488L547.885 298.912C547.021 298.784 546.077 298.608 545.053 298.384C544.061 298.16 543.149 297.808 542.317 297.328C541.485 296.816 540.781 296.144 540.205 295.312C539.661 294.48 539.389 293.392 539.389 292.048C539.389 290.8 539.629 289.728 540.109 288.832C540.621 287.904 541.325 287.136 542.221 286.528C543.117 285.888 544.173 285.424 545.389 285.136C546.605 284.816 547.933 284.656 549.373 284.656C551.613 284.656 553.549 285.008 555.181 285.712C556.845 286.416 558.269 287.392 559.453 288.64L556.957 290.992C556.669 290.64 556.301 290.288 555.853 289.936C555.437 289.552 554.909 289.216 554.269 288.928C553.661 288.608 552.941 288.352 552.109 288.16C551.277 287.968 550.317 287.872 549.229 287.872C547.277 287.872 545.773 288.208 544.717 288.88C543.693 289.552 543.181 290.528 543.181 291.808C543.181 292.448 543.293 292.992 543.517 293.44C543.773 293.856 544.109 294.192 544.525 294.448C544.941 294.704 545.405 294.912 545.917 295.072C546.461 295.2 547.005 295.312 547.549 295.408L551.437 295.984C552.333 296.112 553.277 296.288 554.269 296.512C555.261 296.736 556.173 297.104 557.005 297.616C557.837 298.096 558.525 298.752 559.069 299.584C559.645 300.416 559.933 301.504 559.933 302.848C559.933 305.312 558.973 307.216 557.053 308.56C555.165 309.904 552.637 310.576 549.469 310.576ZM578.395 310.576C576.603 310.576 574.987 310.272 573.547 309.664C572.139 309.056 570.923 308.192 569.898 307.072C568.907 305.92 568.139 304.56 567.595 302.992C567.051 301.392 566.779 299.616 566.779 297.664C566.779 295.68 567.051 293.888 567.595 292.288C568.171 290.688 568.955 289.328 569.947 288.208C570.939 287.056 572.123 286.176 573.499 285.568C574.907 284.96 576.459 284.656 578.155 284.656C579.819 284.656 581.323 284.96 582.667 285.568C584.043 286.176 585.211 287.024 586.171 288.112C587.131 289.168 587.867 290.432 588.379 291.904C588.891 293.376 589.147 294.992 589.147 296.752V298.576H570.811V299.728C570.811 300.816 570.987 301.824 571.339 302.752C571.691 303.68 572.187 304.48 572.827 305.152C573.499 305.824 574.299 306.352 575.227 306.736C576.187 307.088 577.243 307.264 578.395 307.264C580.059 307.264 581.499 306.88 582.715 306.112C583.931 305.344 584.859 304.288 585.499 302.944L588.331 304.864C587.595 306.528 586.363 307.904 584.635 308.992C582.939 310.048 580.859 310.576 578.395 310.576ZM578.155 287.824C577.099 287.824 576.123 288.016 575.227 288.4C574.331 288.784 573.547 289.312 572.875 289.984C572.235 290.656 571.723 291.456 571.339 292.384C570.987 293.28 570.811 294.272 570.811 295.36V295.696H585.019V295.168C585.019 294.08 584.843 293.088 584.491 292.192C584.171 291.296 583.707 290.528 583.099 289.888C582.523 289.216 581.803 288.704 580.939 288.352C580.107 288 579.179 287.824 578.155 287.824ZM612.744 305.968H612.552C610.952 309.04 608.408 310.576 604.92 310.576C601.88 310.576 599.496 309.44 597.768 307.168C596.072 304.896 595.224 301.712 595.224 297.616C595.224 293.52 596.072 290.336 597.768 288.064C599.496 285.792 601.88 284.656 604.92 284.656C608.408 284.656 610.952 286.192 612.552 289.264H612.744V274.48H616.584V310H612.744V305.968ZM606.408 307.168C607.272 307.168 608.088 307.056 608.856 306.832C609.624 306.608 610.296 306.288 610.872 305.872C611.448 305.424 611.896 304.896 612.216 304.288C612.568 303.648 612.744 302.912 612.744 302.08V293.152C612.744 292.32 612.568 291.6 612.216 290.992C611.896 290.352 611.448 289.824 610.872 289.408C610.296 288.96 609.624 288.624 608.856 288.4C608.088 288.176 607.272 288.064 606.408 288.064C604.168 288.064 602.424 288.752 601.176 290.128C599.96 291.472 599.352 293.264 599.352 295.504V299.728C599.352 301.968 599.96 303.776 601.176 305.152C602.424 306.496 604.168 307.168 606.408 307.168ZM654.466 274.48H658.306V289.264H658.498C660.098 286.192 662.642 284.656 666.13 284.656C669.17 284.656 671.538 285.792 673.234 288.064C674.962 290.336 675.826 293.52 675.826 297.616C675.826 301.712 674.962 304.896 673.234 307.168C671.538 309.44 669.17 310.576 666.13 310.576C662.642 310.576 660.098 309.04 658.498 305.968H658.306V310H654.466V274.48ZM664.642 307.168C666.882 307.168 668.61 306.496 669.826 305.152C671.074 303.776 671.698 301.968 671.698 299.728V295.504C671.698 293.264 671.074 291.472 669.826 290.128C668.61 288.752 666.882 288.064 664.642 288.064C663.778 288.064 662.962 288.176 662.194 288.4C661.426 288.624 660.754 288.96 660.178 289.408C659.602 289.824 659.138 290.352 658.786 290.992C658.466 291.6 658.306 292.32 658.306 293.152V302.08C658.306 302.912 658.466 303.648 658.786 304.288C659.138 304.896 659.602 305.424 660.178 305.872C660.754 306.288 661.426 306.608 662.194 306.832C662.962 307.056 663.778 307.168 664.642 307.168ZM701.104 285.232H704.944L692.656 315.424C692.368 316.128 692.048 316.736 691.696 317.248C691.344 317.792 690.928 318.224 690.448 318.544C689.968 318.896 689.392 319.152 688.72 319.312C688.048 319.504 687.248 319.6 686.32 319.6H682.672V316.336H688.432L691.216 309.52L681.232 285.232H685.168L689.344 295.6L693.04 305.008H693.232L696.928 295.6L701.104 285.232Z" fill="black"/>
<path d="M969.939 510.939C969.354 511.525 969.354 512.475 969.939 513.061L979.485 522.607C980.071 523.192 981.021 523.192 981.607 522.607C982.192 522.021 982.192 521.071 981.607 520.485L973.121 512L981.607 503.515C982.192 502.929 982.192 501.979 981.607 501.393C981.021 500.808 980.071 500.808 979.485 501.393L969.939 510.939ZM1019 512V510.5H971V512V513.5H1019V512Z" fill="black"/>
<path d="M471.061 317.061C470.475 317.646 469.525 317.646 468.939 317.061L459.393 307.515C458.808 306.929 458.808 305.979 459.393 305.393C459.979 304.808 460.929 304.808 461.515 305.393L470 313.879L478.485 305.393C479.071 304.808 480.021 304.808 480.607 305.393C481.192 305.979 481.192 306.929 480.607 307.515L471.061 317.061ZM470 268H471.5V316H470H468.5V268H470Z" fill="black"/>
<defs>
<filter id="filter0_d_0_1_1" x="0" y="346" width="959" height="315" filterUnits="userSpaceOnUse" color-interpolation-filters="sRGB">
<feFlood flood-opacity="0" result="BackgroundImageFix"/>
<feColorMatrix in="SourceAlpha" type="matrix" values="0 0 0 0 0 0 0 0 0 0 0 0 0 0 0 0 0 0 127 0" result="hardAlpha"/>
<feOffset dx="20" dy="20"/>
<feComposite in2="hardAlpha" operator="out"/>
<feColorMatrix type="matrix" values="0 0 0 0 0 0 0 0 0 0 0 0 0 0 0 0 0 0 1 0"/>
<feBlend mode="normal" in2="BackgroundImageFix" result="effect1_dropShadow_0_1"/>
<feBlend mode="normal" in="SourceGraphic" in2="effect1_dropShadow_0_1" result="shape"/>
</filter>
<filter id="filter1_d_0_1" x="0" y="0" width="959" height="231" filterUnits="userSpaceOnUse" color-interpolation-filters="sRGB">
<feFlood flood-opacity="0" result="BackgroundImageFix"/>
<feColorMatrix in="SourceAlpha" type="matrix" values="0 0 0 0 0 0 0 0 0 0 0 0 0 0 0 0 0 0 127 0" result="hardAlpha"/>
<feOffset dx="20" dy="20"/>
<feComposite in2="hardAlpha" operator="out"/>
<feColorMatrix type="matrix" values="0 0 0 0 0 0 0 0 0 0 0 0 0 0 0 0 0 0 1 0"/>
<feBlend mode="normal" in2="BackgroundImageFix" result="effect1_dropShadow_0_1"/>
<feBlend mode="normal" in="SourceGraphic" in2="effect1_dropShadow_0_1" result="shape"/>
</filter>
</defs>
</svg>

