<svg viewBox="0 0 1522 512" fill="none">
<g filter="url(#filter0_d_0_1)">
<rect width="939" height="492" fill="white"/>
<rect x="0.5" y="0.5" width="938" height="491" stroke="black"/>
</g>
<rect x="88.5" y="104.5" width="763" height="318" stroke="black"/>
<path d="M103.504 75.576C99.408 75.576 96.352 74.088 94.336 71.112C92.352 68.136 91.36 63.848 91.36 58.248C91.36 52.648 92.352 48.36 94.336 45.384C96.352 42.408 99.408 40.92 103.504 40.92C105.04 40.92 106.368 41.128 107.488 41.544C108.608 41.96 109.568 42.52 110.368 43.224C111.168 43.928 111.84 44.728 112.384 45.624C112.928 46.488 113.408 47.368 113.824 48.264L110.368 49.848C110.08 49.112 109.744 48.424 109.36 47.784C108.976 47.112 108.512 46.536 107.968 46.056C107.456 45.544 106.832 45.144 106.096 44.856C105.392 44.568 104.528 44.424 103.504 44.424C100.848 44.424 98.864 45.432 97.552 47.448C96.272 49.464 95.632 52.152 95.632 55.512V60.984C95.632 64.344 96.272 67.032 97.552 69.048C98.864 71.064 100.848 72.072 103.504 72.072C104.528 72.072 105.392 71.928 106.096 71.64C106.832 71.352 107.456 70.968 107.968 70.488C108.512 69.976 108.976 69.4 109.36 68.76C109.744 68.088 110.08 67.384 110.368 66.648L113.824 68.232C113.408 69.16 112.928 70.056 112.384 70.92C111.84 71.784 111.168 72.568 110.368 73.272C109.568 73.976 108.608 74.536 107.488 74.952C106.368 75.368 105.04 75.576 103.504 75.576ZM131.181 75.576C129.453 75.576 127.885 75.272 126.477 74.664C125.101 74.056 123.917 73.192 122.925 72.072C121.965 70.92 121.229 69.56 120.717 67.992C120.205 66.392 119.949 64.6 119.949 62.616C119.949 60.664 120.205 58.888 120.717 57.288C121.229 55.688 121.965 54.328 122.925 53.208C123.917 52.056 125.101 51.176 126.477 50.568C127.885 49.96 129.453 49.656 131.181 49.656C132.909 49.656 134.461 49.96 135.837 50.568C137.245 51.176 138.429 52.056 139.389 53.208C140.381 54.328 141.133 55.688 141.645 57.288C142.157 58.888 142.413 60.664 142.413 62.616C142.413 64.6 142.157 66.392 141.645 67.992C141.133 69.56 140.381 70.92 139.389 72.072C138.429 73.192 137.245 74.056 135.837 74.664C134.461 75.272 132.909 75.576 131.181 75.576ZM131.181 72.264C133.325 72.264 135.053 71.624 136.365 70.344C137.677 69.064 138.333 67.08 138.333 64.392V60.84C138.333 58.152 137.677 56.168 136.365 54.888C135.053 53.608 133.325 52.968 131.181 52.968C129.037 52.968 127.309 53.608 125.997 54.888C124.685 56.168 124.029 58.152 124.029 60.84V64.392C124.029 67.08 124.685 69.064 125.997 70.344C127.309 71.624 129.037 72.264 131.181 72.264ZM148.155 75V50.232H151.707V53.112H151.898C152.283 52.152 152.827 51.336 153.531 50.664C154.235 49.992 155.275 49.656 156.651 49.656C158.091 49.656 159.163 50.024 159.867 50.76C160.571 51.464 161.003 52.392 161.163 53.544H161.307C161.755 52.424 162.395 51.496 163.227 50.76C164.059 50.024 165.211 49.656 166.683 49.656C168.699 49.656 170.043 50.36 170.715 51.768C171.419 53.176 171.771 55.192 171.771 57.816V75H168.219V58.44C168.219 56.328 167.995 54.872 167.547 54.072C167.131 53.24 166.347 52.824 165.195 52.824C164.171 52.824 163.339 53.16 162.699 53.832C162.059 54.472 161.739 55.464 161.739 56.808V75H158.187V58.44C158.187 56.328 157.963 54.872 157.515 54.072C157.099 53.24 156.331 52.824 155.211 52.824C154.187 52.824 153.339 53.16 152.667 53.832C152.027 54.472 151.707 55.464 151.707 56.808V75H148.155ZM178.904 50.232H182.744V54.264H182.936C184.536 51.192 187.08 49.656 190.568 49.656C193.608 49.656 195.976 50.792 197.672 53.064C199.4 55.336 200.264 58.52 200.264 62.616C200.264 66.712 199.4 69.896 197.672 72.168C195.976 74.44 193.608 75.576 190.568 75.576C187.08 75.576 184.536 74.04 182.936 70.968H182.744V84.6H178.904V50.232ZM189.08 72.168C191.32 72.168 193.048 71.496 194.264 70.152C195.512 68.776 196.136 66.968 196.136 64.728V60.504C196.136 58.264 195.512 56.472 194.264 55.128C193.048 53.752 191.32 53.064 189.08 53.064C188.216 53.064 187.4 53.176 186.632 53.4C185.864 53.624 185.192 53.96 184.616 54.408C184.04 54.824 183.576 55.352 183.224 55.992C182.904 56.6 182.744 57.32 182.744 58.152V67.08C182.744 67.912 182.904 68.648 183.224 69.288C183.576 69.896 184.04 70.424 184.616 70.872C185.192 71.288 185.864 71.608 186.632 71.832C187.4 72.056 188.216 72.168 189.08 72.168ZM217.525 75.576C215.797 75.576 214.229 75.272 212.821 74.664C211.445 74.056 210.261 73.192 209.269 72.072C208.309 70.92 207.573 69.56 207.061 67.992C206.549 66.392 206.293 64.6 206.293 62.616C206.293 60.664 206.549 58.888 207.061 57.288C207.573 55.688 208.309 54.328 209.269 53.208C210.261 52.056 211.445 51.176 212.821 50.568C214.229 49.96 215.797 49.656 217.525 49.656C219.253 49.656 220.805 49.96 222.181 50.568C223.589 51.176 224.773 52.056 225.733 53.208C226.725 54.328 227.477 55.688 227.989 57.288C228.501 58.888 228.757 60.664 228.757 62.616C228.757 64.6 228.501 66.392 227.989 67.992C227.477 69.56 226.725 70.92 225.733 72.072C224.773 73.192 223.589 74.056 222.181 74.664C220.805 75.272 219.253 75.576 217.525 75.576ZM217.525 72.264C219.669 72.264 221.397 71.624 222.709 70.344C224.021 69.064 224.677 67.08 224.677 64.392V60.84C224.677 58.152 224.021 56.168 222.709 54.888C221.397 53.608 219.669 52.968 217.525 52.968C215.381 52.968 213.653 53.608 212.341 54.888C211.029 56.168 210.373 58.152 210.373 60.84V64.392C210.373 67.08 211.029 69.064 212.341 70.344C213.653 71.624 215.381 72.264 217.525 72.264ZM236.61 75V50.232H240.45V54.264H240.642C240.898 53.656 241.218 53.08 241.602 52.536C241.986 51.96 242.45 51.464 242.994 51.048C243.57 50.632 244.242 50.296 245.01 50.04C245.778 49.784 246.674 49.656 247.698 49.656C250.29 49.656 252.37 50.488 253.938 52.152C255.506 53.784 256.29 56.104 256.29 59.112V75H252.45V59.784C252.45 57.512 251.954 55.832 250.962 54.744C249.97 53.624 248.514 53.064 246.594 53.064C245.826 53.064 245.074 53.16 244.338 53.352C243.602 53.544 242.946 53.832 242.37 54.216C241.794 54.6 241.33 55.096 240.978 55.704C240.626 56.312 240.45 57.016 240.45 57.816V75H236.61ZM275.52 75.576C273.728 75.576 272.112 75.272 270.672 74.664C269.264 74.056 268.048 73.192 267.023 72.072C266.032 70.92 265.264 69.56 264.72 67.992C264.176 66.392 263.904 64.616 263.904 62.664C263.904 60.68 264.176 58.888 264.72 57.288C265.296 55.688 266.08 54.328 267.072 53.208C268.064 52.056 269.248 51.176 270.624 50.568C272.032 49.96 273.584 49.656 275.28 49.656C276.944 49.656 278.448 49.96 279.792 50.568C281.168 51.176 282.336 52.024 283.296 53.112C284.256 54.168 284.992 55.432 285.504 56.904C286.016 58.376 286.272 59.992 286.272 61.752V63.576H267.936V64.728C267.936 65.816 268.112 66.824 268.464 67.752C268.816 68.68 269.312 69.48 269.952 70.152C270.624 70.824 271.424 71.352 272.352 71.736C273.312 72.088 274.368 72.264 275.52 72.264C277.184 72.264 278.624 71.88 279.84 71.112C281.056 70.344 281.984 69.288 282.624 67.944L285.456 69.864C284.72 71.528 283.488 72.904 281.76 73.992C280.064 75.048 277.984 75.576 275.52 75.576ZM275.28 52.824C274.224 52.824 273.248 53.016 272.352 53.4C271.456 53.784 270.672 54.312 270 54.984C269.36 55.656 268.848 56.456 268.464 57.384C268.112 58.28 267.936 59.272 267.936 60.36V60.696H282.144V60.168C282.144 59.08 281.968 58.088 281.616 57.192C281.296 56.296 280.832 55.528 280.224 54.888C279.648 54.216 278.928 53.704 278.064 53.352C277.232 53 276.304 52.824 275.28 52.824ZM294.173 75V50.232H298.013V54.264H298.205C298.461 53.656 298.781 53.08 299.165 52.536C299.549 51.96 300.013 51.464 300.557 51.048C301.133 50.632 301.805 50.296 302.573 50.04C303.341 49.784 304.237 49.656 305.261 49.656C307.853 49.656 309.933 50.488 311.501 52.152C313.069 53.784 313.853 56.104 313.853 59.112V75H310.013V59.784C310.013 57.512 309.517 55.832 308.525 54.744C307.533 53.624 306.077 53.064 304.157 53.064C303.389 53.064 302.637 53.16 301.901 53.352C301.165 53.544 300.509 53.832 299.933 54.216C299.357 54.6 298.893 55.096 298.541 55.704C298.189 56.312 298.013 57.016 298.013 57.816V75H294.173ZM333.85 75C331.962 75 330.57 74.472 329.674 73.416C328.81 72.36 328.378 71 328.378 69.336V53.496H320.122V50.232H326.266C327.098 50.232 327.674 50.072 327.994 49.752C328.346 49.4 328.522 48.808 328.522 47.976V41.496H332.218V50.232H343.498V53.496H332.218V71.736H343.498V75H333.85ZM380.133 75V41.496H401.253V45H384.165V56.28H399.812V59.784H384.165V75H380.133ZM424.85 70.968H424.658C424.402 71.576 424.082 72.168 423.698 72.744C423.314 73.288 422.834 73.768 422.258 74.184C421.714 74.6 421.058 74.936 420.29 75.192C419.522 75.448 418.626 75.576 417.602 75.576C415.01 75.576 412.93 74.76 411.362 73.128C409.794 71.464 409.01 69.128 409.01 66.12V50.232H412.85V65.448C412.85 67.72 413.346 69.416 414.338 70.536C415.33 71.624 416.786 72.168 418.706 72.168C419.474 72.168 420.226 72.072 420.962 71.88C421.698 71.688 422.354 71.4 422.93 71.016C423.506 70.632 423.97 70.152 424.322 69.576C424.674 68.968 424.85 68.248 424.85 67.416V50.232H428.69V75H424.85V70.968ZM438.079 75V50.232H441.919V54.264H442.111C442.367 53.656 442.687 53.08 443.071 52.536C443.455 51.96 443.919 51.464 444.463 51.048C445.039 50.632 445.711 50.296 446.479 50.04C447.247 49.784 448.143 49.656 449.167 49.656C451.759 49.656 453.839 50.488 455.407 52.152C456.975 53.784 457.759 56.104 457.759 59.112V75H453.919V59.784C453.919 57.512 453.423 55.832 452.431 54.744C451.439 53.624 449.983 53.064 448.063 53.064C447.295 53.064 446.543 53.16 445.807 53.352C445.071 53.544 444.415 53.832 443.839 54.216C443.263 54.6 442.799 55.096 442.447 55.704C442.095 56.312 441.919 57.016 441.919 57.816V75H438.079ZM477.42 75.576C475.628 75.576 474.028 75.272 472.62 74.664C471.244 74.024 470.076 73.144 469.116 72.024C468.156 70.904 467.42 69.544 466.908 67.944C466.428 66.344 466.188 64.568 466.188 62.616C466.188 60.664 466.444 58.888 466.956 57.288C467.468 55.688 468.204 54.328 469.164 53.208C470.124 52.056 471.292 51.176 472.668 50.568C474.044 49.96 475.612 49.656 477.372 49.656C479.772 49.656 481.724 50.184 483.228 51.24C484.732 52.296 485.836 53.672 486.54 55.368L483.468 57C483.02 55.72 482.268 54.728 481.212 54.024C480.188 53.32 478.908 52.968 477.372 52.968C476.252 52.968 475.244 53.16 474.348 53.544C473.484 53.896 472.748 54.408 472.14 55.08C471.532 55.752 471.068 56.552 470.748 57.48C470.46 58.408 470.316 59.416 470.316 60.504V64.728C470.316 65.816 470.46 66.824 470.748 67.752C471.068 68.68 471.532 69.48 472.14 70.152C472.748 70.824 473.5 71.352 474.396 71.736C475.292 72.088 476.316 72.264 477.468 72.264C479.132 72.264 480.508 71.88 481.596 71.112C482.684 70.344 483.548 69.288 484.188 67.944L486.924 69.816C486.188 71.48 485.036 72.856 483.468 73.944C481.932 75.032 479.916 75.576 477.42 75.576ZM506.538 75C504.65 75 503.258 74.472 502.362 73.416C501.498 72.36 501.066 71 501.066 69.336V53.496H492.81V50.232H498.954C499.786 50.232 500.362 50.072 500.682 49.752C501.034 49.4 501.21 48.808 501.21 47.976V41.496H504.906V50.232H516.186V53.496H504.906V71.736H516.186V75H506.538ZM535.655 44.76C534.535 44.76 533.751 44.536 533.303 44.088C532.855 43.608 532.631 43.016 532.631 42.312V41.544C532.631 40.84 532.855 40.264 533.303 39.816C533.751 39.336 534.535 39.096 535.655 39.096C536.775 39.096 537.559 39.336 538.007 39.816C538.455 40.264 538.679 40.84 538.679 41.544V42.312C538.679 43.016 538.455 43.608 538.007 44.088C537.559 44.536 536.775 44.76 535.655 44.76ZM524.807 71.736H533.735V53.496H524.807V50.232H537.575V71.736H545.927V75H524.807V71.736ZM562.9 75.576C561.172 75.576 559.604 75.272 558.196 74.664C556.82 74.056 555.636 73.192 554.644 72.072C553.684 70.92 552.948 69.56 552.436 67.992C551.924 66.392 551.668 64.6 551.668 62.616C551.668 60.664 551.924 58.888 552.436 57.288C552.948 55.688 553.684 54.328 554.644 53.208C555.636 52.056 556.82 51.176 558.196 50.568C559.604 49.96 561.172 49.656 562.9 49.656C564.628 49.656 566.18 49.96 567.556 50.568C568.964 51.176 570.148 52.056 571.108 53.208C572.1 54.328 572.852 55.688 573.364 57.288C573.876 58.888 574.132 60.664 574.132 62.616C574.132 64.6 573.876 66.392 573.364 67.992C572.852 69.56 572.1 70.92 571.108 72.072C570.148 73.192 568.964 74.056 567.556 74.664C566.18 75.272 564.628 75.576 562.9 75.576ZM562.9 72.264C565.044 72.264 566.772 71.624 568.084 70.344C569.396 69.064 570.052 67.08 570.052 64.392V60.84C570.052 58.152 569.396 56.168 568.084 54.888C566.772 53.608 565.044 52.968 562.9 52.968C560.756 52.968 559.028 53.608 557.716 54.888C556.404 56.168 555.748 58.152 555.748 60.84V64.392C555.748 67.08 556.404 69.064 557.716 70.344C559.028 71.624 560.756 72.264 562.9 72.264ZM581.985 75V50.232H585.825V54.264H586.017C586.273 53.656 586.593 53.08 586.977 52.536C587.361 51.96 587.825 51.464 588.369 51.048C588.945 50.632 589.617 50.296 590.385 50.04C591.153 49.784 592.049 49.656 593.073 49.656C595.665 49.656 597.745 50.488 599.313 52.152C600.881 53.784 601.665 56.104 601.665 59.112V75H597.825V59.784C597.825 57.512 597.329 55.832 596.337 54.744C595.345 53.624 593.889 53.064 591.969 53.064C591.201 53.064 590.449 53.16 589.713 53.352C588.977 53.544 588.321 53.832 587.745 54.216C587.169 54.6 586.705 55.096 586.353 55.704C586.001 56.312 585.825 57.016 585.825 57.816V75H581.985Z" fill="black"/>
<path d="M150.256 181.968H150.064C149.808 182.576 149.488 183.168 149.104 183.744C148.72 184.288 148.24 184.768 147.664 185.184C147.12 185.6 146.464 185.936 145.696 186.192C144.928 186.448 144.032 186.576 143.008 186.576C140.416 186.576 138.336 185.76 136.768 184.128C135.2 182.464 134.416 180.128 134.416 177.12V161.232H138.256V176.448C138.256 178.72 138.752 180.416 139.744 181.536C140.736 182.624 142.192 183.168 144.112 183.168C144.88 183.168 145.632 183.072 146.368 182.88C147.104 182.688 147.76 182.4 148.336 182.016C148.912 181.632 149.376 181.152 149.728 180.576C150.08 179.968 150.256 179.248 150.256 178.416V161.232H154.096V186H150.256V181.968ZM173.469 186.576C170.877 186.576 168.637 186.144 166.749 185.28C164.893 184.384 163.309 183.2 161.997 181.728L164.589 179.472C165.773 180.72 167.069 181.68 168.477 182.352C169.885 183.024 171.581 183.36 173.565 183.36C175.485 183.36 177.053 183.024 178.269 182.352C179.517 181.648 180.141 180.56 180.141 179.088C180.141 178.448 180.013 177.92 179.757 177.504C179.533 177.056 179.213 176.704 178.797 176.448C178.381 176.192 177.917 176 177.405 175.872C176.893 175.712 176.349 175.584 175.773 175.488L171.885 174.912C171.021 174.784 170.077 174.608 169.053 174.384C168.061 174.16 167.149 173.808 166.317 173.328C165.485 172.816 164.781 172.144 164.205 171.312C163.661 170.48 163.389 169.392 163.389 168.048C163.389 166.8 163.629 165.728 164.109 164.832C164.621 163.904 165.325 163.136 166.221 162.528C167.117 161.888 168.173 161.424 169.389 161.136C170.605 160.816 171.933 160.656 173.373 160.656C175.613 160.656 177.549 161.008 179.181 161.712C180.845 162.416 182.269 163.392 183.453 164.64L180.957 166.992C180.669 166.64 180.301 166.288 179.853 165.936C179.437 165.552 178.909 165.216 178.269 164.928C177.661 164.608 176.941 164.352 176.109 164.16C175.277 163.968 174.317 163.872 173.229 163.872C171.277 163.872 169.773 164.208 168.717 164.88C167.693 165.552 167.181 166.528 167.181 167.808C167.181 168.448 167.293 168.992 167.517 169.44C167.773 169.856 168.109 170.192 168.525 170.448C168.941 170.704 169.405 170.912 169.917 171.072C170.461 171.2 171.005 171.312 171.549 171.408L175.437 171.984C176.333 172.112 177.277 172.288 178.269 172.512C179.261 172.736 180.173 173.104 181.005 173.616C181.837 174.096 182.525 174.752 183.069 175.584C183.645 176.416 183.933 177.504 183.933 178.848C183.933 181.312 182.973 183.216 181.053 184.56C179.165 185.904 176.637 186.576 173.469 186.576ZM202.395 186.576C200.603 186.576 198.987 186.272 197.547 185.664C196.139 185.056 194.923 184.192 193.898 183.072C192.907 181.92 192.139 180.56 191.595 178.992C191.051 177.392 190.779 175.616 190.779 173.664C190.779 171.68 191.051 169.888 191.595 168.288C192.171 166.688 192.955 165.328 193.947 164.208C194.939 163.056 196.123 162.176 197.499 161.568C198.907 160.96 200.459 160.656 202.155 160.656C203.819 160.656 205.323 160.96 206.667 161.568C208.043 162.176 209.211 163.024 210.171 164.112C211.131 165.168 211.867 166.432 212.379 167.904C212.891 169.376 213.147 170.992 213.147 172.752V174.576H194.811V175.728C194.811 176.816 194.987 177.824 195.339 178.752C195.691 179.68 196.187 180.48 196.827 181.152C197.499 181.824 198.299 182.352 199.227 182.736C200.187 183.088 201.243 183.264 202.395 183.264C204.059 183.264 205.499 182.88 206.715 182.112C207.931 181.344 208.859 180.288 209.499 178.944L212.331 180.864C211.595 182.528 210.363 183.904 208.635 184.992C206.939 186.048 204.859 186.576 202.395 186.576ZM202.155 163.824C201.099 163.824 200.123 164.016 199.227 164.4C198.331 164.784 197.547 165.312 196.875 165.984C196.235 166.656 195.723 167.456 195.339 168.384C194.987 169.28 194.811 170.272 194.811 171.36V171.696H209.019V171.168C209.019 170.08 208.843 169.088 208.491 168.192C208.171 167.296 207.707 166.528 207.099 165.888C206.523 165.216 205.803 164.704 204.939 164.352C204.107 164 203.179 163.824 202.155 163.824ZM230.648 186.576C227.64 186.576 225.176 186.032 223.256 184.944C221.336 183.824 219.752 182.4 218.504 180.672L221.432 178.272C222.744 179.904 224.12 181.12 225.56 181.92C227.032 182.72 228.776 183.12 230.792 183.12C233.224 183.12 235.08 182.56 236.36 181.44C237.64 180.32 238.28 178.752 238.28 176.736C238.28 175.104 237.816 173.84 236.888 172.944C235.96 172.016 234.344 171.36 232.04 170.976L228.296 170.352C226.664 170.064 225.288 169.632 224.168 169.056C223.08 168.48 222.2 167.792 221.528 166.992C220.856 166.16 220.376 165.264 220.088 164.304C219.8 163.312 219.656 162.288 219.656 161.232C219.656 158.16 220.664 155.84 222.68 154.272C224.696 152.704 227.416 151.92 230.84 151.92C233.528 151.92 235.784 152.368 237.608 153.264C239.464 154.16 240.952 155.424 242.072 157.056L239.24 159.504C238.312 158.288 237.192 157.296 235.88 156.528C234.568 155.76 232.872 155.376 230.792 155.376C228.52 155.376 226.776 155.856 225.56 156.816C224.344 157.776 223.736 159.216 223.736 161.136C223.736 162.64 224.184 163.872 225.08 164.832C226.008 165.76 227.656 166.432 230.024 166.848L233.624 167.472C235.256 167.76 236.632 168.192 237.752 168.768C238.872 169.344 239.768 170.032 240.44 170.832C241.144 171.632 241.64 172.528 241.928 173.52C242.216 174.512 242.36 175.552 242.36 176.64C242.36 179.744 241.336 182.176 239.288 183.936C237.272 185.696 234.392 186.576 230.648 186.576ZM260.725 186C258.837 186 257.445 185.472 256.549 184.416C255.685 183.36 255.253 182 255.253 180.336V164.496H246.997V161.232H253.141C253.973 161.232 254.549 161.072 254.869 160.752C255.221 160.4 255.397 159.808 255.397 158.976V152.496H259.093V161.232H270.373V164.496H259.093V182.736H270.373V186H260.725ZM297.666 186C296.162 186 295.09 185.616 294.45 184.848C293.81 184.08 293.41 183.12 293.25 181.968H293.01C292.466 183.408 291.586 184.544 290.37 185.376C289.186 186.176 287.586 186.576 285.57 186.576C282.978 186.576 280.914 185.904 279.378 184.56C277.842 183.216 277.074 181.376 277.074 179.04C277.074 176.736 277.906 174.96 279.57 173.712C281.266 172.464 283.986 171.84 287.73 171.84H293.01V169.392C293.01 167.568 292.498 166.208 291.474 165.312C290.45 164.384 288.994 163.92 287.106 163.92C285.442 163.92 284.082 164.256 283.026 164.928C281.97 165.568 281.122 166.448 280.482 167.568L277.89 165.648C278.21 165.008 278.642 164.384 279.186 163.776C279.73 163.168 280.402 162.64 281.202 162.192C282.002 161.712 282.914 161.344 283.938 161.088C284.962 160.8 286.098 160.656 287.346 160.656C290.258 160.656 292.562 161.392 294.258 162.864C295.986 164.336 296.85 166.384 296.85 169.008V182.64H300.306V186H297.666ZM286.242 183.36C287.234 183.36 288.13 183.248 288.93 183.024C289.762 182.768 290.482 182.448 291.09 182.064C291.698 181.648 292.162 181.168 292.482 180.624C292.834 180.048 293.01 179.44 293.01 178.8V174.72H287.73C285.426 174.72 283.746 175.04 282.69 175.68C281.634 176.32 281.106 177.248 281.106 178.464V179.472C281.106 180.752 281.554 181.728 282.45 182.4C283.378 183.04 284.642 183.36 286.242 183.36ZM318.288 186C316.4 186 315.008 185.472 314.112 184.416C313.248 183.36 312.816 182 312.816 180.336V164.496H304.56V161.232H310.704C311.536 161.232 312.112 161.072 312.432 160.752C312.784 160.4 312.96 159.808 312.96 158.976V152.496H316.656V161.232H327.936V164.496H316.656V182.736H327.936V186H318.288ZM346.301 186.576C344.509 186.576 342.893 186.272 341.453 185.664C340.045 185.056 338.829 184.192 337.805 183.072C336.813 181.92 336.045 180.56 335.501 178.992C334.957 177.392 334.685 175.616 334.685 173.664C334.685 171.68 334.957 169.888 335.501 168.288C336.077 166.688 336.861 165.328 337.853 164.208C338.845 163.056 340.029 162.176 341.405 161.568C342.813 160.96 344.365 160.656 346.061 160.656C347.725 160.656 349.229 160.96 350.573 161.568C351.949 162.176 353.117 163.024 354.077 164.112C355.037 165.168 355.773 166.432 356.285 167.904C356.797 169.376 357.053 170.992 357.053 172.752V174.576H338.717V175.728C338.717 176.816 338.893 177.824 339.245 178.752C339.597 179.68 340.093 180.48 340.733 181.152C341.405 181.824 342.205 182.352 343.133 182.736C344.093 183.088 345.149 183.264 346.301 183.264C347.965 183.264 349.405 182.88 350.621 182.112C351.837 181.344 352.765 180.288 353.405 178.944L356.237 180.864C355.501 182.528 354.269 183.904 352.541 184.992C350.845 186.048 348.765 186.576 346.301 186.576ZM346.061 163.824C345.005 163.824 344.029 164.016 343.133 164.4C342.237 164.784 341.453 165.312 340.781 165.984C340.141 166.656 339.629 167.456 339.245 168.384C338.893 169.28 338.717 170.272 338.717 171.36V171.696H352.925V171.168C352.925 170.08 352.749 169.088 352.397 168.192C352.077 167.296 351.613 166.528 351.005 165.888C350.429 165.216 349.709 164.704 348.845 164.352C348.013 164 347.085 163.824 346.061 163.824ZM398.871 171.072C398.871 168.736 399.127 166.496 399.639 164.352C400.183 162.176 400.903 160.16 401.799 158.304C402.727 156.448 403.799 154.784 405.015 153.312C406.231 151.808 407.511 150.544 408.855 149.52H412.743C411.335 150.576 410.007 151.808 408.759 153.216C407.543 154.592 406.455 156.112 405.495 157.776C404.567 159.408 403.831 161.184 403.287 163.104C402.743 164.992 402.471 166.96 402.471 169.008V173.136C402.471 175.184 402.743 177.168 403.287 179.088C403.831 180.976 404.567 182.752 405.495 184.416C406.455 186.048 407.543 187.552 408.759 188.928C410.007 190.336 411.335 191.568 412.743 192.624H408.855C407.511 191.632 406.231 190.384 405.015 188.88C403.799 187.376 402.727 185.696 401.799 183.84C400.903 181.984 400.183 179.984 399.639 177.84C399.127 175.664 398.871 173.408 398.871 171.072ZM421.509 182.736H428.757V164.496H421.509V161.232H432.597V167.472H432.837C433.349 165.52 434.309 164 435.717 162.912C437.157 161.792 438.981 161.232 441.189 161.232H444.645V165.072H439.989C437.781 165.072 435.989 165.712 434.613 166.992C433.269 168.272 432.597 169.952 432.597 172.032V182.736H442.197V186H421.509V182.736ZM461.426 186.576C459.634 186.576 458.018 186.272 456.578 185.664C455.17 185.056 453.954 184.192 452.93 183.072C451.938 181.92 451.17 180.56 450.626 178.992C450.082 177.392 449.81 175.616 449.81 173.664C449.81 171.68 450.082 169.888 450.626 168.288C451.202 166.688 451.986 165.328 452.978 164.208C453.97 163.056 455.154 162.176 456.53 161.568C457.938 160.96 459.49 160.656 461.186 160.656C462.85 160.656 464.354 160.96 465.698 161.568C467.074 162.176 468.242 163.024 469.202 164.112C470.162 165.168 470.898 166.432 471.41 167.904C471.922 169.376 472.178 170.992 472.178 172.752V174.576H453.842V175.728C453.842 176.816 454.018 177.824 454.37 178.752C454.722 179.68 455.218 180.48 455.858 181.152C456.53 181.824 457.33 182.352 458.258 182.736C459.218 183.088 460.274 183.264 461.426 183.264C463.09 183.264 464.53 182.88 465.746 182.112C466.962 181.344 467.89 180.288 468.53 178.944L471.362 180.864C470.626 182.528 469.394 183.904 467.666 184.992C465.97 186.048 463.89 186.576 461.426 186.576ZM461.186 163.824C460.13 163.824 459.154 164.016 458.258 164.4C457.362 164.784 456.578 165.312 455.906 165.984C455.266 166.656 454.754 167.456 454.37 168.384C454.018 169.28 453.842 170.272 453.842 171.36V171.696H468.05V171.168C468.05 170.08 467.874 169.088 467.522 168.192C467.202 167.296 466.738 166.528 466.13 165.888C465.554 165.216 464.834 164.704 463.97 164.352C463.138 164 462.21 163.824 461.186 163.824ZM490.063 186.576C487.471 186.576 485.231 186.144 483.343 185.28C481.487 184.384 479.903 183.2 478.591 181.728L481.183 179.472C482.367 180.72 483.663 181.68 485.071 182.352C486.479 183.024 488.175 183.36 490.159 183.36C492.079 183.36 493.647 183.024 494.863 182.352C496.111 181.648 496.735 180.56 496.735 179.088C496.735 178.448 496.607 177.92 496.351 177.504C496.127 177.056 495.807 176.704 495.391 176.448C494.975 176.192 494.511 176 493.999 175.872C493.487 175.712 492.943 175.584 492.367 175.488L488.479 174.912C487.615 174.784 486.671 174.608 485.647 174.384C484.655 174.16 483.743 173.808 482.911 173.328C482.079 172.816 481.375 172.144 480.799 171.312C480.255 170.48 479.983 169.392 479.983 168.048C479.983 166.8 480.223 165.728 480.703 164.832C481.215 163.904 481.919 163.136 482.815 162.528C483.711 161.888 484.767 161.424 485.983 161.136C487.199 160.816 488.527 160.656 489.967 160.656C492.207 160.656 494.143 161.008 495.775 161.712C497.439 162.416 498.863 163.392 500.047 164.64L497.551 166.992C497.263 166.64 496.895 166.288 496.447 165.936C496.031 165.552 495.503 165.216 494.863 164.928C494.255 164.608 493.535 164.352 492.703 164.16C491.871 163.968 490.911 163.872 489.823 163.872C487.871 163.872 486.367 164.208 485.311 164.88C484.287 165.552 483.775 166.528 483.775 167.808C483.775 168.448 483.887 168.992 484.111 169.44C484.367 169.856 484.703 170.192 485.119 170.448C485.535 170.704 485.999 170.912 486.511 171.072C487.055 171.2 487.599 171.312 488.143 171.408L492.031 171.984C492.927 172.112 493.871 172.288 494.863 172.512C495.855 172.736 496.767 173.104 497.599 173.616C498.431 174.096 499.119 174.752 499.663 175.584C500.239 176.416 500.527 177.504 500.527 178.848C500.527 181.312 499.567 183.216 497.647 184.56C495.759 185.904 493.231 186.576 490.063 186.576ZM519.42 186.576C517.628 186.576 516.028 186.272 514.62 185.664C513.244 185.024 512.076 184.144 511.116 183.024C510.156 181.904 509.42 180.544 508.908 178.944C508.428 177.344 508.188 175.568 508.188 173.616C508.188 171.664 508.444 169.888 508.956 168.288C509.468 166.688 510.204 165.328 511.164 164.208C512.124 163.056 513.292 162.176 514.668 161.568C516.044 160.96 517.612 160.656 519.372 160.656C521.772 160.656 523.724 161.184 525.228 162.24C526.732 163.296 527.836 164.672 528.54 166.368L525.468 168C525.02 166.72 524.268 165.728 523.212 165.024C522.188 164.32 520.908 163.968 519.372 163.968C518.252 163.968 517.244 164.16 516.348 164.544C515.484 164.896 514.748 165.408 514.14 166.08C513.532 166.752 513.068 167.552 512.748 168.48C512.46 169.408 512.316 170.416 512.316 171.504V175.728C512.316 176.816 512.46 177.824 512.748 178.752C513.068 179.68 513.532 180.48 514.14 181.152C514.748 181.824 515.5 182.352 516.396 182.736C517.292 183.088 518.316 183.264 519.468 183.264C521.132 183.264 522.508 182.88 523.596 182.112C524.684 181.344 525.548 180.288 526.188 178.944L528.924 180.816C528.188 182.48 527.036 183.856 525.468 184.944C523.932 186.032 521.916 186.576 519.42 186.576ZM553.194 181.968H553.002C552.746 182.576 552.426 183.168 552.042 183.744C551.658 184.288 551.178 184.768 550.602 185.184C550.058 185.6 549.402 185.936 548.634 186.192C547.866 186.448 546.97 186.576 545.946 186.576C543.354 186.576 541.274 185.76 539.706 184.128C538.138 182.464 537.354 180.128 537.354 177.12V161.232H541.194V176.448C541.194 178.72 541.69 180.416 542.682 181.536C543.674 182.624 545.13 183.168 547.049 183.168C547.818 183.168 548.57 183.072 549.306 182.88C550.042 182.688 550.698 182.4 551.274 182.016C551.85 181.632 552.314 181.152 552.666 180.576C553.018 179.968 553.194 179.248 553.194 178.416V161.232H557.034V186H553.194V181.968ZM576.551 186.576C574.759 186.576 573.143 186.272 571.703 185.664C570.295 185.056 569.079 184.192 568.055 183.072C567.063 181.92 566.295 180.56 565.751 178.992C565.207 177.392 564.935 175.616 564.935 173.664C564.935 171.68 565.207 169.888 565.751 168.288C566.327 166.688 567.111 165.328 568.103 164.208C569.095 163.056 570.279 162.176 571.655 161.568C573.063 160.96 574.615 160.656 576.311 160.656C577.975 160.656 579.479 160.96 580.823 161.568C582.199 162.176 583.367 163.024 584.327 164.112C585.287 165.168 586.023 166.432 586.535 167.904C587.047 169.376 587.303 170.992 587.303 172.752V174.576H568.967V175.728C568.967 176.816 569.143 177.824 569.495 178.752C569.847 179.68 570.343 180.48 570.983 181.152C571.655 181.824 572.455 182.352 573.383 182.736C574.343 183.088 575.399 183.264 576.551 183.264C578.215 183.264 579.655 182.88 580.871 182.112C582.087 181.344 583.015 180.288 583.655 178.944L586.487 180.864C585.751 182.528 584.519 183.904 582.791 184.992C581.095 186.048 579.015 186.576 576.551 186.576ZM576.311 163.824C575.255 163.824 574.279 164.016 573.383 164.4C572.487 164.784 571.703 165.312 571.031 165.984C570.391 166.656 569.879 167.456 569.495 168.384C569.143 169.28 568.967 170.272 568.967 171.36V171.696H583.175V171.168C583.175 170.08 582.999 169.088 582.647 168.192C582.327 167.296 581.863 166.528 581.255 165.888C580.679 165.216 579.959 164.704 579.095 164.352C578.263 164 577.335 163.824 576.311 163.824ZM610.9 181.968H610.708C609.108 185.04 606.564 186.576 603.076 186.576C600.036 186.576 597.652 185.44 595.924 183.168C594.228 180.896 593.38 177.712 593.38 173.616C593.38 169.52 594.228 166.336 595.924 164.064C597.652 161.792 600.036 160.656 603.076 160.656C606.564 160.656 609.108 162.192 610.708 165.264H610.9V150.48H614.74V186H610.9V181.968ZM604.564 183.168C605.428 183.168 606.244 183.056 607.012 182.832C607.78 182.608 608.452 182.288 609.028 181.872C609.604 181.424 610.052 180.896 610.372 180.288C610.724 179.648 610.9 178.912 610.9 178.08V169.152C610.9 168.32 610.724 167.6 610.372 166.992C610.052 166.352 609.604 165.824 609.028 165.408C608.452 164.96 607.78 164.624 607.012 164.4C606.244 164.176 605.428 164.064 604.564 164.064C602.324 164.064 600.58 164.752 599.332 166.128C598.116 167.472 597.508 169.264 597.508 171.504V175.728C597.508 177.968 598.116 179.776 599.332 181.152C600.58 182.496 602.324 183.168 604.564 183.168ZM638.241 171.072C638.241 173.408 637.969 175.664 637.425 177.84C636.913 179.984 636.193 181.984 635.265 183.84C634.369 185.696 633.313 187.376 632.097 188.88C630.881 190.384 629.601 191.632 628.257 192.624H624.369C625.745 191.568 627.057 190.336 628.305 188.928C629.553 187.552 630.641 186.048 631.569 184.416C632.529 182.752 633.281 180.976 633.825 179.088C634.369 177.168 634.641 175.184 634.641 173.136V169.008C634.641 166.96 634.369 164.992 633.825 163.104C633.281 161.184 632.529 159.408 631.569 157.776C630.641 156.112 629.553 154.592 628.305 153.216C627.057 151.808 625.745 150.576 624.369 149.52H628.257C629.601 150.544 630.881 151.808 632.097 153.312C633.313 154.784 634.369 156.448 635.265 158.304C636.193 160.16 636.913 162.176 637.425 164.352C637.969 166.496 638.241 168.736 638.241 171.072Z" fill="black"/>
<path d="M138.352 273H134.32V239.496H146.512C149.616 239.496 151.984 240.344 153.616 242.04C155.248 243.736 156.064 246.104 156.064 249.144C156.064 251.864 155.36 254.04 153.952 255.672C152.544 257.304 150.496 258.248 147.808 258.504L156.352 273H151.84L143.68 258.696H138.352V273ZM146.416 255.288C148.112 255.288 149.424 254.872 150.352 254.04C151.312 253.176 151.792 251.96 151.792 250.392V247.896C151.792 246.328 151.312 245.128 150.352 244.296C149.424 243.432 148.112 243 146.416 243H138.352V255.288H146.416ZM173.613 273.576C171.821 273.576 170.205 273.272 168.765 272.664C167.357 272.056 166.141 271.192 165.117 270.072C164.125 268.92 163.357 267.56 162.813 265.992C162.269 264.392 161.997 262.616 161.997 260.664C161.997 258.68 162.269 256.888 162.813 255.288C163.389 253.688 164.173 252.328 165.165 251.208C166.157 250.056 167.341 249.176 168.717 248.568C170.125 247.96 171.677 247.656 173.373 247.656C175.037 247.656 176.541 247.96 177.885 248.568C179.261 249.176 180.429 250.024 181.389 251.112C182.349 252.168 183.085 253.432 183.597 254.904C184.109 256.376 184.365 257.992 184.365 259.752V261.576H166.029V262.728C166.029 263.816 166.205 264.824 166.557 265.752C166.909 266.68 167.405 267.48 168.045 268.152C168.717 268.824 169.517 269.352 170.445 269.736C171.405 270.088 172.461 270.264 173.613 270.264C175.277 270.264 176.717 269.88 177.933 269.112C179.149 268.344 180.077 267.288 180.717 265.944L183.549 267.864C182.813 269.528 181.581 270.904 179.853 271.992C178.157 273.048 176.077 273.576 173.613 273.576ZM173.373 250.824C172.317 250.824 171.341 251.016 170.445 251.4C169.549 251.784 168.765 252.312 168.093 252.984C167.453 253.656 166.941 254.456 166.557 255.384C166.205 256.28 166.029 257.272 166.029 258.36V258.696H180.237V258.168C180.237 257.08 180.061 256.088 179.709 255.192C179.389 254.296 178.925 253.528 178.317 252.888C177.741 252.216 177.021 251.704 176.157 251.352C175.325 251 174.397 250.824 173.373 250.824ZM214.491 275.832C214.491 278.328 213.451 280.168 211.371 281.352C209.291 282.568 206.171 283.176 202.011 283.176C198.011 283.176 195.131 282.648 193.371 281.592C191.643 280.536 190.779 279.016 190.779 277.032C190.779 275.688 191.131 274.648 191.835 273.912C192.539 273.176 193.531 272.632 194.811 272.28V271.704C194.107 271.352 193.563 270.904 193.179 270.36C192.795 269.816 192.603 269.128 192.603 268.296C192.603 267.016 193.019 266.056 193.851 265.416C194.715 264.776 195.787 264.296 197.067 263.976V263.784C195.531 263.112 194.331 262.12 193.467 260.808C192.635 259.496 192.219 257.96 192.219 256.2C192.219 254.952 192.443 253.8 192.891 252.744C193.339 251.688 193.979 250.792 194.811 250.056C195.675 249.288 196.699 248.696 197.883 248.28C199.067 247.864 200.379 247.656 201.819 247.656C203.675 247.656 205.307 247.992 206.715 248.664V248.232C206.715 247.272 206.939 246.472 207.387 245.832C207.835 245.192 208.603 244.872 209.691 244.872H214.251V248.232H208.683V249.912C209.579 250.68 210.267 251.592 210.747 252.648C211.227 253.704 211.467 254.888 211.467 256.2C211.467 257.448 211.227 258.6 210.747 259.656C210.299 260.712 209.659 261.624 208.827 262.392C207.995 263.128 206.971 263.704 205.755 264.12C204.571 264.536 203.259 264.744 201.819 264.744C201.403 264.744 201.003 264.728 200.619 264.696C200.235 264.664 199.851 264.616 199.467 264.552C199.083 264.616 198.683 264.728 198.267 264.888C197.851 265.016 197.467 265.208 197.115 265.464C196.763 265.688 196.475 265.96 196.251 266.28C196.027 266.6 195.915 266.968 195.915 267.384C195.915 268.12 196.283 268.616 197.019 268.872C197.755 269.096 198.715 269.208 199.898 269.208H205.371C208.571 269.208 210.891 269.816 212.331 271.032C213.771 272.216 214.491 273.816 214.491 275.832ZM210.891 276.024C210.891 275.032 210.491 274.232 209.691 273.624C208.891 273.048 207.499 272.76 205.515 272.76H196.923C195.259 273.432 194.427 274.552 194.427 276.12C194.427 277.208 194.859 278.136 195.723 278.904C196.587 279.704 198.027 280.104 200.043 280.104H203.787C206.027 280.104 207.771 279.752 209.019 279.048C210.267 278.376 210.891 277.368 210.891 276.024ZM201.819 261.768C203.739 261.768 205.147 261.32 206.043 260.424C206.971 259.528 207.435 258.344 207.435 256.872V255.48C207.435 254.008 206.971 252.84 206.043 251.976C205.147 251.08 203.739 250.632 201.819 250.632C199.899 250.632 198.491 251.08 197.595 251.976C196.699 252.84 196.251 254.008 196.251 255.48V256.872C196.251 258.344 196.699 259.528 197.595 260.424C198.491 261.32 199.899 261.768 201.819 261.768ZM236.6 268.968H236.408C236.152 269.576 235.832 270.168 235.448 270.744C235.064 271.288 234.584 271.768 234.008 272.184C233.464 272.6 232.808 272.936 232.04 273.192C231.272 273.448 230.376 273.576 229.352 273.576C226.76 273.576 224.68 272.76 223.112 271.128C221.544 269.464 220.76 267.128 220.76 264.12V248.232H224.6V263.448C224.6 265.72 225.096 267.416 226.088 268.536C227.08 269.624 228.536 270.168 230.456 270.168C231.224 270.168 231.976 270.072 232.712 269.88C233.448 269.688 234.104 269.4 234.68 269.016C235.256 268.632 235.72 268.152 236.072 267.576C236.424 266.968 236.6 266.248 236.6 265.416V248.232H240.44V273H236.6V268.968ZM248.965 269.736H257.605V240.744H248.965V237.48H261.445V269.736H270.085V273H248.965V269.736ZM297.666 273C296.162 273 295.09 272.616 294.45 271.848C293.81 271.08 293.41 270.12 293.25 268.968H293.01C292.466 270.408 291.586 271.544 290.37 272.376C289.186 273.176 287.586 273.576 285.57 273.576C282.978 273.576 280.914 272.904 279.378 271.56C277.842 270.216 277.074 268.376 277.074 266.04C277.074 263.736 277.906 261.96 279.57 260.712C281.266 259.464 283.986 258.84 287.73 258.84H293.01V256.392C293.01 254.568 292.498 253.208 291.474 252.312C290.45 251.384 288.994 250.92 287.106 250.92C285.442 250.92 284.082 251.256 283.026 251.928C281.97 252.568 281.122 253.448 280.482 254.568L277.89 252.648C278.21 252.008 278.642 251.384 279.186 250.776C279.73 250.168 280.402 249.64 281.202 249.192C282.002 248.712 282.914 248.344 283.938 248.088C284.962 247.8 286.098 247.656 287.346 247.656C290.258 247.656 292.562 248.392 294.258 249.864C295.986 251.336 296.85 253.384 296.85 256.008V269.64H300.306V273H297.666ZM286.242 270.36C287.234 270.36 288.13 270.248 288.93 270.024C289.762 269.768 290.482 269.448 291.09 269.064C291.698 268.648 292.162 268.168 292.482 267.624C292.834 267.048 293.01 266.44 293.01 265.8V261.72H287.73C285.426 261.72 283.746 262.04 282.69 262.68C281.634 263.32 281.106 264.248 281.106 265.464V266.472C281.106 267.752 281.554 268.728 282.45 269.4C283.378 270.04 284.642 270.36 286.242 270.36ZM306.384 269.736H313.632V251.496H306.384V248.232H317.472V254.472H317.712C318.224 252.52 319.184 251 320.592 249.912C322.032 248.792 323.856 248.232 326.064 248.232H329.52V252.072H324.864C322.656 252.072 320.864 252.712 319.488 253.992C318.144 255.272 317.472 256.952 317.472 259.032V269.736H327.072V273H306.384V269.736ZM372.202 273L363.322 248.232H367.21L370.762 258.6L374.602 269.784H374.794L378.634 258.6L382.186 248.232H385.978L377.098 273H372.202ZM412.791 273C411.287 273 410.215 272.616 409.575 271.848C408.935 271.08 408.535 270.12 408.375 268.968H408.135C407.591 270.408 406.711 271.544 405.495 272.376C404.311 273.176 402.711 273.576 400.695 273.576C398.103 273.576 396.039 272.904 394.503 271.56C392.967 270.216 392.199 268.376 392.199 266.04C392.199 263.736 393.031 261.96 394.695 260.712C396.391 259.464 399.111 258.84 402.855 258.84H408.135V256.392C408.135 254.568 407.623 253.208 406.599 252.312C405.575 251.384 404.119 250.92 402.231 250.92C400.567 250.92 399.207 251.256 398.151 251.928C397.095 252.568 396.247 253.448 395.607 254.568L393.015 252.648C393.335 252.008 393.767 251.384 394.311 250.776C394.855 250.168 395.527 249.64 396.327 249.192C397.127 248.712 398.039 248.344 399.063 248.088C400.087 247.8 401.223 247.656 402.471 247.656C405.383 247.656 407.687 248.392 409.383 249.864C411.111 251.336 411.975 253.384 411.975 256.008V269.64H415.431V273H412.791ZM401.367 270.36C402.359 270.36 403.255 270.248 404.055 270.024C404.887 269.768 405.607 269.448 406.215 269.064C406.823 268.648 407.287 268.168 407.607 267.624C407.959 267.048 408.135 266.44 408.135 265.8V261.72H402.855C400.551 261.72 398.871 262.04 397.815 262.68C396.759 263.32 396.231 264.248 396.231 265.464V266.472C396.231 267.752 396.679 268.728 397.575 269.4C398.503 270.04 399.767 270.36 401.367 270.36ZM421.509 269.736H428.757V251.496H421.509V248.232H432.597V254.472H432.837C433.349 252.52 434.309 251 435.717 249.912C437.157 248.792 438.981 248.232 441.189 248.232H444.645V252.072H439.989C437.781 252.072 435.989 252.712 434.613 253.992C433.269 255.272 432.597 256.952 432.597 259.032V269.736H442.197V273H421.509V269.736ZM461.282 273.576C458.69 273.576 456.45 273.144 454.562 272.28C452.706 271.384 451.122 270.2 449.81 268.728L452.402 266.472C453.586 267.72 454.882 268.68 456.29 269.352C457.698 270.024 459.394 270.36 461.378 270.36C463.298 270.36 464.866 270.024 466.082 269.352C467.33 268.648 467.954 267.56 467.954 266.088C467.954 265.448 467.826 264.92 467.57 264.504C467.346 264.056 467.026 263.704 466.61 263.448C466.194 263.192 465.73 263 465.218 262.872C464.706 262.712 464.162 262.584 463.586 262.488L459.698 261.912C458.834 261.784 457.89 261.608 456.866 261.384C455.874 261.16 454.962 260.808 454.13 260.328C453.298 259.816 452.594 259.144 452.018 258.312C451.474 257.48 451.202 256.392 451.202 255.048C451.202 253.8 451.442 252.728 451.922 251.832C452.434 250.904 453.138 250.136 454.034 249.528C454.93 248.888 455.986 248.424 457.202 248.136C458.418 247.816 459.746 247.656 461.186 247.656C463.426 247.656 465.362 248.008 466.994 248.712C468.658 249.416 470.082 250.392 471.266 251.64L468.77 253.992C468.482 253.64 468.114 253.288 467.666 252.936C467.25 252.552 466.722 252.216 466.082 251.928C465.474 251.608 464.754 251.352 463.922 251.16C463.09 250.968 462.13 250.872 461.042 250.872C459.09 250.872 457.586 251.208 456.53 251.88C455.506 252.552 454.994 253.528 454.994 254.808C454.994 255.448 455.106 255.992 455.33 256.44C455.586 256.856 455.922 257.192 456.338 257.448C456.754 257.704 457.218 257.912 457.73 258.072C458.274 258.2 458.818 258.312 459.362 258.408L463.25 258.984C464.146 259.112 465.09 259.288 466.082 259.512C467.074 259.736 467.986 260.104 468.818 260.616C469.65 261.096 470.338 261.752 470.882 262.584C471.458 263.416 471.746 264.504 471.746 265.848C471.746 268.312 470.786 270.216 468.866 271.56C466.978 272.904 464.45 273.576 461.282 273.576ZM513.996 258.072C513.996 255.736 514.252 253.496 514.764 251.352C515.308 249.176 516.028 247.16 516.924 245.304C517.852 243.448 518.924 241.784 520.14 240.312C521.356 238.808 522.636 237.544 523.98 236.52H527.868C526.46 237.576 525.132 238.808 523.884 240.216C522.668 241.592 521.58 243.112 520.62 244.776C519.692 246.408 518.956 248.184 518.412 250.104C517.868 251.992 517.596 253.96 517.596 256.008V260.136C517.596 262.184 517.868 264.168 518.412 266.088C518.956 267.976 519.692 269.752 520.62 271.416C521.58 273.048 522.668 274.552 523.884 275.928C525.132 277.336 526.46 278.568 527.868 279.624H523.98C522.636 278.632 521.356 277.384 520.14 275.88C518.924 274.376 517.852 272.696 516.924 270.84C516.028 268.984 515.308 266.984 514.764 264.84C514.252 262.664 513.996 260.408 513.996 258.072ZM536.634 269.736H543.882V251.496H536.634V248.232H547.722V254.472H547.962C548.474 252.52 549.434 251 550.842 249.912C552.282 248.792 554.106 248.232 556.314 248.232H559.77V252.072H555.114C552.906 252.072 551.114 252.712 549.738 253.992C548.394 255.272 547.722 256.952 547.722 259.032V269.736H557.322V273H536.634V269.736ZM576.551 273.576C574.759 273.576 573.143 273.272 571.703 272.664C570.295 272.056 569.079 271.192 568.055 270.072C567.063 268.92 566.295 267.56 565.751 265.992C565.207 264.392 564.935 262.616 564.935 260.664C564.935 258.68 565.207 256.888 565.751 255.288C566.327 253.688 567.111 252.328 568.103 251.208C569.095 250.056 570.279 249.176 571.655 248.568C573.063 247.96 574.615 247.656 576.311 247.656C577.975 247.656 579.479 247.96 580.823 248.568C582.199 249.176 583.367 250.024 584.327 251.112C585.287 252.168 586.023 253.432 586.535 254.904C587.047 256.376 587.303 257.992 587.303 259.752V261.576H568.967V262.728C568.967 263.816 569.143 264.824 569.495 265.752C569.847 266.68 570.343 267.48 570.983 268.152C571.655 268.824 572.455 269.352 573.383 269.736C574.343 270.088 575.399 270.264 576.551 270.264C578.215 270.264 579.655 269.88 580.871 269.112C582.087 268.344 583.015 267.288 583.655 265.944L586.487 267.864C585.751 269.528 584.519 270.904 582.791 271.992C581.095 273.048 579.015 273.576 576.551 273.576ZM576.311 250.824C575.255 250.824 574.279 251.016 573.383 251.4C572.487 251.784 571.703 252.312 571.031 252.984C570.391 253.656 569.879 254.456 569.495 255.384C569.143 256.28 568.967 257.272 568.967 258.36V258.696H583.175V258.168C583.175 257.08 582.999 256.088 582.647 255.192C582.327 254.296 581.863 253.528 581.255 252.888C580.679 252.216 579.959 251.704 579.095 251.352C578.263 251 577.335 250.824 576.311 250.824ZM605.188 273.576C602.596 273.576 600.356 273.144 598.468 272.28C596.612 271.384 595.028 270.2 593.716 268.728L596.308 266.472C597.492 267.72 598.788 268.68 600.196 269.352C601.604 270.024 603.3 270.36 605.284 270.36C607.204 270.36 608.772 270.024 609.988 269.352C611.236 268.648 611.86 267.56 611.86 266.088C611.86 265.448 611.732 264.92 611.476 264.504C611.252 264.056 610.932 263.704 610.516 263.448C610.1 263.192 609.636 263 609.124 262.872C608.612 262.712 608.068 262.584 607.492 262.488L603.604 261.912C602.74 261.784 601.796 261.608 600.772 261.384C599.78 261.16 598.868 260.808 598.036 260.328C597.204 259.816 596.5 259.144 595.924 258.312C595.38 257.48 595.108 256.392 595.108 255.048C595.108 253.8 595.348 252.728 595.828 251.832C596.34 250.904 597.044 250.136 597.94 249.528C598.836 248.888 599.892 248.424 601.108 248.136C602.324 247.816 603.652 247.656 605.092 247.656C607.332 247.656 609.268 248.008 610.9 248.712C612.564 249.416 613.988 250.392 615.172 251.64L612.676 253.992C612.388 253.64 612.02 253.288 611.572 252.936C611.156 252.552 610.628 252.216 609.988 251.928C609.38 251.608 608.66 251.352 607.828 251.16C606.996 250.968 606.036 250.872 604.948 250.872C602.996 250.872 601.492 251.208 600.436 251.88C599.412 252.552 598.9 253.528 598.9 254.808C598.9 255.448 599.012 255.992 599.236 256.44C599.492 256.856 599.828 257.192 600.244 257.448C600.66 257.704 601.124 257.912 601.636 258.072C602.18 258.2 602.724 258.312 603.268 258.408L607.156 258.984C608.052 259.112 608.996 259.288 609.988 259.512C610.98 259.736 611.892 260.104 612.724 260.616C613.556 261.096 614.244 261.752 614.788 262.584C615.364 263.416 615.652 264.504 615.652 265.848C615.652 268.312 614.692 270.216 612.772 271.56C610.884 272.904 608.356 273.576 605.188 273.576ZM634.113 273.576C632.321 273.576 630.705 273.272 629.265 272.664C627.857 272.056 626.641 271.192 625.617 270.072C624.625 268.92 623.857 267.56 623.313 265.992C622.769 264.392 622.497 262.616 622.497 260.664C622.497 258.68 622.769 256.888 623.313 255.288C623.889 253.688 624.673 252.328 625.665 251.208C626.657 250.056 627.841 249.176 629.217 248.568C630.625 247.96 632.177 247.656 633.873 247.656C635.537 247.656 637.041 247.96 638.385 248.568C639.761 249.176 640.929 250.024 641.889 251.112C642.849 252.168 643.585 253.432 644.097 254.904C644.609 256.376 644.865 257.992 644.865 259.752V261.576H626.529V262.728C626.529 263.816 626.705 264.824 627.057 265.752C627.409 266.68 627.905 267.48 628.545 268.152C629.217 268.824 630.017 269.352 630.945 269.736C631.905 270.088 632.961 270.264 634.113 270.264C635.777 270.264 637.217 269.88 638.433 269.112C639.649 268.344 640.577 267.288 641.217 265.944L644.049 267.864C643.313 269.528 642.081 270.904 640.353 271.992C638.657 273.048 636.577 273.576 634.113 273.576ZM633.873 250.824C632.817 250.824 631.841 251.016 630.945 251.4C630.049 251.784 629.265 252.312 628.593 252.984C627.953 253.656 627.441 254.456 627.057 255.384C626.705 256.28 626.529 257.272 626.529 258.36V258.696H640.737V258.168C640.737 257.08 640.561 256.088 640.209 255.192C639.889 254.296 639.425 253.528 638.817 252.888C638.241 252.216 637.521 251.704 636.657 251.352C635.825 251 634.897 250.824 633.873 250.824ZM663.663 273C661.775 273 660.383 272.472 659.487 271.416C658.623 270.36 658.191 269 658.191 267.336V251.496H649.935V248.232H656.079C656.911 248.232 657.487 248.072 657.807 247.752C658.159 247.4 658.335 246.808 658.335 245.976V239.496H662.031V248.232H673.311V251.496H662.031V269.736H673.311V273H663.663ZM695.804 258.072C695.804 260.408 695.532 262.664 694.988 264.84C694.476 266.984 693.756 268.984 692.828 270.84C691.932 272.696 690.876 274.376 689.66 275.88C688.444 277.384 687.164 278.632 685.82 279.624H681.932C683.308 278.568 684.62 277.336 685.868 275.928C687.116 274.552 688.204 273.048 689.132 271.416C690.092 269.752 690.844 267.976 691.388 266.088C691.932 264.168 692.204 262.184 692.204 260.136V256.008C692.204 253.96 691.932 251.992 691.388 250.104C690.844 248.184 690.092 246.408 689.132 244.776C688.204 243.112 687.116 241.592 685.868 240.216C684.62 238.808 683.308 237.576 681.932 236.52H685.82C687.164 237.544 688.444 238.808 689.66 240.312C690.876 241.784 691.932 243.448 692.828 245.304C693.756 247.16 694.476 249.176 694.988 251.352C695.532 253.496 695.804 255.736 695.804 258.072Z" fill="black"/>
<path d="M1042.35 260H1038.32V226.496H1050.51C1053.62 226.496 1055.98 227.344 1057.62 229.04C1059.25 230.736 1060.06 233.104 1060.06 236.144C1060.06 238.864 1059.36 241.04 1057.95 242.672C1056.54 244.304 1054.5 245.248 1051.81 245.504L1060.35 260H1055.84L1047.68 245.696H1042.35V260ZM1050.42 242.288C1052.11 242.288 1053.42 241.872 1054.35 241.04C1055.31 240.176 1055.79 238.96 1055.79 237.392V234.896C1055.79 233.328 1055.31 232.128 1054.35 231.296C1053.42 230.432 1052.11 230 1050.42 230H1042.35V242.288H1050.42ZM1083.04 255.968H1082.85C1082.59 256.576 1082.27 257.168 1081.89 257.744C1081.5 258.288 1081.02 258.768 1080.45 259.184C1079.9 259.6 1079.25 259.936 1078.48 260.192C1077.71 260.448 1076.81 260.576 1075.79 260.576C1073.2 260.576 1071.12 259.76 1069.55 258.128C1067.98 256.464 1067.2 254.128 1067.2 251.12V235.232H1071.04V250.448C1071.04 252.72 1071.53 254.416 1072.53 255.536C1073.52 256.624 1074.97 257.168 1076.89 257.168C1077.66 257.168 1078.41 257.072 1079.15 256.88C1079.89 256.688 1080.54 256.4 1081.12 256.016C1081.69 255.632 1082.16 255.152 1082.51 254.576C1082.86 253.968 1083.04 253.248 1083.04 252.416V235.232H1086.88V260H1083.04V255.968ZM1096.27 260V235.232H1100.11V239.264H1100.3C1100.55 238.656 1100.87 238.08 1101.26 237.536C1101.64 236.96 1102.11 236.464 1102.65 236.048C1103.23 235.632 1103.9 235.296 1104.67 235.04C1105.43 234.784 1106.33 234.656 1107.35 234.656C1109.95 234.656 1112.03 235.488 1113.59 237.152C1115.16 238.784 1115.95 241.104 1115.95 244.112V260H1112.11V244.784C1112.11 242.512 1111.61 240.832 1110.62 239.744C1109.63 238.624 1108.17 238.064 1106.25 238.064C1105.48 238.064 1104.73 238.16 1103.99 238.352C1103.26 238.544 1102.6 238.832 1102.03 239.216C1101.45 239.6 1100.99 240.096 1100.63 240.704C1100.28 241.312 1100.11 242.016 1100.11 242.816V260H1096.27ZM1135.03 260.576C1132.44 260.576 1130.2 260.144 1128.31 259.28C1126.46 258.384 1124.87 257.2 1123.56 255.728L1126.15 253.472C1127.34 254.72 1128.63 255.68 1130.04 256.352C1131.45 257.024 1133.14 257.36 1135.13 257.36C1137.05 257.36 1138.62 257.024 1139.83 256.352C1141.08 255.648 1141.7 254.56 1141.7 253.088C1141.7 252.448 1141.58 251.92 1141.32 251.504C1141.1 251.056 1140.78 250.704 1140.36 250.448C1139.94 250.192 1139.48 250 1138.97 249.872C1138.46 249.712 1137.91 249.584 1137.34 249.488L1133.45 248.912C1132.58 248.784 1131.64 248.608 1130.62 248.384C1129.62 248.16 1128.71 247.808 1127.88 247.328C1127.05 246.816 1126.34 246.144 1125.77 245.312C1125.22 244.48 1124.95 243.392 1124.95 242.048C1124.95 240.8 1125.19 239.728 1125.67 238.832C1126.18 237.904 1126.89 237.136 1127.78 236.528C1128.68 235.888 1129.74 235.424 1130.95 235.136C1132.17 234.816 1133.5 234.656 1134.94 234.656C1137.18 234.656 1139.11 235.008 1140.74 235.712C1142.41 236.416 1143.83 237.392 1145.02 238.64L1142.52 240.992C1142.23 240.64 1141.86 240.288 1141.42 239.936C1141 239.552 1140.47 239.216 1139.83 238.928C1139.22 238.608 1138.5 238.352 1137.67 238.16C1136.84 237.968 1135.88 237.872 1134.79 237.872C1132.84 237.872 1131.34 238.208 1130.28 238.88C1129.26 239.552 1128.74 240.528 1128.74 241.808C1128.74 242.448 1128.86 242.992 1129.08 243.44C1129.34 243.856 1129.67 244.192 1130.09 244.448C1130.5 244.704 1130.97 244.912 1131.48 245.072C1132.02 245.2 1132.57 245.312 1133.11 245.408L1137 245.984C1137.9 246.112 1138.84 246.288 1139.83 246.512C1140.82 246.736 1141.74 247.104 1142.57 247.616C1143.4 248.096 1144.09 248.752 1144.63 249.584C1145.21 250.416 1145.5 251.504 1145.5 252.848C1145.5 255.312 1144.54 257.216 1142.62 258.56C1140.73 259.904 1138.2 260.576 1135.03 260.576ZM1192.74 260.576C1190.95 260.576 1189.33 260.272 1187.89 259.664C1186.48 259.056 1185.27 258.192 1184.24 257.072C1183.25 255.92 1182.48 254.56 1181.94 252.992C1181.39 251.392 1181.12 249.616 1181.12 247.664C1181.12 245.68 1181.39 243.888 1181.94 242.288C1182.51 240.688 1183.3 239.328 1184.29 238.208C1185.28 237.056 1186.47 236.176 1187.84 235.568C1189.25 234.96 1190.8 234.656 1192.5 234.656C1194.16 234.656 1195.67 234.96 1197.01 235.568C1198.39 236.176 1199.55 237.024 1200.51 238.112C1201.47 239.168 1202.21 240.432 1202.72 241.904C1203.23 243.376 1203.49 244.992 1203.49 246.752V248.576H1185.15V249.728C1185.15 250.816 1185.33 251.824 1185.68 252.752C1186.03 253.68 1186.53 254.48 1187.17 255.152C1187.84 255.824 1188.64 256.352 1189.57 256.736C1190.53 257.088 1191.59 257.264 1192.74 257.264C1194.4 257.264 1195.84 256.88 1197.06 256.112C1198.27 255.344 1199.2 254.288 1199.84 252.944L1202.67 254.864C1201.94 256.528 1200.71 257.904 1198.98 258.992C1197.28 260.048 1195.2 260.576 1192.74 260.576ZM1192.5 237.824C1191.44 237.824 1190.47 238.016 1189.57 238.4C1188.67 238.784 1187.89 239.312 1187.22 239.984C1186.58 240.656 1186.07 241.456 1185.68 242.384C1185.33 243.28 1185.15 244.272 1185.15 245.36V245.696H1199.36V245.168C1199.36 244.08 1199.19 243.088 1198.83 242.192C1198.51 241.296 1198.05 240.528 1197.44 239.888C1196.87 239.216 1196.15 238.704 1195.28 238.352C1194.45 238 1193.52 237.824 1192.5 237.824ZM1218.64 260L1209.76 235.232H1213.65L1217.2 245.6L1221.04 256.784H1221.23L1225.07 245.6L1228.62 235.232H1232.42L1223.54 260H1218.64ZM1250.3 260.576C1248.51 260.576 1246.89 260.272 1245.45 259.664C1244.04 259.056 1242.83 258.192 1241.8 257.072C1240.81 255.92 1240.04 254.56 1239.5 252.992C1238.96 251.392 1238.68 249.616 1238.68 247.664C1238.68 245.68 1238.96 243.888 1239.5 242.288C1240.08 240.688 1240.86 239.328 1241.85 238.208C1242.84 237.056 1244.03 236.176 1245.4 235.568C1246.81 234.96 1248.36 234.656 1250.06 234.656C1251.72 234.656 1253.23 234.96 1254.57 235.568C1255.95 236.176 1257.12 237.024 1258.08 238.112C1259.04 239.168 1259.77 240.432 1260.28 241.904C1260.8 243.376 1261.05 244.992 1261.05 246.752V248.576H1242.72V249.728C1242.72 250.816 1242.89 251.824 1243.24 252.752C1243.6 253.68 1244.09 254.48 1244.73 255.152C1245.4 255.824 1246.2 256.352 1247.13 256.736C1248.09 257.088 1249.15 257.264 1250.3 257.264C1251.96 257.264 1253.4 256.88 1254.62 256.112C1255.84 255.344 1256.76 254.288 1257.4 252.944L1260.24 254.864C1259.5 256.528 1258.27 257.904 1256.54 258.992C1254.84 260.048 1252.76 260.576 1250.3 260.576ZM1250.06 237.824C1249 237.824 1248.03 238.016 1247.13 238.4C1246.24 238.784 1245.45 239.312 1244.78 239.984C1244.14 240.656 1243.63 241.456 1243.24 242.384C1242.89 243.28 1242.72 244.272 1242.72 245.36V245.696H1256.92V245.168C1256.92 244.08 1256.75 243.088 1256.4 242.192C1256.08 241.296 1255.61 240.528 1255 239.888C1254.43 239.216 1253.71 238.704 1252.84 238.352C1252.01 238 1251.08 237.824 1250.06 237.824ZM1267.95 256.736H1275.19V238.496H1267.95V235.232H1279.03V241.472H1279.27C1279.79 239.52 1280.75 238 1282.15 236.912C1283.59 235.792 1285.42 235.232 1287.63 235.232H1291.08V239.072H1286.43C1284.22 239.072 1282.43 239.712 1281.05 240.992C1279.71 242.272 1279.03 243.952 1279.03 246.032V256.736H1288.63V260H1267.95V256.736ZM1315.45 235.232H1319.29L1307 265.424C1306.71 266.128 1306.39 266.736 1306.04 267.248C1305.69 267.792 1305.27 268.224 1304.79 268.544C1304.31 268.896 1303.74 269.152 1303.06 269.312C1302.39 269.504 1301.59 269.6 1300.66 269.6H1297.02V266.336H1302.78L1305.56 259.52L1295.58 235.232H1299.51L1303.69 245.6L1307.38 255.008H1307.58L1311.27 245.6L1315.45 235.232ZM1358.95 260H1354.91V226.496H1367.11C1370.21 226.496 1372.58 227.344 1374.21 229.04C1375.84 230.736 1376.66 233.104 1376.66 236.144C1376.66 238.864 1375.95 241.04 1374.55 242.672C1373.14 244.304 1371.09 245.248 1368.4 245.504L1376.95 260H1372.43L1364.27 245.696H1358.95V260ZM1367.01 242.288C1368.71 242.288 1370.02 241.872 1370.95 241.04C1371.91 240.176 1372.39 238.96 1372.39 237.392V234.896C1372.39 233.328 1371.91 232.128 1370.95 231.296C1370.02 230.432 1368.71 230 1367.01 230H1358.95V242.288H1367.01ZM1394.21 260.576C1392.42 260.576 1390.8 260.272 1389.36 259.664C1387.95 259.056 1386.74 258.192 1385.71 257.072C1384.72 255.92 1383.95 254.56 1383.41 252.992C1382.86 251.392 1382.59 249.616 1382.59 247.664C1382.59 245.68 1382.86 243.888 1383.41 242.288C1383.98 240.688 1384.77 239.328 1385.76 238.208C1386.75 237.056 1387.94 236.176 1389.31 235.568C1390.72 234.96 1392.27 234.656 1393.97 234.656C1395.63 234.656 1397.14 234.96 1398.48 235.568C1399.86 236.176 1401.02 237.024 1401.98 238.112C1402.94 239.168 1403.68 240.432 1404.19 241.904C1404.7 243.376 1404.96 244.992 1404.96 246.752V248.576H1386.62V249.728C1386.62 250.816 1386.8 251.824 1387.15 252.752C1387.5 253.68 1388 254.48 1388.64 255.152C1389.31 255.824 1390.11 256.352 1391.04 256.736C1392 257.088 1393.06 257.264 1394.21 257.264C1395.87 257.264 1397.31 256.88 1398.53 256.112C1399.74 255.344 1400.67 254.288 1401.31 252.944L1404.14 254.864C1403.41 256.528 1402.18 257.904 1400.45 258.992C1398.75 260.048 1396.67 260.576 1394.21 260.576ZM1393.97 237.824C1392.91 237.824 1391.94 238.016 1391.04 238.4C1390.14 238.784 1389.36 239.312 1388.69 239.984C1388.05 240.656 1387.54 241.456 1387.15 242.384C1386.8 243.28 1386.62 244.272 1386.62 245.36V245.696H1400.83V245.168C1400.83 244.08 1400.66 243.088 1400.3 242.192C1399.98 241.296 1399.52 240.528 1398.91 239.888C1398.34 239.216 1397.62 238.704 1396.75 238.352C1395.92 238 1394.99 237.824 1393.97 237.824ZM1412.86 260V235.232H1416.7V239.264H1416.89C1417.15 238.656 1417.47 238.08 1417.85 237.536C1418.24 236.96 1418.7 236.464 1419.24 236.048C1419.82 235.632 1420.49 235.296 1421.26 235.04C1422.03 234.784 1422.92 234.656 1423.95 234.656C1426.54 234.656 1428.62 235.488 1430.19 237.152C1431.76 238.784 1432.54 241.104 1432.54 244.112V260H1428.7V244.784C1428.7 242.512 1428.2 240.832 1427.21 239.744C1426.22 238.624 1424.76 238.064 1422.84 238.064C1422.08 238.064 1421.32 238.16 1420.59 238.352C1419.85 238.544 1419.2 238.832 1418.62 239.216C1418.04 239.6 1417.58 240.096 1417.23 240.704C1416.88 241.312 1416.7 242.016 1416.7 242.816V260H1412.86ZM1457.34 255.968H1457.15C1455.55 259.04 1453 260.576 1449.51 260.576C1446.47 260.576 1444.09 259.44 1442.36 257.168C1440.67 254.896 1439.82 251.712 1439.82 247.616C1439.82 243.52 1440.67 240.336 1442.36 238.064C1444.09 235.792 1446.47 234.656 1449.51 234.656C1453 234.656 1455.55 236.192 1457.15 239.264H1457.34V224.48H1461.18V260H1457.34V255.968ZM1451 257.168C1451.87 257.168 1452.68 257.056 1453.45 256.832C1454.22 256.608 1454.89 256.288 1455.47 255.872C1456.04 255.424 1456.49 254.896 1456.81 254.288C1457.16 253.648 1457.34 252.912 1457.34 252.08V243.152C1457.34 242.32 1457.16 241.6 1456.81 240.992C1456.49 240.352 1456.04 239.824 1455.47 239.408C1454.89 238.96 1454.22 238.624 1453.45 238.4C1452.68 238.176 1451.87 238.064 1451 238.064C1448.76 238.064 1447.02 238.752 1445.77 240.128C1444.55 241.472 1443.95 243.264 1443.95 245.504V249.728C1443.95 251.968 1444.55 253.776 1445.77 255.152C1447.02 256.496 1448.76 257.168 1451 257.168ZM1480.55 260.576C1478.76 260.576 1477.14 260.272 1475.7 259.664C1474.29 259.056 1473.08 258.192 1472.05 257.072C1471.06 255.92 1470.29 254.56 1469.75 252.992C1469.21 251.392 1468.93 249.616 1468.93 247.664C1468.93 245.68 1469.21 243.888 1469.75 242.288C1470.33 240.688 1471.11 239.328 1472.1 238.208C1473.09 237.056 1474.28 236.176 1475.65 235.568C1477.06 234.96 1478.61 234.656 1480.31 234.656C1481.97 234.656 1483.48 234.96 1484.82 235.568C1486.2 236.176 1487.37 237.024 1488.33 238.112C1489.29 239.168 1490.02 240.432 1490.53 241.904C1491.05 243.376 1491.3 244.992 1491.3 246.752V248.576H1472.97V249.728C1472.97 250.816 1473.14 251.824 1473.49 252.752C1473.85 253.68 1474.34 254.48 1474.98 255.152C1475.65 255.824 1476.45 256.352 1477.38 256.736C1478.34 257.088 1479.4 257.264 1480.55 257.264C1482.21 257.264 1483.65 256.88 1484.87 256.112C1486.09 255.344 1487.01 254.288 1487.65 252.944L1490.49 254.864C1489.75 256.528 1488.52 257.904 1486.79 258.992C1485.09 260.048 1483.01 260.576 1480.55 260.576ZM1480.31 237.824C1479.25 237.824 1478.28 238.016 1477.38 238.4C1476.49 238.784 1475.7 239.312 1475.03 239.984C1474.39 240.656 1473.88 241.456 1473.49 242.384C1473.14 243.28 1472.97 244.272 1472.97 245.36V245.696H1487.17V245.168C1487.17 244.08 1487 243.088 1486.65 242.192C1486.33 241.296 1485.86 240.528 1485.25 239.888C1484.68 239.216 1483.96 238.704 1483.09 238.352C1482.26 238 1481.33 237.824 1480.31 237.824ZM1498.2 256.736H1505.44V238.496H1498.2V235.232H1509.28V241.472H1509.52C1510.04 239.52 1511 238 1512.4 236.912C1513.84 235.792 1515.67 235.232 1517.88 235.232H1521.33V239.072H1516.68C1514.47 239.072 1512.68 239.712 1511.3 240.992C1509.96 242.272 1509.28 243.952 1509.28 246.032V256.736H1518.88V260H1498.2V256.736Z" fill="black"/>
<path d="M153.04 326.496V351.312C153.04 352.72 152.8 354 152.32 355.152C151.84 356.304 151.152 357.28 150.256 358.08C149.392 358.88 148.352 359.504 147.136 359.952C145.92 360.368 144.592 360.576 143.152 360.576C140.592 360.576 138.48 359.92 136.816 358.608C135.152 357.264 134.064 355.392 133.552 352.992L137.392 352.176C137.552 352.848 137.76 353.488 138.016 354.096C138.304 354.672 138.672 355.184 139.12 355.632C139.6 356.048 140.176 356.384 140.848 356.64C141.52 356.896 142.32 357.024 143.248 357.024C145.072 357.024 146.48 356.512 147.472 355.488C148.496 354.432 149.008 352.8 149.008 350.592V330H136.912V326.496H153.04ZM173.085 360.576C170.077 360.576 167.613 360.032 165.693 358.944C163.773 357.824 162.189 356.4 160.941 354.672L163.869 352.272C165.181 353.904 166.557 355.12 167.997 355.92C169.469 356.72 171.213 357.12 173.229 357.12C175.661 357.12 177.517 356.56 178.797 355.44C180.077 354.32 180.717 352.752 180.717 350.736C180.717 349.104 180.253 347.84 179.325 346.944C178.397 346.016 176.781 345.36 174.477 344.976L170.733 344.352C169.101 344.064 167.725 343.632 166.605 343.056C165.517 342.48 164.637 341.792 163.965 340.992C163.293 340.16 162.813 339.264 162.525 338.304C162.237 337.312 162.093 336.288 162.093 335.232C162.093 332.16 163.101 329.84 165.117 328.272C167.133 326.704 169.853 325.92 173.277 325.92C175.965 325.92 178.221 326.368 180.045 327.264C181.901 328.16 183.389 329.424 184.509 331.056L181.677 333.504C180.749 332.288 179.629 331.296 178.317 330.528C177.005 329.76 175.309 329.376 173.229 329.376C170.957 329.376 169.213 329.856 167.997 330.816C166.781 331.776 166.173 333.216 166.173 335.136C166.173 336.64 166.621 337.872 167.517 338.832C168.445 339.76 170.093 340.432 172.461 340.848L176.061 341.472C177.693 341.76 179.069 342.192 180.189 342.768C181.309 343.344 182.205 344.032 182.877 344.832C183.581 345.632 184.077 346.528 184.365 347.52C184.653 348.512 184.797 349.552 184.797 350.64C184.797 353.744 183.773 356.176 181.725 357.936C179.709 359.696 176.829 360.576 173.085 360.576ZM215.163 360H210.603L206.619 353.328L202.203 346.032H202.011L197.451 353.328L193.227 360H188.811L199.755 342.912L189.435 326.496H193.995L197.883 332.976L202.059 339.744H202.251L206.379 332.976L210.411 326.496H214.827L204.459 342.864L215.163 360ZM253.477 360H249.445V326.496H261.637C264.741 326.496 267.109 327.344 268.741 329.04C270.373 330.736 271.189 333.104 271.189 336.144C271.189 338.864 270.485 341.04 269.077 342.672C267.669 344.304 265.621 345.248 262.933 345.504L271.477 360H266.965L258.805 345.696H253.477V360ZM261.541 342.288C263.237 342.288 264.549 341.872 265.477 341.04C266.437 340.176 266.917 338.96 266.917 337.392V334.896C266.917 333.328 266.437 332.128 265.477 331.296C264.549 330.432 263.237 330 261.541 330H253.477V342.288H261.541ZM288.738 360.576C286.946 360.576 285.33 360.272 283.89 359.664C282.482 359.056 281.266 358.192 280.242 357.072C279.25 355.92 278.482 354.56 277.938 352.992C277.394 351.392 277.122 349.616 277.122 347.664C277.122 345.68 277.394 343.888 277.938 342.288C278.514 340.688 279.298 339.328 280.29 338.208C281.282 337.056 282.466 336.176 283.842 335.568C285.25 334.96 286.802 334.656 288.498 334.656C290.162 334.656 291.666 334.96 293.01 335.568C294.386 336.176 295.554 337.024 296.514 338.112C297.474 339.168 298.21 340.432 298.722 341.904C299.234 343.376 299.49 344.992 299.49 346.752V348.576H281.154V349.728C281.154 350.816 281.33 351.824 281.682 352.752C282.034 353.68 282.53 354.48 283.17 355.152C283.842 355.824 284.642 356.352 285.57 356.736C286.53 357.088 287.586 357.264 288.738 357.264C290.402 357.264 291.842 356.88 293.058 356.112C294.274 355.344 295.202 354.288 295.842 352.944L298.674 354.864C297.938 356.528 296.706 357.904 294.978 358.992C293.282 360.048 291.202 360.576 288.738 360.576ZM288.498 337.824C287.442 337.824 286.466 338.016 285.57 338.4C284.674 338.784 283.89 339.312 283.218 339.984C282.578 340.656 282.066 341.456 281.682 342.384C281.33 343.28 281.154 344.272 281.154 345.36V345.696H295.362V345.168C295.362 344.08 295.186 343.088 294.834 342.192C294.514 341.296 294.05 340.528 293.442 339.888C292.866 339.216 292.146 338.704 291.282 338.352C290.45 338 289.522 337.824 288.498 337.824ZM318.288 360C316.4 360 315.008 359.472 314.112 358.416C313.248 357.36 312.816 356 312.816 354.336V338.496H304.56V335.232H310.704C311.536 335.232 312.112 335.072 312.432 334.752C312.784 334.4 312.96 333.808 312.96 332.976V326.496H316.656V335.232H327.936V338.496H316.656V356.736H327.936V360H318.288ZM351.725 355.968H351.533C351.277 356.576 350.957 357.168 350.573 357.744C350.189 358.288 349.709 358.768 349.133 359.184C348.589 359.6 347.933 359.936 347.165 360.192C346.397 360.448 345.501 360.576 344.477 360.576C341.885 360.576 339.805 359.76 338.237 358.128C336.669 356.464 335.885 354.128 335.885 351.12V335.232H339.725V350.448C339.725 352.72 340.221 354.416 341.213 355.536C342.205 356.624 343.661 357.168 345.581 357.168C346.349 357.168 347.101 357.072 347.837 356.88C348.573 356.688 349.229 356.4 349.805 356.016C350.381 355.632 350.845 355.152 351.197 354.576C351.549 353.968 351.725 353.248 351.725 352.416V335.232H355.565V360H351.725V355.968ZM363.946 356.736H371.194V338.496H363.946V335.232H375.034V341.472H375.274C375.786 339.52 376.746 338 378.154 336.912C379.594 335.792 381.418 335.232 383.626 335.232H387.082V339.072H382.426C380.218 339.072 378.426 339.712 377.05 340.992C375.706 342.272 375.034 343.952 375.034 346.032V356.736H384.634V360H363.946V356.736ZM393.735 360V335.232H397.575V339.264H397.767C398.023 338.656 398.343 338.08 398.727 337.536C399.111 336.96 399.575 336.464 400.119 336.048C400.695 335.632 401.367 335.296 402.135 335.04C402.903 334.784 403.799 334.656 404.823 334.656C407.415 334.656 409.495 335.488 411.063 337.152C412.631 338.784 413.415 341.104 413.415 344.112V360H409.575V344.784C409.575 342.512 409.079 340.832 408.087 339.744C407.095 338.624 405.639 338.064 403.719 338.064C402.951 338.064 402.199 338.16 401.463 338.352C400.727 338.544 400.071 338.832 399.495 339.216C398.919 339.6 398.455 340.096 398.103 340.704C397.751 341.312 397.575 342.016 397.575 342.816V360H393.735Z" fill="black"/>
<path d="M969.939 244.939C969.354 245.525 969.354 246.475 969.939 247.061L979.485 256.607C980.071 257.192 981.021 257.192 981.607 256.607C982.192 256.021 982.192 255.071 981.607 254.485L973.121 246L981.607 237.515C982.192 236.929 982.192 235.979 981.607 235.393C981.021 234.808 980.071 234.808 979.485 235.393L969.939 244.939ZM1019 246V244.5H971V246V247.5H1019V246Z" fill="black"/>
<defs>
<filter id="filter0_d_0_1" x="0" y="0" width="959" height="512" filterUnits="userSpaceOnUse" color-interpolation-filters="sRGB">
<feFlood flood-opacity="0" result="BackgroundImageFix"/>
<feColorMatrix in="SourceAlpha" type="matrix" values="0 0 0 0 0 0 0 0 0 0 0 0 0 0 0 0 0 0 127 0" result="hardAlpha"/>
<feOffset dx="20" dy="20"/>
<feComposite in2="hardAlpha" operator="out"/>
<feColorMatrix type="matrix" values="0 0 0 0 0 0 0 0 0 0 0 0 0 0 0 0 0 0 1 0"/>
<feBlend mode="normal" in2="BackgroundImageFix" result="effect1_dropShadow_0_1"/>
<feBlend mode="normal" in="SourceGraphic" in2="effect1_dropShadow_0_1" result="shape"/>
</filter>
</defs>
</svg>
