<svg viewBox="0 0 480 126" fill="none" xmlns="http://www.w3.org/2000/svg">
<g filter="url(#filter0_d_5128_6216)">
<mask id="path-1-outside-1_5128_6216" maskUnits="userSpaceOnUse" x="9.29688" y="-0.599609" width="471" height="117" fill="black">
<rect fill="white" x="9.29688" y="-0.599609" width="471" height="117"/>
<path d="M90.4009 22.8004H42.4009C39.7555 22.8004 37.4942 23.7391 35.6169 25.6164C33.7395 27.4937 32.8009 29.7551 32.8009 32.4004V80.4004H20.0009V32.4004C20.0009 28.2191 20.9822 24.4644 22.9449 21.1364C24.9929 17.7231 27.7235 15.0351 31.1369 13.0724C34.5502 11.0244 38.3049 10.0004 42.4009 10.0004H90.4009V22.8004ZM182.555 83.6004C182.555 87.6964 181.531 91.4511 179.483 94.8644C177.52 98.2777 174.832 100.966 171.419 102.928C168.091 104.976 164.336 106 160.155 106H108.955V93.2004H160.155C162.8 93.2004 165.062 92.2617 166.939 90.3844C168.816 88.5071 169.755 86.2457 169.755 83.6004V80.4004H134.555C129.691 80.4004 125.126 79.5044 120.859 77.7124C116.678 75.8351 112.966 73.2751 109.723 70.0324C106.566 66.7897 104.091 63.0777 102.299 58.8964C100.507 54.6297 99.6109 50.0644 99.6109 45.2004V10.0004H112.411V45.2004C112.411 49.2964 113.392 53.0511 115.355 56.4644C117.403 59.7924 120.091 62.4804 123.419 64.5284C126.747 66.4911 130.459 67.5151 134.555 67.6004H169.755V10.0004H182.555V83.6004ZM285.749 10.0004L246.837 80.4004H232.245L193.589 10.0004H208.565L239.541 67.0884L270.773 10.0004H285.749ZM374.058 32.4004C374.058 36.4964 373.034 40.2511 370.986 43.6644C369.023 47.0777 366.335 49.8084 362.922 51.8564C359.594 53.8191 355.839 54.8004 351.658 54.8004H302.634C304.426 58.5551 307.071 61.6271 310.57 64.0164C314.154 66.4057 318.165 67.6004 322.602 67.6004H364.458V80.4004H322.602C317.738 80.4004 313.173 79.5044 308.906 77.7124C304.725 75.8351 301.013 73.2751 297.77 70.0324C294.613 66.7897 292.138 63.0777 290.346 58.8964C288.554 54.6297 287.658 50.0644 287.658 45.2004C287.658 40.3364 288.554 35.8137 290.346 31.6324C292.138 27.3657 294.613 23.6111 297.77 20.3684C301.013 17.1257 304.725 14.6084 308.906 12.8164C313.173 10.9391 317.738 10.0004 322.602 10.0004H351.658C355.839 10.0004 359.594 11.0244 362.922 13.0724C366.335 15.0351 369.023 17.7231 370.986 21.1364C373.034 24.4644 374.058 28.2191 374.058 32.4004ZM351.658 42.0004C354.303 42.0004 356.565 41.0617 358.442 39.1844C360.319 37.3071 361.258 35.0457 361.258 32.4004C361.258 29.7551 360.319 27.4937 358.442 25.6164C356.565 23.7391 354.303 22.8004 351.658 22.8004H322.602C318.847 22.8004 315.391 23.6537 312.234 25.3604C309.162 27.0671 306.602 29.3711 304.554 32.2724C302.506 35.1737 301.226 38.4164 300.714 42.0004H351.658ZM399.438 80.4004H386.638V10.0004H434.638C439.502 10.0004 444.025 10.9391 448.206 12.8164C452.473 14.6084 456.185 17.1257 459.342 20.3684C462.585 23.6111 465.102 27.3657 466.894 31.6324C468.686 35.8137 469.582 40.3364 469.582 45.2004V80.4004H456.782V45.2004C456.782 41.1044 455.801 37.3924 453.838 34.0644C451.875 30.6511 449.187 27.9204 445.774 25.8724C442.446 23.8244 438.734 22.8004 434.638 22.8004H399.438V80.4004Z"/>
</mask>
<path d="M90.4009 22.8004H42.4009C39.7555 22.8004 37.4942 23.7391 35.6169 25.6164C33.7395 27.4937 32.8009 29.7551 32.8009 32.4004V80.4004H20.0009V32.4004C20.0009 28.2191 20.9822 24.4644 22.9449 21.1364C24.9929 17.7231 27.7235 15.0351 31.1369 13.0724C34.5502 11.0244 38.3049 10.0004 42.4009 10.0004H90.4009V22.8004ZM182.555 83.6004C182.555 87.6964 181.531 91.4511 179.483 94.8644C177.52 98.2777 174.832 100.966 171.419 102.928C168.091 104.976 164.336 106 160.155 106H108.955V93.2004H160.155C162.8 93.2004 165.062 92.2617 166.939 90.3844C168.816 88.5071 169.755 86.2457 169.755 83.6004V80.4004H134.555C129.691 80.4004 125.126 79.5044 120.859 77.7124C116.678 75.8351 112.966 73.2751 109.723 70.0324C106.566 66.7897 104.091 63.0777 102.299 58.8964C100.507 54.6297 99.6109 50.0644 99.6109 45.2004V10.0004H112.411V45.2004C112.411 49.2964 113.392 53.0511 115.355 56.4644C117.403 59.7924 120.091 62.4804 123.419 64.5284C126.747 66.4911 130.459 67.5151 134.555 67.6004H169.755V10.0004H182.555V83.6004ZM285.749 10.0004L246.837 80.4004H232.245L193.589 10.0004H208.565L239.541 67.0884L270.773 10.0004H285.749ZM374.058 32.4004C374.058 36.4964 373.034 40.2511 370.986 43.6644C369.023 47.0777 366.335 49.8084 362.922 51.8564C359.594 53.8191 355.839 54.8004 351.658 54.8004H302.634C304.426 58.5551 307.071 61.6271 310.57 64.0164C314.154 66.4057 318.165 67.6004 322.602 67.6004H364.458V80.4004H322.602C317.738 80.4004 313.173 79.5044 308.906 77.7124C304.725 75.8351 301.013 73.2751 297.77 70.0324C294.613 66.7897 292.138 63.0777 290.346 58.8964C288.554 54.6297 287.658 50.0644 287.658 45.2004C287.658 40.3364 288.554 35.8137 290.346 31.6324C292.138 27.3657 294.613 23.6111 297.77 20.3684C301.013 17.1257 304.725 14.6084 308.906 12.8164C313.173 10.9391 317.738 10.0004 322.602 10.0004H351.658C355.839 10.0004 359.594 11.0244 362.922 13.0724C366.335 15.0351 369.023 17.7231 370.986 21.1364C373.034 24.4644 374.058 28.2191 374.058 32.4004ZM351.658 42.0004C354.303 42.0004 356.565 41.0617 358.442 39.1844C360.319 37.3071 361.258 35.0457 361.258 32.4004C361.258 29.7551 360.319 27.4937 358.442 25.6164C356.565 23.7391 354.303 22.8004 351.658 22.8004H322.602C318.847 22.8004 315.391 23.6537 312.234 25.3604C309.162 27.0671 306.602 29.3711 304.554 32.2724C302.506 35.1737 301.226 38.4164 300.714 42.0004H351.658ZM399.438 80.4004H386.638V10.0004H434.638C439.502 10.0004 444.025 10.9391 448.206 12.8164C452.473 14.6084 456.185 17.1257 459.342 20.3684C462.585 23.6111 465.102 27.3657 466.894 31.6324C468.686 35.8137 469.582 40.3364 469.582 45.2004V80.4004H456.782V45.2004C456.782 41.1044 455.801 37.3924 453.838 34.0644C451.875 30.6511 449.187 27.9204 445.774 25.8724C442.446 23.8244 438.734 22.8004 434.638 22.8004H399.438V80.4004Z" fill="black"/>
<path d="M90.4009 22.8004V32.8004H100.401V22.8004H90.4009ZM35.6169 25.6164L28.5458 18.5453L28.5458 18.5453L35.6169 25.6164ZM32.8009 80.4004V90.4004H42.8009V80.4004H32.8009ZM20.0009 80.4004H10.0009V90.4004H20.0009V80.4004ZM22.9449 21.1364L14.3699 15.9914L14.3505 16.0239L14.3312 16.0565L22.9449 21.1364ZM31.1369 13.0724L36.1216 21.7415L36.2021 21.6951L36.2818 21.6473L31.1369 13.0724ZM90.4009 10.0004H100.401V0.000389099H90.4009V10.0004ZM90.4009 22.8004V12.8004H42.4009V22.8004V32.8004H90.4009V22.8004ZM42.4009 22.8004V12.8004C37.0925 12.8004 32.2908 14.8003 28.5458 18.5453L35.6169 25.6164L42.6879 32.6875C42.7407 32.6347 42.7536 32.6308 42.7223 32.6521C42.6895 32.6744 42.6318 32.7083 42.5547 32.7403C42.4774 32.7724 42.4108 32.7901 42.3678 32.7983C42.3266 32.8062 42.3331 32.8004 42.4009 32.8004V22.8004ZM35.6169 25.6164L28.5458 18.5453C24.8008 22.2903 22.8009 27.0921 22.8009 32.4004H32.8009H42.8009C42.8009 32.3327 42.8067 32.3261 42.7988 32.3674C42.7905 32.4103 42.7728 32.477 42.7408 32.5542C42.7088 32.6313 42.6749 32.689 42.6526 32.7218C42.6313 32.7531 42.6352 32.7402 42.6879 32.6875L35.6169 25.6164ZM32.8009 32.4004H22.8009V80.4004H32.8009H42.8009V32.4004H32.8009ZM32.8009 80.4004V70.4004H20.0009V80.4004V90.4004H32.8009V80.4004ZM20.0009 80.4004H30.0009V32.4004H20.0009H10.0009V80.4004H20.0009ZM20.0009 32.4004H30.0009C30.0009 29.8539 30.5777 27.8794 31.5585 26.2162L22.9449 21.1364L14.3312 16.0565C11.3868 21.0493 10.0009 26.5842 10.0009 32.4004H20.0009ZM22.9449 21.1364L31.5198 26.2813C32.701 24.3127 34.2026 22.8448 36.1216 21.7415L31.1369 13.0724L26.1522 4.40333C21.2444 7.22527 17.2847 11.1334 14.3699 15.9914L22.9449 21.1364ZM31.1369 13.0724L36.2818 21.6473C38.0944 20.5598 40.0622 20.0004 42.4009 20.0004V10.0004V0.000389099C36.5476 0.000389099 31.006 1.489 25.9919 4.49746L31.1369 13.0724ZM42.4009 10.0004V20.0004H90.4009V10.0004V0.000389099H42.4009V10.0004ZM90.4009 10.0004H80.4009V22.8004H90.4009H100.401V10.0004H90.4009ZM179.483 94.8644L170.908 89.7194L170.86 89.7991L170.814 89.8797L179.483 94.8644ZM171.419 102.928L166.434 94.2593L166.305 94.3337L166.178 94.4118L171.419 102.928ZM108.955 106H98.9549V116H108.955V106ZM108.955 93.2004V83.2004H98.9549V93.2004H108.955ZM166.939 90.3844L174.01 97.4555V97.4554L166.939 90.3844ZM169.755 80.4004H179.755V70.4004H169.755V80.4004ZM120.859 77.7124L116.763 86.8351L116.874 86.885L116.987 86.9322L120.859 77.7124ZM109.723 70.0324L102.558 77.0086L102.605 77.0563L102.652 77.1035L109.723 70.0324ZM102.299 58.8964L93.0791 62.7687L93.0931 62.8022L93.1074 62.8356L102.299 58.8964ZM99.6109 10.0004V0.000389099H89.6109V10.0004H99.6109ZM112.411 10.0004H122.411V0.000389099H112.411V10.0004ZM115.355 56.4644L106.686 61.4491L106.76 61.5784L106.838 61.7054L115.355 56.4644ZM123.419 64.5284L118.178 73.045L118.258 73.0943L118.339 73.1421L123.419 64.5284ZM134.555 67.6004L134.347 77.5982L134.451 77.6004H134.555V67.6004ZM169.755 67.6004V77.6004H179.755V67.6004H169.755ZM169.755 10.0004V0.000389099H159.755V10.0004H169.755ZM182.555 10.0004H192.555V0.000389099H182.555V10.0004ZM182.555 83.6004H172.555C172.555 85.9391 171.995 87.9069 170.908 89.7194L179.483 94.8644L188.058 100.009C191.066 94.9952 192.555 89.4537 192.555 83.6004H182.555ZM179.483 94.8644L170.814 89.8797C169.732 91.7609 168.315 93.1776 166.434 94.2593L171.419 102.928L176.404 111.597C181.349 108.754 185.308 104.795 188.152 99.8491L179.483 94.8644ZM171.419 102.928L166.178 94.4118C164.537 95.4216 162.621 96.0004 160.155 96.0004V106V116C166.052 116 171.645 114.531 176.66 111.445L171.419 102.928ZM160.155 106V96.0004H108.955V106V116H160.155V106ZM108.955 106H118.955V93.2004H108.955H98.9549V106H108.955ZM108.955 93.2004V103.2H160.155V93.2004V83.2004H108.955V93.2004ZM160.155 93.2004V103.2C165.463 103.2 170.265 101.2 174.01 97.4555L166.939 90.3844L159.868 83.3133C159.815 83.366 159.802 83.37 159.833 83.3487C159.866 83.3264 159.924 83.2925 160.001 83.2605C160.078 83.2284 160.145 83.2107 160.188 83.2025C160.229 83.1946 160.223 83.2004 160.155 83.2004V93.2004ZM166.939 90.3844L174.01 97.4554C177.755 93.7104 179.755 88.9087 179.755 83.6004H169.755H159.755C159.755 83.6681 159.749 83.6747 159.757 83.6334C159.765 83.5904 159.783 83.5238 159.815 83.4466C159.847 83.3695 159.881 83.3118 159.903 83.279C159.924 83.2477 159.921 83.2606 159.868 83.3133L166.939 90.3844ZM169.755 83.6004H179.755V80.4004H169.755H159.755V83.6004H169.755ZM169.755 80.4004V70.4004H134.555V80.4004V90.4004H169.755V80.4004ZM134.555 80.4004V70.4004C130.952 70.4004 127.71 69.7435 124.731 68.4926L120.859 77.7124L116.987 86.9322C122.541 89.2652 128.43 90.4004 134.555 90.4004V80.4004ZM120.859 77.7124L124.955 68.5897C121.882 67.2101 119.178 65.3456 116.794 62.9613L109.723 70.0324L102.652 77.1035C106.753 81.2046 111.473 84.46 116.763 86.8351L120.859 77.7124ZM109.723 70.0324L116.888 63.0562C114.591 60.6975 112.801 58.0163 111.49 54.9572L102.299 58.8964L93.1074 62.8356C95.3804 68.1391 98.5401 72.8819 102.558 77.0086L109.723 70.0324ZM102.299 58.8964L111.519 55.0241C110.268 52.0456 109.611 48.8036 109.611 45.2004H99.6109H89.6109C89.6109 51.3251 90.746 57.2139 93.0791 62.7687L102.299 58.8964ZM99.6109 45.2004H109.611V10.0004H99.6109H89.6109V45.2004H99.6109ZM99.6109 10.0004V20.0004H112.411V10.0004V0.000389099H99.6109V10.0004ZM112.411 10.0004H102.411V45.2004H112.411H122.411V10.0004H112.411ZM112.411 45.2004H102.411C102.411 50.9723 103.815 56.4568 106.686 61.4491L115.355 56.4644L124.024 51.4797C122.969 49.6453 122.411 47.6205 122.411 45.2004H112.411ZM115.355 56.4644L106.838 61.7054C109.707 66.3666 113.517 70.1765 118.178 73.045L123.419 64.5284L128.66 56.0118C126.665 54.7842 125.099 53.2182 123.871 51.2234L115.355 56.4644ZM123.419 64.5284L118.339 73.1421C123.235 76.0294 128.642 77.4794 134.347 77.5982L134.555 67.6004L134.763 57.6026C132.276 57.5507 130.259 56.9527 128.499 55.9147L123.419 64.5284ZM134.555 67.6004V77.6004H169.755V67.6004V57.6004H134.555V67.6004ZM169.755 67.6004H179.755V10.0004H169.755H159.755V67.6004H169.755ZM169.755 10.0004V20.0004H182.555V10.0004V0.000389099H169.755V10.0004ZM182.555 10.0004H172.555V83.6004H182.555H192.555V10.0004H182.555ZM285.749 10.0004L294.501 14.8379L302.702 0.000389099H285.749V10.0004ZM246.837 80.4004V90.4004H252.735L255.589 85.2379L246.837 80.4004ZM232.245 80.4004L223.479 85.2135L226.327 90.4004H232.245V80.4004ZM193.589 10.0004V0.000389099H176.69L184.823 14.8135L193.589 10.0004ZM208.565 10.0004L217.354 5.23121L214.516 0.000389099H208.565V10.0004ZM239.541 67.0884L230.751 71.8576L239.505 87.9898L248.314 71.8879L239.541 67.0884ZM270.773 10.0004V0.000389099H264.845L262 5.20084L270.773 10.0004ZM285.749 10.0004L276.997 5.16289L238.085 75.5629L246.837 80.4004L255.589 85.2379L294.501 14.8379L285.749 10.0004ZM246.837 80.4004V70.4004H232.245V80.4004V90.4004H246.837V80.4004ZM232.245 80.4004L241.01 75.5873L202.354 5.18732L193.589 10.0004L184.823 14.8135L223.479 85.2135L232.245 80.4004ZM193.589 10.0004V20.0004H208.565V10.0004V0.000389099H193.589V10.0004ZM208.565 10.0004L199.775 14.7696L230.751 71.8576L239.541 67.0884L248.33 62.3192L217.354 5.23121L208.565 10.0004ZM239.541 67.0884L248.314 71.8879L279.546 14.7999L270.773 10.0004L262 5.20084L230.768 62.2888L239.541 67.0884ZM270.773 10.0004V20.0004H285.749V10.0004V0.000389099H270.773V10.0004ZM370.986 43.6644L362.411 38.5194L362.363 38.5991L362.317 38.6797L370.986 43.6644ZM362.922 51.8564L368.002 60.47L368.034 60.4508L368.067 60.4313L362.922 51.8564ZM302.634 54.8004V44.8004H286.781L293.609 59.1077L302.634 54.8004ZM310.57 64.0164L304.93 72.2744L304.976 72.3059L305.023 72.3369L310.57 64.0164ZM364.458 67.6004H374.458V57.6004H364.458V67.6004ZM364.458 80.4004V90.4004H374.458V80.4004H364.458ZM308.906 77.7124L304.81 86.8351L304.921 86.885L305.034 86.9322L308.906 77.7124ZM297.77 70.0324L290.605 77.0086L290.652 77.0563L290.699 77.1035L297.77 70.0324ZM290.346 58.8964L281.126 62.7687L281.14 62.8022L281.154 62.8356L290.346 58.8964ZM290.346 31.6324L299.537 35.5716L299.552 35.5382L299.566 35.5047L290.346 31.6324ZM297.77 20.3684L290.699 13.2973L290.652 13.3445L290.605 13.3922L297.77 20.3684ZM308.906 12.8164L312.845 22.0078L312.889 21.9889L312.933 21.9695L308.906 12.8164ZM362.922 13.0724L357.681 21.589L357.808 21.6671L357.937 21.7415L362.922 13.0724ZM370.986 21.1364L362.317 26.1211L362.391 26.2504L362.469 26.3774L370.986 21.1364ZM358.442 39.1844L351.371 32.1133V32.1133L358.442 39.1844ZM358.442 25.6164L365.513 18.5453V18.5453L358.442 25.6164ZM312.234 25.3604L307.479 16.5633L307.428 16.5908L307.377 16.6188L312.234 25.3604ZM304.554 32.2724L312.724 38.0392V38.0392L304.554 32.2724ZM300.714 42.0004L290.814 40.5862L289.184 52.0004H300.714V42.0004ZM374.058 32.4004H364.058C364.058 34.7391 363.498 36.7069 362.411 38.5194L370.986 43.6644L379.561 48.8093C382.569 43.7952 384.058 38.2537 384.058 32.4004H374.058ZM370.986 43.6644L362.317 38.6797C361.213 40.5986 359.746 42.1003 357.777 43.2815L362.922 51.8564L368.067 60.4313C372.925 57.5165 376.833 53.5568 379.655 48.6491L370.986 43.6644ZM362.922 51.8564L357.842 43.2427C356.179 44.2236 354.204 44.8004 351.658 44.8004V54.8004V64.8004C357.474 64.8004 363.009 63.4145 368.002 60.47L362.922 51.8564ZM351.658 54.8004V44.8004H302.634V54.8004V64.8004H351.658V54.8004ZM302.634 54.8004L293.609 59.1077C296.176 64.4852 300.002 68.9091 304.93 72.2744L310.57 64.0164L316.21 55.7584C314.14 54.3451 312.676 52.6249 311.659 50.4931L302.634 54.8004ZM310.57 64.0164L305.023 72.3369C310.301 75.8558 316.253 77.6004 322.602 77.6004V67.6004V57.6004C320.076 57.6004 318.006 56.9556 316.117 55.6959L310.57 64.0164ZM322.602 67.6004V77.6004H364.458V67.6004V57.6004H322.602V67.6004ZM364.458 67.6004H354.458V80.4004H364.458H374.458V67.6004H364.458ZM364.458 80.4004V70.4004H322.602V80.4004V90.4004H364.458V80.4004ZM322.602 80.4004V70.4004C318.999 70.4004 315.757 69.7435 312.778 68.4926L308.906 77.7124L305.034 86.9322C310.588 89.2652 316.477 90.4004 322.602 90.4004V80.4004ZM308.906 77.7124L313.002 68.5897C309.929 67.2101 307.225 65.3456 304.841 62.9613L297.77 70.0324L290.699 77.1035C294.8 81.2046 299.52 84.46 304.81 86.8351L308.906 77.7124ZM297.77 70.0324L304.935 63.0562C302.638 60.6975 300.848 58.0163 299.537 54.9572L290.346 58.8964L281.154 62.8356C283.427 68.1391 286.587 72.8819 290.605 77.0086L297.77 70.0324ZM290.346 58.8964L299.566 55.0241C298.315 52.0456 297.658 48.8036 297.658 45.2004H287.658H277.658C277.658 51.3251 278.793 57.2139 281.126 62.7687L290.346 58.8964ZM287.658 45.2004H297.658C297.658 41.5956 298.315 38.4237 299.537 35.5716L290.346 31.6324L281.154 27.6932C278.793 33.2038 277.658 39.0771 277.658 45.2004H287.658ZM290.346 31.6324L299.566 35.5047C300.884 32.3657 302.67 29.67 304.935 27.3446L297.77 20.3684L290.605 13.3922C286.555 17.5521 283.392 22.3658 281.126 27.7601L290.346 31.6324ZM297.77 20.3684L304.841 27.4395C307.191 25.0889 309.843 23.2946 312.845 22.0078L308.906 12.8164L304.967 3.62494C299.606 5.9222 294.834 9.16251 290.699 13.2973L297.77 20.3684ZM308.906 12.8164L312.933 21.9695C315.876 20.6749 319.063 20.0004 322.602 20.0004V10.0004V0.000389099C316.413 0.000389099 310.47 1.20317 304.878 3.66324L308.906 12.8164ZM322.602 10.0004V20.0004H351.658V10.0004V0.000389099H322.602V10.0004ZM351.658 10.0004V20.0004C354.124 20.0004 356.04 20.5792 357.681 21.589L362.922 13.0724L368.163 4.5558C363.148 1.46954 357.555 0.000389099 351.658 0.000389099V10.0004ZM362.922 13.0724L357.937 21.7415C359.818 22.8232 361.235 24.2399 362.317 26.1211L370.986 21.1364L379.655 16.1517C376.811 11.2062 372.852 7.24696 367.907 4.40332L362.922 13.0724ZM370.986 21.1364L362.469 26.3774C363.479 28.0182 364.058 29.9347 364.058 32.4004H374.058H384.058C384.058 26.5034 382.589 20.9106 379.502 15.8954L370.986 21.1364ZM351.658 42.0004V52.0004C356.966 52.0004 361.768 50.0005 365.513 46.2555L358.442 39.1844L351.371 32.1133C351.318 32.166 351.305 32.17 351.336 32.1487C351.369 32.1264 351.427 32.0925 351.504 32.0605C351.581 32.0284 351.648 32.0107 351.691 32.0025C351.732 31.9946 351.726 32.0004 351.658 32.0004V42.0004ZM358.442 39.1844L365.513 46.2555C369.258 42.5104 371.258 37.7087 371.258 32.4004H361.258H351.258C351.258 32.4681 351.252 32.4746 351.26 32.4334C351.268 32.3904 351.286 32.3238 351.318 32.2466C351.35 32.1695 351.384 32.1118 351.406 32.0789C351.427 32.0477 351.424 32.0606 351.371 32.1133L358.442 39.1844ZM361.258 32.4004H371.258C371.258 27.092 369.258 22.2903 365.513 18.5453L358.442 25.6164L351.371 32.6875C351.424 32.7402 351.427 32.7531 351.406 32.7218C351.384 32.689 351.35 32.6313 351.318 32.5542C351.286 32.477 351.268 32.4104 351.26 32.3674C351.252 32.3261 351.258 32.3327 351.258 32.4004H361.258ZM358.442 25.6164L365.513 18.5453C361.768 14.8003 356.966 12.8004 351.658 12.8004V22.8004V32.8004C351.726 32.8004 351.732 32.8062 351.691 32.7983C351.648 32.7901 351.581 32.7724 351.504 32.7403C351.427 32.7083 351.369 32.6744 351.336 32.6521C351.305 32.6308 351.318 32.6347 351.371 32.6875L358.442 25.6164ZM351.658 22.8004V12.8004H322.602V22.8004V32.8004H351.658V22.8004ZM322.602 22.8004V12.8004C317.266 12.8004 312.165 14.0303 307.479 16.5633L312.234 25.3604L316.989 34.1575C318.618 33.2772 320.428 32.8004 322.602 32.8004V22.8004ZM312.234 25.3604L307.377 16.6188C302.977 19.0634 299.29 22.3897 296.384 26.5056L304.554 32.2724L312.724 38.0392C313.914 36.3524 315.347 35.0707 317.09 34.102L312.234 25.3604ZM304.554 32.2724L296.384 26.5056C293.405 30.7262 291.546 35.4665 290.814 40.5862L300.714 42.0004L310.613 43.4146C310.906 41.3663 311.607 39.6212 312.724 38.0392L304.554 32.2724ZM300.714 42.0004V52.0004H351.658V42.0004V32.0004H300.714V42.0004ZM399.438 80.4004V90.4004H409.438V80.4004H399.438ZM386.638 80.4004H376.638V90.4004H386.638V80.4004ZM386.638 10.0004V0.000389099H376.638V10.0004H386.638ZM448.206 12.8164L444.11 21.9391L444.221 21.989L444.334 22.0362L448.206 12.8164ZM459.342 20.3684L452.177 27.3446L452.224 27.3923L452.271 27.4395L459.342 20.3684ZM466.894 31.6324L457.674 35.5047L457.688 35.5382L457.702 35.5716L466.894 31.6324ZM469.582 80.4004V90.4004H479.582V80.4004H469.582ZM456.782 80.4004H446.782V90.4004H456.782V80.4004ZM453.838 34.0644L445.169 39.0491L445.196 39.0968L445.224 39.1442L453.838 34.0644ZM445.774 25.8724L440.533 34.389L440.581 34.4184L440.629 34.4473L445.774 25.8724ZM399.438 22.8004V12.8004H389.438V22.8004H399.438ZM399.438 80.4004V70.4004H386.638V80.4004V90.4004H399.438V80.4004ZM386.638 80.4004H396.638V10.0004H386.638H376.638V80.4004H386.638ZM386.638 10.0004V20.0004H434.638V10.0004V0.000389099H386.638V10.0004ZM434.638 10.0004V20.0004C438.178 20.0004 441.295 20.6751 444.11 21.9391L448.206 12.8164L452.302 3.6937C446.754 1.20306 440.826 0.000389099 434.638 0.000389099V10.0004ZM448.206 12.8164L444.334 22.0362C447.392 23.3207 449.977 25.085 452.177 27.3446L459.342 20.3684L466.507 13.3922C462.392 9.16648 457.553 5.89606 452.078 3.59657L448.206 12.8164ZM459.342 20.3684L452.271 27.4395C454.588 29.7567 456.379 32.4223 457.674 35.5047L466.894 31.6324L476.114 27.7601C473.824 22.3091 470.581 17.4654 466.413 13.2973L459.342 20.3684ZM466.894 31.6324L457.702 35.5716C458.925 38.4237 459.582 41.5956 459.582 45.2004H469.582H479.582C479.582 39.0771 478.447 33.2038 476.085 27.6932L466.894 31.6324ZM469.582 45.2004H459.582V80.4004H469.582H479.582V45.2004H469.582ZM469.582 80.4004V70.4004H456.782V80.4004V90.4004H469.582V80.4004ZM456.782 80.4004H466.782V45.2004H456.782H446.782V80.4004H456.782ZM456.782 45.2004H466.782C466.782 39.4294 465.377 33.945 462.452 28.9845L453.838 34.0644L445.224 39.1442C446.224 40.8398 446.782 42.7794 446.782 45.2004H456.782ZM453.838 34.0644L462.507 29.0797C459.685 24.172 455.777 20.2123 450.919 17.2975L445.774 25.8724L440.629 34.4473C442.598 35.6285 444.065 37.1302 445.169 39.0491L453.838 34.0644ZM445.774 25.8724L451.015 17.3558C446.033 14.2901 440.491 12.8004 434.638 12.8004V22.8004V32.8004C436.977 32.8004 438.859 33.3587 440.533 34.389L445.774 25.8724ZM434.638 22.8004V12.8004H399.438V22.8004V32.8004H434.638V22.8004ZM399.438 22.8004H389.438V80.4004H399.438H409.438V22.8004H399.438Z" fill="black" mask="url(#path-1-outside-1_5128_6216)"/>
</g>
<defs>
<filter id="filter0_d_5128_6216" x="0" y="0" width="479.582" height="126" filterUnits="userSpaceOnUse" color-interpolation-filters="sRGB">
<feFlood flood-opacity="0" result="BackgroundImageFix"/>
<feColorMatrix in="SourceAlpha" type="matrix" values="0 0 0 0 0 0 0 0 0 0 0 0 0 0 0 0 0 0 127 0" result="hardAlpha"/>
<feOffset dx="-10" dy="10"/>
<feComposite in2="hardAlpha" operator="out"/>
<feColorMatrix type="matrix" values="0 0 0 0 0 0 0 0 0 0 0 0 0 0 0 0 0 0 0.25 0"/>
<feBlend mode="normal" in2="BackgroundImageFix" result="effect1_dropShadow_5128_6216"/>
<feBlend mode="normal" in="SourceGraphic" in2="effect1_dropShadow_5128_6216" result="shape"/>
</filter>
</defs>
</svg>
