
<svg viewBox="0 0 479 126" fill="none" xmlns="http://www.w3.org/2000/svg">
<g filter="url(#filter0_d_5212_6184)">
<path d="M96.8 83.6C96.8 87.7813 95.776 91.5787 93.728 94.992C91.7653 98.32 89.0773 101.008 85.664 103.056C82.336 105.019 78.5813 106 74.4 106H20V93.2H74.4C77.0453 93.2 79.3067 92.2613 81.184 90.384C83.0613 88.5067 84 86.2453 84 83.6C84 80.9547 83.0613 78.6933 81.184 76.816C79.3067 74.9387 77.0453 74 74.4 74H39.2C35.7013 74 32.4587 73.1467 29.472 71.44C26.5707 69.7333 24.2667 67.4293 22.56 64.528C20.8533 61.5413 20 58.2987 20 54.8C20 51.216 20.8533 47.9733 22.56 45.072C24.2667 42.1707 26.5707 39.8667 29.472 38.16C32.4587 36.4533 35.7013 35.6 39.2 35.6H90.4V48.4H39.2C37.408 48.4 35.872 49.04 34.592 50.32C33.3973 51.5147 32.8 53.008 32.8 54.8C32.8 56.592 33.3973 58.128 34.592 59.408C35.872 60.6027 37.408 61.2 39.2 61.2H74.4C78.5813 61.2 82.336 62.224 85.664 64.272C89.0773 66.2347 91.7653 68.9227 93.728 72.336C95.776 75.664 96.8 79.4187 96.8 83.6Z" />
<path d="M191.873 58C191.873 62.096 190.849 65.8507 188.801 69.264C186.838 72.6773 184.15 75.408 180.737 77.456C177.409 79.4187 173.654 80.4 169.473 80.4H120.449C122.241 84.1547 124.886 87.2267 128.385 89.616C131.969 92.0053 135.98 93.2 140.417 93.2H182.273V106H140.417C135.553 106 130.988 105.104 126.721 103.312C122.54 101.435 118.828 98.8747 115.585 95.632C112.428 92.3893 109.953 88.6773 108.161 84.496C106.369 80.2293 105.473 75.664 105.473 70.8C105.473 65.936 106.369 61.4133 108.161 57.232C109.953 52.9653 112.428 49.2107 115.585 45.968C118.828 42.7253 122.54 40.208 126.721 38.416C130.988 36.5387 135.553 35.6 140.417 35.6H169.473C173.654 35.6 177.409 36.624 180.737 38.672C184.15 40.6347 186.838 43.3227 188.801 46.736C190.849 50.064 191.873 53.8187 191.873 58ZM169.473 67.6C172.118 67.6 174.38 66.6613 176.257 64.784C178.134 62.9067 179.073 60.6453 179.073 58C179.073 55.3547 178.134 53.0933 176.257 51.216C174.38 49.3387 172.118 48.4 169.473 48.4H140.417C136.662 48.4 133.206 49.2533 130.049 50.96C126.977 52.6667 124.417 54.9707 122.369 57.872C120.321 60.7733 119.041 64.016 118.529 67.6H169.473Z" />
<path d="M217.253 106H204.453V35.6H252.453C257.317 35.6 261.84 36.5387 266.021 38.416C270.288 40.208 274 42.7253 277.157 45.968C280.4 49.2107 282.917 52.9653 284.709 57.232C286.501 61.4133 287.397 65.936 287.397 70.8V106H274.597V70.8C274.597 66.704 273.616 62.992 271.653 59.664C269.69 56.2507 267.002 53.52 263.589 51.472C260.261 49.424 256.549 48.4 252.453 48.4H217.253V106Z" />
<path d="M386.623 58C386.623 62.096 385.599 65.8507 383.551 69.264C381.588 72.6773 378.9 75.408 375.487 77.456C372.159 79.4187 368.404 80.4 364.223 80.4H315.199C316.991 84.1547 319.636 87.2267 323.135 89.616C326.719 92.0053 330.73 93.2 335.167 93.2H377.023V106H335.167C330.303 106 325.738 105.104 321.471 103.312C317.29 101.435 313.578 98.8747 310.335 95.632C307.178 92.3893 304.703 88.6773 302.911 84.496C301.119 80.2293 300.223 75.664 300.223 70.8C300.223 65.936 301.119 61.4133 302.911 57.232C304.703 52.9653 307.178 49.2107 310.335 45.968C313.578 42.7253 317.29 40.208 321.471 38.416C325.738 36.5387 330.303 35.6 335.167 35.6H364.223C368.404 35.6 372.159 36.624 375.487 38.672C378.9 40.6347 381.588 43.3227 383.551 46.736C385.599 50.064 386.623 53.8187 386.623 58ZM364.223 67.6C366.868 67.6 369.13 66.6613 371.007 64.784C372.884 62.9067 373.823 60.6453 373.823 58C373.823 55.3547 372.884 53.0933 371.007 51.216C369.13 49.3387 366.868 48.4 364.223 48.4H335.167C331.412 48.4 327.956 49.2533 324.799 50.96C321.727 52.6667 319.167 54.9707 317.119 57.872C315.071 60.7733 313.791 64.016 313.279 67.6H364.223Z" />
<path d="M423.907 106H411.107V48.4H391.907V35.6H411.107V10H423.907V35.6H468.707V48.4H423.907V106Z" />
<path d="M96.8 83.6C96.8 87.7813 95.776 91.5787 93.728 94.992C91.7653 98.32 89.0773 101.008 85.664 103.056C82.336 105.019 78.5813 106 74.4 106H20V93.2H74.4C77.0453 93.2 79.3067 92.2613 81.184 90.384C83.0613 88.5067 84 86.2453 84 83.6C84 80.9547 83.0613 78.6933 81.184 76.816C79.3067 74.9387 77.0453 74 74.4 74H39.2C35.7013 74 32.4587 73.1467 29.472 71.44C26.5707 69.7333 24.2667 67.4293 22.56 64.528C20.8533 61.5413 20 58.2987 20 54.8C20 51.216 20.8533 47.9733 22.56 45.072C24.2667 42.1707 26.5707 39.8667 29.472 38.16C32.4587 36.4533 35.7013 35.6 39.2 35.6H90.4V48.4H39.2C37.408 48.4 35.872 49.04 34.592 50.32C33.3973 51.5147 32.8 53.008 32.8 54.8C32.8 56.592 33.3973 58.128 34.592 59.408C35.872 60.6027 37.408 61.2 39.2 61.2H74.4C78.5813 61.2 82.336 62.224 85.664 64.272C89.0773 66.2347 91.7653 68.9227 93.728 72.336C95.776 75.664 96.8 79.4187 96.8 83.6Z"  stroke-width="20"/>
<path d="M191.873 58C191.873 62.096 190.849 65.8507 188.801 69.264C186.838 72.6773 184.15 75.408 180.737 77.456C177.409 79.4187 173.654 80.4 169.473 80.4H120.449C122.241 84.1547 124.886 87.2267 128.385 89.616C131.969 92.0053 135.98 93.2 140.417 93.2H182.273V106H140.417C135.553 106 130.988 105.104 126.721 103.312C122.54 101.435 118.828 98.8747 115.585 95.632C112.428 92.3893 109.953 88.6773 108.161 84.496C106.369 80.2293 105.473 75.664 105.473 70.8C105.473 65.936 106.369 61.4133 108.161 57.232C109.953 52.9653 112.428 49.2107 115.585 45.968C118.828 42.7253 122.54 40.208 126.721 38.416C130.988 36.5387 135.553 35.6 140.417 35.6H169.473C173.654 35.6 177.409 36.624 180.737 38.672C184.15 40.6347 186.838 43.3227 188.801 46.736C190.849 50.064 191.873 53.8187 191.873 58ZM169.473 67.6C172.118 67.6 174.38 66.6613 176.257 64.784C178.134 62.9067 179.073 60.6453 179.073 58C179.073 55.3547 178.134 53.0933 176.257 51.216C174.38 49.3387 172.118 48.4 169.473 48.4H140.417C136.662 48.4 133.206 49.2533 130.049 50.96C126.977 52.6667 124.417 54.9707 122.369 57.872C120.321 60.7733 119.041 64.016 118.529 67.6H169.473Z"  stroke-width="20"/>
<path d="M217.253 106H204.453V35.6H252.453C257.317 35.6 261.84 36.5387 266.021 38.416C270.288 40.208 274 42.7253 277.157 45.968C280.4 49.2107 282.917 52.9653 284.709 57.232C286.501 61.4133 287.397 65.936 287.397 70.8V106H274.597V70.8C274.597 66.704 273.616 62.992 271.653 59.664C269.69 56.2507 267.002 53.52 263.589 51.472C260.261 49.424 256.549 48.4 252.453 48.4H217.253V106Z"  stroke-width="20"/>
<path d="M386.623 58C386.623 62.096 385.599 65.8507 383.551 69.264C381.588 72.6773 378.9 75.408 375.487 77.456C372.159 79.4187 368.404 80.4 364.223 80.4H315.199C316.991 84.1547 319.636 87.2267 323.135 89.616C326.719 92.0053 330.73 93.2 335.167 93.2H377.023V106H335.167C330.303 106 325.738 105.104 321.471 103.312C317.29 101.435 313.578 98.8747 310.335 95.632C307.178 92.3893 304.703 88.6773 302.911 84.496C301.119 80.2293 300.223 75.664 300.223 70.8C300.223 65.936 301.119 61.4133 302.911 57.232C304.703 52.9653 307.178 49.2107 310.335 45.968C313.578 42.7253 317.29 40.208 321.471 38.416C325.738 36.5387 330.303 35.6 335.167 35.6H364.223C368.404 35.6 372.159 36.624 375.487 38.672C378.9 40.6347 381.588 43.3227 383.551 46.736C385.599 50.064 386.623 53.8187 386.623 58ZM364.223 67.6C366.868 67.6 369.13 66.6613 371.007 64.784C372.884 62.9067 373.823 60.6453 373.823 58C373.823 55.3547 372.884 53.0933 371.007 51.216C369.13 49.3387 366.868 48.4 364.223 48.4H335.167C331.412 48.4 327.956 49.2533 324.799 50.96C321.727 52.6667 319.167 54.9707 317.119 57.872C315.071 60.7733 313.791 64.016 313.279 67.6H364.223Z"  stroke-width="20"/>
<path d="M423.907 106H411.107V48.4H391.907V35.6H411.107V10H423.907V35.6H468.707V48.4H423.907V106Z"  stroke-width="20"/>
</g>
<defs>
<filter id="filter0_d_5212_6184" x="0" y="0" width="478.707" height="126" filterUnits="userSpaceOnUse" color-interpolation-filters="sRGB">
<feFlood flood-opacity="0" result="BackgroundImageFix"/>
<feColorMatrix in="SourceAlpha" type="matrix" values="0 0 0 0 0 0 0 0 0 0 0 0 0 0 0 0 0 0 127 0" result="hardAlpha"/>
<feOffset dx="-10" dy="10"/>
<feComposite in2="hardAlpha" operator="out"/>
<feColorMatrix type="matrix" values="0 0 0 0 0 0 0 0 0 0 0 0 0 0 0 0 0 0 0.25 0"/>
<feBlend mode="normal" in2="BackgroundImageFix" result="effect1_dropShadow_5212_6184"/>
<feBlend mode="normal" in="SourceGraphic" in2="effect1_dropShadow_5212_6184" result="shape"/>
</filter>
</defs>
</svg>

