<svg viewBox="0 0 1948 742" fill="none" xmlns="http://www.w3.org/2000/svg">
<rect width="1948" height="150" fill="black"/>
<rect x="0.5" y="150.5" width="1947" height="591" fill="white" stroke="black"/>
<rect x="82.5" y="230.5" width="1783" height="430" fill="white" stroke="black"/>
<path d="M161.904 324.712H144.496V345H139.12V300.328H144.496V320.04H161.904V300.328H167.28V345H161.904V324.712ZM192.151 345.768C189.762 345.768 187.607 345.363 185.687 344.552C183.81 343.741 182.188 342.589 180.823 341.096C179.5 339.56 178.476 337.747 177.751 335.656C177.026 333.523 176.663 331.155 176.663 328.552C176.663 325.907 177.026 323.517 177.751 321.384C178.519 319.251 179.564 317.437 180.887 315.944C182.21 314.408 183.788 313.235 185.623 312.424C187.5 311.613 189.57 311.208 191.831 311.208C194.05 311.208 196.055 311.613 197.847 312.424C199.682 313.235 201.239 314.365 202.519 315.816C203.799 317.224 204.78 318.909 205.463 320.872C206.146 322.835 206.487 324.989 206.487 327.336V329.768H182.039V331.304C182.039 332.755 182.274 334.099 182.743 335.336C183.212 336.573 183.874 337.64 184.727 338.536C185.623 339.432 186.69 340.136 187.927 340.648C189.207 341.117 190.615 341.352 192.151 341.352C194.37 341.352 196.29 340.84 197.911 339.816C199.532 338.792 200.77 337.384 201.623 335.592L205.399 338.152C204.418 340.371 202.775 342.205 200.471 343.656C198.21 345.064 195.436 345.768 192.151 345.768ZM191.831 315.432C190.423 315.432 189.122 315.688 187.927 316.2C186.732 316.712 185.687 317.416 184.791 318.312C183.938 319.208 183.255 320.275 182.743 321.512C182.274 322.707 182.039 324.029 182.039 325.48V325.928H200.983V325.224C200.983 323.773 200.748 322.451 200.279 321.256C199.852 320.061 199.234 319.037 198.423 318.184C197.655 317.288 196.695 316.605 195.543 316.136C194.434 315.667 193.196 315.432 191.831 315.432ZM215.87 340.648H227.39V301.992H215.87V297.64H232.51V340.648H244.03V345H215.87V340.648ZM254.245 340.648H265.765V301.992H254.245V297.64H270.885V340.648H282.405V345H254.245V340.648ZM306.7 345.768C304.396 345.768 302.305 345.363 300.428 344.552C298.593 343.741 297.015 342.589 295.692 341.096C294.412 339.56 293.431 337.747 292.748 335.656C292.065 333.523 291.724 331.133 291.724 328.488C291.724 325.885 292.065 323.517 292.748 321.384C293.431 319.251 294.412 317.437 295.692 315.944C297.015 314.408 298.593 313.235 300.428 312.424C302.305 311.613 304.396 311.208 306.7 311.208C309.004 311.208 311.073 311.613 312.908 312.424C314.785 313.235 316.364 314.408 317.644 315.944C318.967 317.437 319.969 319.251 320.652 321.384C321.335 323.517 321.676 325.885 321.676 328.488C321.676 331.133 321.335 333.523 320.652 335.656C319.969 337.747 318.967 339.56 317.644 341.096C316.364 342.589 314.785 343.741 312.908 344.552C311.073 345.363 309.004 345.768 306.7 345.768ZM306.7 341.352C309.559 341.352 311.863 340.499 313.612 338.792C315.361 337.085 316.236 334.44 316.236 330.856V326.12C316.236 322.536 315.361 319.891 313.612 318.184C311.863 316.477 309.559 315.624 306.7 315.624C303.841 315.624 301.537 316.477 299.788 318.184C298.039 319.891 297.164 322.536 297.164 326.12V330.856C297.164 334.44 298.039 337.085 299.788 338.792C301.537 340.499 303.841 341.352 306.7 341.352ZM370.01 345L366.49 300.328H371.29L373.146 325.928L374.106 339.432H374.618L380.506 311.976H386.522L392.41 339.432H392.922L393.882 325.928L395.738 300.328H400.41L396.89 345H389.146L383.706 318.312H383.194L377.754 345H370.01ZM421.825 345.768C419.521 345.768 417.43 345.363 415.553 344.552C413.718 343.741 412.14 342.589 410.817 341.096C409.537 339.56 408.556 337.747 407.873 335.656C407.19 333.523 406.849 331.133 406.849 328.488C406.849 325.885 407.19 323.517 407.873 321.384C408.556 319.251 409.537 317.437 410.817 315.944C412.14 314.408 413.718 313.235 415.553 312.424C417.43 311.613 419.521 311.208 421.825 311.208C424.129 311.208 426.198 311.613 428.033 312.424C429.91 313.235 431.489 314.408 432.769 315.944C434.092 317.437 435.094 319.251 435.777 321.384C436.46 323.517 436.801 325.885 436.801 328.488C436.801 331.133 436.46 333.523 435.777 335.656C435.094 337.747 434.092 339.56 432.769 341.096C431.489 342.589 429.91 343.741 428.033 344.552C426.198 345.363 424.129 345.768 421.825 345.768ZM421.825 341.352C424.684 341.352 426.988 340.499 428.737 338.792C430.486 337.085 431.361 334.44 431.361 330.856V326.12C431.361 322.536 430.486 319.891 428.737 318.184C426.988 316.477 424.684 315.624 421.825 315.624C418.966 315.624 416.662 316.477 414.913 318.184C413.164 319.891 412.289 322.536 412.289 326.12V330.856C412.289 334.44 413.164 337.085 414.913 338.792C416.662 340.499 418.966 341.352 421.825 341.352ZM445.928 340.648H455.592V316.328H445.928V311.976H460.712V320.296H461.032C461.715 317.693 462.995 315.667 464.872 314.216C466.792 312.723 469.224 311.976 472.168 311.976H476.776V317.096H470.568C467.624 317.096 465.235 317.949 463.4 319.656C461.608 321.363 460.712 323.603 460.712 326.376V340.648H473.512V345H445.928V340.648ZM484.495 340.648H496.015V301.992H484.495V297.64H501.135V340.648H512.655V345H484.495V340.648ZM544.95 339.624H544.694C542.561 343.72 539.169 345.768 534.518 345.768C530.465 345.768 527.286 344.253 524.982 341.224C522.721 338.195 521.59 333.949 521.59 328.488C521.59 323.027 522.721 318.781 524.982 315.752C527.286 312.723 530.465 311.208 534.518 311.208C539.169 311.208 542.561 313.256 544.694 317.352H544.95V297.64H550.07V345H544.95V339.624ZM536.502 341.224C537.654 341.224 538.742 341.075 539.766 340.776C540.79 340.477 541.686 340.051 542.454 339.496C543.222 338.899 543.819 338.195 544.246 337.384C544.715 336.531 544.95 335.549 544.95 334.44V322.536C544.95 321.427 544.715 320.467 544.246 319.656C543.819 318.803 543.222 318.099 542.454 317.544C541.686 316.947 540.79 316.499 539.766 316.2C538.742 315.901 537.654 315.752 536.502 315.752C533.515 315.752 531.19 316.669 529.526 318.504C527.905 320.296 527.094 322.685 527.094 325.672V331.304C527.094 334.291 527.905 336.701 529.526 338.536C531.19 340.328 533.515 341.224 536.502 341.224ZM574.301 330.088L572.509 313.32V300.328H578.141V313.32L576.349 330.088H574.301ZM575.325 345.576C573.576 345.576 572.338 345.213 571.613 344.488C570.93 343.763 570.589 342.845 570.589 341.736V340.584C570.589 339.475 570.93 338.557 571.613 337.832C572.338 337.107 573.576 336.744 575.325 336.744C577.074 336.744 578.29 337.107 578.973 337.832C579.698 338.557 580.061 339.475 580.061 340.584V341.736C580.061 342.845 579.698 343.763 578.973 344.488C578.29 345.213 577.074 345.576 575.325 345.576Z" fill="black"/>
<path d="M388.704 57.48H392.544V72.264H392.736C392.992 71.656 393.312 71.08 393.696 70.536C394.08 69.96 394.544 69.464 395.088 69.048C395.664 68.632 396.336 68.296 397.104 68.04C397.872 67.784 398.768 67.656 399.792 67.656C402.384 67.656 404.464 68.488 406.032 70.152C407.6 71.784 408.384 74.104 408.384 77.112V93H404.544V77.784C404.544 75.512 404.048 73.832 403.056 72.744C402.064 71.624 400.608 71.064 398.688 71.064C397.92 71.064 397.168 71.16 396.432 71.352C395.696 71.544 395.04 71.832 394.464 72.216C393.888 72.6 393.424 73.096 393.072 73.704C392.72 74.312 392.544 75.016 392.544 75.816V93H388.704V57.48ZM428.381 93C426.493 93 425.101 92.472 424.205 91.416C423.341 90.36 422.909 89 422.909 87.336V71.496H414.653V68.232H420.797C421.629 68.232 422.205 68.072 422.525 67.752C422.877 67.4 423.053 66.808 423.053 65.976V59.496H426.749V68.232H438.029V71.496H426.749V89.736H438.029V93H428.381ZM457.163 93C455.275 93 453.883 92.472 452.987 91.416C452.123 90.36 451.691 89 451.691 87.336V71.496H443.435V68.232H449.579C450.411 68.232 450.987 68.072 451.307 67.752C451.659 67.4 451.835 66.808 451.835 65.976V59.496H455.531V68.232H466.811V71.496H455.531V89.736H466.811V93H457.163ZM474.904 68.232H478.744V72.264H478.936C480.536 69.192 483.08 67.656 486.568 67.656C489.608 67.656 491.976 68.792 493.672 71.064C495.4 73.336 496.264 76.52 496.264 80.616C496.264 84.712 495.4 87.896 493.672 90.168C491.976 92.44 489.608 93.576 486.568 93.576C483.08 93.576 480.536 92.04 478.936 88.968H478.744V102.6H474.904V68.232ZM485.08 90.168C487.32 90.168 489.048 89.496 490.264 88.152C491.512 86.776 492.136 84.968 492.136 82.728V78.504C492.136 76.264 491.512 74.472 490.264 73.128C489.048 71.752 487.32 71.064 485.08 71.064C484.216 71.064 483.4 71.176 482.632 71.4C481.864 71.624 481.192 71.96 480.616 72.408C480.04 72.824 479.576 73.352 479.224 73.992C478.904 74.6 478.744 75.32 478.744 76.152V85.08C478.744 85.912 478.904 86.648 479.224 87.288C479.576 87.896 480.04 88.424 480.616 88.872C481.192 89.288 481.864 89.608 482.632 89.832C483.4 90.056 484.216 90.168 485.08 90.168ZM513.525 93.432C512.213 93.432 511.285 93.16 510.741 92.616C510.229 92.072 509.973 91.384 509.973 90.552V89.688C509.973 88.856 510.229 88.168 510.741 87.624C511.285 87.08 512.213 86.808 513.525 86.808C514.837 86.808 515.749 87.08 516.261 87.624C516.805 88.168 517.077 88.856 517.077 89.688V90.552C517.077 91.384 516.805 92.072 516.261 92.616C515.749 93.16 514.837 93.432 513.525 93.432ZM513.525 74.424C512.213 74.424 511.285 74.152 510.741 73.608C510.229 73.064 509.973 72.376 509.973 71.544V70.68C509.973 69.848 510.229 69.16 510.741 68.616C511.285 68.072 512.213 67.8 513.525 67.8C514.837 67.8 515.749 68.072 516.261 68.616C516.805 69.16 517.077 69.848 517.077 70.68V71.544C517.077 72.376 516.805 73.064 516.261 73.608C515.749 74.152 514.837 74.424 513.525 74.424ZM532.226 99.624L548.93 56.52H552.386L535.682 99.624H532.226ZM561.008 99.624L577.712 56.52H581.168L564.464 99.624H561.008ZM589.309 89.736H597.949V60.744H589.309V57.48H601.789V89.736H610.429V93H589.309V89.736ZM628.65 93.576C626.922 93.576 625.354 93.272 623.946 92.664C622.57 92.056 621.386 91.192 620.394 90.072C619.434 88.92 618.698 87.56 618.186 85.992C617.674 84.392 617.418 82.6 617.418 80.616C617.418 78.664 617.674 76.888 618.186 75.288C618.698 73.688 619.434 72.328 620.394 71.208C621.386 70.056 622.57 69.176 623.946 68.568C625.354 67.96 626.922 67.656 628.65 67.656C630.378 67.656 631.93 67.96 633.306 68.568C634.714 69.176 635.898 70.056 636.858 71.208C637.85 72.328 638.602 73.688 639.114 75.288C639.626 76.888 639.882 78.664 639.882 80.616C639.882 82.6 639.626 84.392 639.114 85.992C638.602 87.56 637.85 88.92 636.858 90.072C635.898 91.192 634.714 92.056 633.306 92.664C631.93 93.272 630.378 93.576 628.65 93.576ZM628.65 90.264C630.794 90.264 632.522 89.624 633.834 88.344C635.146 87.064 635.802 85.08 635.802 82.392V78.84C635.802 76.152 635.146 74.168 633.834 72.888C632.522 71.608 630.794 70.968 628.65 70.968C626.506 70.968 624.778 71.608 623.466 72.888C622.154 74.168 621.498 76.152 621.498 78.84V82.392C621.498 85.08 622.154 87.064 623.466 88.344C624.778 89.624 626.506 90.264 628.65 90.264ZM658.295 93.576C656.503 93.576 654.903 93.272 653.495 92.664C652.119 92.024 650.951 91.144 649.991 90.024C649.031 88.904 648.295 87.544 647.783 85.944C647.303 84.344 647.063 82.568 647.063 80.616C647.063 78.664 647.319 76.888 647.831 75.288C648.343 73.688 649.079 72.328 650.039 71.208C650.999 70.056 652.167 69.176 653.543 68.568C654.919 67.96 656.487 67.656 658.247 67.656C660.647 67.656 662.599 68.184 664.103 69.24C665.607 70.296 666.711 71.672 667.415 73.368L664.343 75C663.895 73.72 663.143 72.728 662.087 72.024C661.063 71.32 659.783 70.968 658.247 70.968C657.127 70.968 656.119 71.16 655.223 71.544C654.359 71.896 653.623 72.408 653.015 73.08C652.407 73.752 651.943 74.552 651.623 75.48C651.335 76.408 651.191 77.416 651.191 78.504V82.728C651.191 83.816 651.335 84.824 651.623 85.752C651.943 86.68 652.407 87.48 653.015 88.152C653.623 88.824 654.375 89.352 655.271 89.736C656.167 90.088 657.191 90.264 658.343 90.264C660.007 90.264 661.383 89.88 662.471 89.112C663.559 88.344 664.423 87.288 665.063 85.944L667.799 87.816C667.063 89.48 665.911 90.856 664.343 91.944C662.807 93.032 660.791 93.576 658.295 93.576ZM695.573 93C694.069 93 692.997 92.616 692.357 91.848C691.717 91.08 691.317 90.12 691.157 88.968H690.917C690.373 90.408 689.493 91.544 688.277 92.376C687.093 93.176 685.493 93.576 683.477 93.576C680.885 93.576 678.821 92.904 677.285 91.56C675.749 90.216 674.98 88.376 674.98 86.04C674.98 83.736 675.813 81.96 677.477 80.712C679.173 79.464 681.893 78.84 685.637 78.84H690.917V76.392C690.917 74.568 690.405 73.208 689.381 72.312C688.357 71.384 686.901 70.92 685.013 70.92C683.349 70.92 681.989 71.256 680.933 71.928C679.877 72.568 679.029 73.448 678.389 74.568L675.797 72.648C676.117 72.008 676.549 71.384 677.093 70.776C677.637 70.168 678.309 69.64 679.109 69.192C679.909 68.712 680.821 68.344 681.845 68.088C682.869 67.8 684.005 67.656 685.253 67.656C688.165 67.656 690.469 68.392 692.165 69.864C693.893 71.336 694.757 73.384 694.757 76.008V89.64H698.213V93H695.573ZM684.148 90.36C685.141 90.36 686.037 90.248 686.837 90.024C687.669 89.768 688.389 89.448 688.997 89.064C689.605 88.648 690.069 88.168 690.389 87.624C690.741 87.048 690.917 86.44 690.917 85.8V81.72H685.637C683.333 81.72 681.653 82.04 680.597 82.68C679.541 83.32 679.013 84.248 679.013 85.464V86.472C679.013 87.752 679.461 88.728 680.357 89.4C681.285 90.04 682.549 90.36 684.148 90.36ZM704.434 89.736H713.074V60.744H704.434V57.48H716.914V89.736H725.554V93H704.434V89.736ZM734.079 57.48H737.919V72.264H738.111C738.367 71.656 738.687 71.08 739.071 70.536C739.455 69.96 739.919 69.464 740.463 69.048C741.039 68.632 741.711 68.296 742.479 68.04C743.247 67.784 744.143 67.656 745.167 67.656C747.759 67.656 749.839 68.488 751.407 70.152C752.975 71.784 753.759 74.104 753.759 77.112V93H749.919V77.784C749.919 75.512 749.423 73.832 748.431 72.744C747.439 71.624 745.983 71.064 744.063 71.064C743.295 71.064 742.543 71.16 741.807 71.352C741.071 71.544 740.415 71.832 739.839 72.216C739.263 72.6 738.799 73.096 738.447 73.704C738.095 74.312 737.919 75.016 737.919 75.816V93H734.079V57.48ZM772.556 93.576C770.828 93.576 769.26 93.272 767.852 92.664C766.476 92.056 765.292 91.192 764.3 90.072C763.34 88.92 762.604 87.56 762.092 85.992C761.58 84.392 761.324 82.6 761.324 80.616C761.324 78.664 761.58 76.888 762.092 75.288C762.604 73.688 763.34 72.328 764.3 71.208C765.292 70.056 766.476 69.176 767.852 68.568C769.26 67.96 770.828 67.656 772.556 67.656C774.284 67.656 775.836 67.96 777.212 68.568C778.62 69.176 779.804 70.056 780.764 71.208C781.756 72.328 782.508 73.688 783.02 75.288C783.532 76.888 783.788 78.664 783.788 80.616C783.788 82.6 783.532 84.392 783.02 85.992C782.508 87.56 781.756 88.92 780.764 90.072C779.804 91.192 778.62 92.056 777.212 92.664C775.836 93.272 774.284 93.576 772.556 93.576ZM772.556 90.264C774.7 90.264 776.428 89.624 777.74 88.344C779.052 87.064 779.708 85.08 779.708 82.392V78.84C779.708 76.152 779.052 74.168 777.74 72.888C776.428 71.608 774.7 70.968 772.556 70.968C770.412 70.968 768.684 71.608 767.372 72.888C766.06 74.168 765.404 76.152 765.404 78.84V82.392C765.404 85.08 766.06 87.064 767.372 88.344C768.684 89.624 770.412 90.264 772.556 90.264ZM801.626 93.576C799.034 93.576 796.794 93.144 794.906 92.28C793.05 91.384 791.466 90.2 790.154 88.728L792.746 86.472C793.93 87.72 795.226 88.68 796.634 89.352C798.042 90.024 799.738 90.36 801.722 90.36C803.642 90.36 805.21 90.024 806.426 89.352C807.674 88.648 808.298 87.56 808.298 86.088C808.298 85.448 808.17 84.92 807.914 84.504C807.69 84.056 807.37 83.704 806.954 83.448C806.538 83.192 806.074 83 805.562 82.872C805.05 82.712 804.506 82.584 803.93 82.488L800.042 81.912C799.178 81.784 798.234 81.608 797.21 81.384C796.218 81.16 795.306 80.808 794.474 80.328C793.642 79.816 792.938 79.144 792.362 78.312C791.818 77.48 791.546 76.392 791.546 75.048C791.546 73.8 791.786 72.728 792.266 71.832C792.778 70.904 793.482 70.136 794.378 69.528C795.274 68.888 796.33 68.424 797.546 68.136C798.762 67.816 800.09 67.656 801.53 67.656C803.77 67.656 805.706 68.008 807.338 68.712C809.002 69.416 810.426 70.392 811.609 71.64L809.114 73.992C808.826 73.64 808.458 73.288 808.01 72.936C807.594 72.552 807.066 72.216 806.426 71.928C805.818 71.608 805.098 71.352 804.266 71.16C803.434 70.968 802.474 70.872 801.386 70.872C799.434 70.872 797.93 71.208 796.874 71.88C795.85 72.552 795.338 73.528 795.338 74.808C795.338 75.448 795.45 75.992 795.674 76.44C795.93 76.856 796.266 77.192 796.682 77.448C797.098 77.704 797.562 77.912 798.074 78.072C798.618 78.2 799.162 78.312 799.706 78.408L803.594 78.984C804.49 79.112 805.434 79.288 806.426 79.512C807.418 79.736 808.33 80.104 809.162 80.616C809.994 81.096 810.682 81.752 811.226 82.584C811.802 83.416 812.09 84.504 812.09 85.848C812.09 88.312 811.13 90.216 809.21 91.56C807.322 92.904 804.794 93.576 801.626 93.576ZM831.319 93C829.431 93 828.039 92.472 827.143 91.416C826.279 90.36 825.847 89 825.847 87.336V71.496H817.591V68.232H823.735C824.567 68.232 825.143 68.072 825.463 67.752C825.815 67.4 825.991 66.808 825.991 65.976V59.496H829.687V68.232H840.967V71.496H829.687V89.736H840.967V93H831.319ZM858.9 93.432C857.588 93.432 856.66 93.16 856.116 92.616C855.604 92.072 855.348 91.384 855.348 90.552V89.688C855.348 88.856 855.604 88.168 856.116 87.624C856.66 87.08 857.588 86.808 858.9 86.808C860.212 86.808 861.124 87.08 861.636 87.624C862.18 88.168 862.452 88.856 862.452 89.688V90.552C862.452 91.384 862.18 92.072 861.636 92.616C861.124 93.16 860.212 93.432 858.9 93.432ZM858.9 74.424C857.588 74.424 856.66 74.152 856.116 73.608C855.604 73.064 855.348 72.376 855.348 71.544V70.68C855.348 69.848 855.604 69.16 856.116 68.616C856.66 68.072 857.588 67.8 858.9 67.8C860.212 67.8 861.124 68.072 861.636 68.616C862.18 69.16 862.452 69.848 862.452 70.68V71.544C862.452 72.376 862.18 73.064 861.636 73.608C861.124 74.152 860.212 74.424 858.9 74.424ZM887.681 93.576C885.729 93.576 884.017 93.336 882.545 92.856C881.073 92.344 879.841 91.656 878.849 90.792C877.889 89.928 877.153 88.904 876.641 87.72C876.161 86.536 875.921 85.256 875.921 83.88C875.921 81.576 876.545 79.752 877.793 78.408C879.041 77.064 880.689 76.12 882.737 75.576V75.192C880.945 74.584 879.521 73.608 878.465 72.264C877.441 70.888 876.929 69.24 876.929 67.32C876.929 64.76 877.873 62.728 879.761 61.224C881.649 59.688 884.289 58.92 887.681 58.92C891.073 58.92 893.713 59.688 895.601 61.224C897.489 62.728 898.433 64.76 898.433 67.32C898.433 69.24 897.905 70.888 896.849 72.264C895.825 73.608 894.417 74.584 892.625 75.192V75.576C894.673 76.12 896.321 77.064 897.569 78.408C898.817 79.752 899.441 81.576 899.441 83.88C899.441 85.256 899.185 86.536 898.673 87.72C898.193 88.904 897.457 89.928 896.465 90.792C895.473 91.656 894.241 92.344 892.769 92.856C891.329 93.336 889.633 93.576 887.681 93.576ZM887.681 90.168C890.049 90.168 891.905 89.64 893.249 88.584C894.593 87.528 895.265 86.04 895.265 84.12V83.064C895.265 81.144 894.593 79.656 893.249 78.6C891.937 77.544 890.081 77.016 887.681 77.016C885.281 77.016 883.409 77.544 882.065 78.6C880.753 79.656 880.097 81.144 880.097 83.064V84.12C880.097 86.04 880.769 87.528 882.113 88.584C883.457 89.64 885.313 90.168 887.681 90.168ZM887.681 73.752C889.857 73.752 891.505 73.288 892.625 72.36C893.777 71.432 894.353 70.104 894.353 68.376V67.704C894.353 65.976 893.761 64.648 892.577 63.72C891.425 62.792 889.793 62.328 887.681 62.328C885.569 62.328 883.921 62.792 882.737 63.72C881.585 64.648 881.009 65.976 881.009 67.704V68.376C881.009 70.104 881.569 71.432 882.689 72.36C883.841 73.288 885.505 73.752 887.681 73.752ZM916.463 93.576C914.415 93.576 912.655 93.192 911.183 92.424C909.711 91.624 908.495 90.488 907.535 89.016C906.575 87.544 905.871 85.736 905.423 83.592C904.975 81.448 904.751 79 904.751 76.248C904.751 73.528 904.975 71.096 905.423 68.952C905.871 66.776 906.575 64.952 907.535 63.48C908.495 62.008 909.711 60.888 911.183 60.12C912.655 59.32 914.415 58.92 916.463 58.92C918.511 58.92 920.271 59.32 921.743 60.12C923.215 60.888 924.431 62.008 925.391 63.48C926.351 64.952 927.055 66.776 927.503 68.952C927.951 71.096 928.175 73.528 928.175 76.248C928.175 79 927.951 81.448 927.503 83.592C927.055 85.736 926.351 87.544 925.391 89.016C924.431 90.488 923.215 91.624 921.743 92.424C920.271 93.192 918.511 93.576 916.463 93.576ZM916.463 90.072C917.807 90.072 918.959 89.816 919.919 89.304C920.879 88.76 921.647 88.008 922.223 87.048C922.831 86.088 923.279 84.936 923.567 83.592C923.855 82.216 923.999 80.68 923.999 78.984V73.512C923.999 71.848 923.855 70.328 923.567 68.952C923.279 67.576 922.831 66.408 922.223 65.448C921.647 64.488 920.879 63.752 919.919 63.24C918.959 62.696 917.807 62.424 916.463 62.424C915.119 62.424 913.967 62.696 913.007 63.24C912.047 63.752 911.263 64.488 910.655 65.448C910.079 66.408 909.647 67.576 909.359 68.952C909.071 70.328 908.927 71.848 908.927 73.512V78.984C908.927 80.68 909.071 82.216 909.359 83.592C909.647 84.936 910.079 86.088 910.655 87.048C911.263 88.008 912.047 88.76 913.007 89.304C913.967 89.816 915.119 90.072 916.463 90.072ZM916.463 79.08C915.343 79.08 914.559 78.856 914.111 78.408C913.695 77.96 913.487 77.416 913.487 76.776V75.72C913.487 75.08 913.695 74.536 914.111 74.088C914.559 73.64 915.343 73.416 916.463 73.416C917.583 73.416 918.351 73.64 918.767 74.088C919.215 74.536 919.439 75.08 919.439 75.72V76.776C919.439 77.416 919.215 77.96 918.767 78.408C918.351 78.856 917.583 79.08 916.463 79.08ZM945.244 93.576C943.292 93.576 941.58 93.336 940.108 92.856C938.636 92.344 937.404 91.656 936.412 90.792C935.452 89.928 934.716 88.904 934.204 87.72C933.724 86.536 933.484 85.256 933.484 83.88C933.484 81.576 934.108 79.752 935.356 78.408C936.604 77.064 938.252 76.12 940.3 75.576V75.192C938.508 74.584 937.084 73.608 936.028 72.264C935.004 70.888 934.492 69.24 934.492 67.32C934.492 64.76 935.436 62.728 937.324 61.224C939.212 59.688 941.852 58.92 945.244 58.92C948.636 58.92 951.276 59.688 953.164 61.224C955.052 62.728 955.996 64.76 955.996 67.32C955.996 69.24 955.468 70.888 954.412 72.264C953.388 73.608 951.98 74.584 950.188 75.192V75.576C952.236 76.12 953.884 77.064 955.132 78.408C956.38 79.752 957.004 81.576 957.004 83.88C957.004 85.256 956.748 86.536 956.236 87.72C955.756 88.904 955.02 89.928 954.028 90.792C953.036 91.656 951.804 92.344 950.332 92.856C948.892 93.336 947.196 93.576 945.244 93.576ZM945.244 90.168C947.612 90.168 949.468 89.64 950.812 88.584C952.156 87.528 952.828 86.04 952.828 84.12V83.064C952.828 81.144 952.156 79.656 950.812 78.6C949.5 77.544 947.644 77.016 945.244 77.016C942.844 77.016 940.972 77.544 939.628 78.6C938.316 79.656 937.66 81.144 937.66 83.064V84.12C937.66 86.04 938.332 87.528 939.676 88.584C941.02 89.64 942.876 90.168 945.244 90.168ZM945.244 73.752C947.42 73.752 949.068 73.288 950.188 72.36C951.34 71.432 951.916 70.104 951.916 68.376V67.704C951.916 65.976 951.324 64.648 950.14 63.72C948.988 62.792 947.356 62.328 945.244 62.328C943.132 62.328 941.484 62.792 940.3 63.72C939.148 64.648 938.572 65.976 938.572 67.704V68.376C938.572 70.104 939.132 71.432 940.252 72.36C941.404 73.288 943.068 73.752 945.244 73.752ZM974.025 93.576C971.977 93.576 970.217 93.192 968.745 92.424C967.273 91.624 966.057 90.488 965.097 89.016C964.137 87.544 963.433 85.736 962.985 83.592C962.537 81.448 962.313 79 962.313 76.248C962.313 73.528 962.537 71.096 962.985 68.952C963.433 66.776 964.137 64.952 965.097 63.48C966.057 62.008 967.273 60.888 968.745 60.12C970.217 59.32 971.977 58.92 974.025 58.92C976.073 58.92 977.833 59.32 979.305 60.12C980.777 60.888 981.993 62.008 982.953 63.48C983.913 64.952 984.617 66.776 985.065 68.952C985.513 71.096 985.737 73.528 985.737 76.248C985.737 79 985.513 81.448 985.065 83.592C984.617 85.736 983.913 87.544 982.953 89.016C981.993 90.488 980.777 91.624 979.305 92.424C977.833 93.192 976.073 93.576 974.025 93.576ZM974.025 90.072C975.369 90.072 976.521 89.816 977.481 89.304C978.441 88.76 979.209 88.008 979.785 87.048C980.393 86.088 980.841 84.936 981.129 83.592C981.417 82.216 981.561 80.68 981.561 78.984V73.512C981.561 71.848 981.417 70.328 981.129 68.952C980.841 67.576 980.393 66.408 979.785 65.448C979.209 64.488 978.441 63.752 977.481 63.24C976.521 62.696 975.369 62.424 974.025 62.424C972.681 62.424 971.529 62.696 970.569 63.24C969.609 63.752 968.825 64.488 968.217 65.448C967.641 66.408 967.209 67.576 966.921 68.952C966.633 70.328 966.489 71.848 966.489 73.512V78.984C966.489 80.68 966.633 82.216 966.921 83.592C967.209 84.936 967.641 86.088 968.217 87.048C968.825 88.008 969.609 88.76 970.569 89.304C971.529 89.816 972.681 90.072 974.025 90.072ZM974.025 79.08C972.905 79.08 972.121 78.856 971.673 78.408C971.257 77.96 971.049 77.416 971.049 76.776V75.72C971.049 75.08 971.257 74.536 971.673 74.088C972.121 73.64 972.905 73.416 974.025 73.416C975.145 73.416 975.913 73.64 976.329 74.088C976.777 74.536 977.001 75.08 977.001 75.72V76.776C977.001 77.416 976.777 77.96 976.329 78.408C975.913 78.856 975.145 79.08 974.025 79.08Z" fill="white"/>
<rect x="39" y="48" width="54" height="54" fill="white"/>
<rect x="129" y="48" width="53" height="54" fill="white"/>
<rect x="218" y="48" width="54" height="54" fill="white"/>
</svg>

