<svg viewBox="0 0 668 419" xmlns="http://www.w3.org/2000/svg">
<g filter="url(#filter0_d_2751_6394)">
<path d="M86.5245 30.8759L149.14 90.5418C137.728 96.2582 127.016 103.686 117.42 112.83C107.824 121.974 100.028 132.182 94.0294 143.056L31.4136 83.3904C16.1952 68.889 16.1958 45.3767 31.4136 30.8759C46.6314 16.375 71.3061 16.3744 86.5245 30.8759Z" />
<path d="M377.943 184.441C393.162 198.943 393.161 222.455 377.943 236.956C362.725 251.457 338.999 249.5 322.832 236.956L257.284 174.495C236.301 154.501 202.28 154.501 181.297 174.495C160.314 194.49 160.314 226.907 181.297 246.902L266.093 327.702C219.474 344.301 164.927 334.74 127.439 299.018C76.2492 250.24 76.25 171.156 127.439 122.378C178.07 74.1327 259.818 73.6059 311.127 120.801L311.142 120.787L377.943 184.441Z" />
</g>
<g filter="url(#filter1_d_2751_6394)">
<path d="M247.681 184.441L311.142 244.912C332.125 264.907 368.016 266.896 388.999 246.902C409.982 226.907 408.111 192.5 387.128 172.506L302.333 91.7049C348.952 75.106 403.498 84.6666 440.986 120.389C492.176 169.167 492.175 248.252 440.986 297.029C389.798 345.806 306.803 345.807 255.613 297.029L192.57 236.956C177.352 222.454 177.352 198.942 192.57 184.441C207.788 169.94 230.499 170.5 247.681 184.441Z" />
<path d="M481.475 388.123C496.693 402.625 521.368 402.624 536.585 388.123C551.803 373.622 551.804 350.11 536.585 335.609L473.97 275.943C467.971 286.817 460.175 297.025 450.579 306.169C440.983 315.313 430.271 322.741 418.859 328.457L481.475 388.123Z" />
</g>
<defs>
<filter id="filter0_d_2751_6394" x="20" y="20" width="369.355" height="335.601" filterUnits="userSpaceOnUse" color-interpolation-filters="sRGB">
<feFlood flood-opacity="0" result="BackgroundImageFix"/>
<feColorMatrix in="SourceAlpha" type="matrix" values="0 0 0 0 0 0 0 0 0 0 0 0 0 0 0 0 0 0 127 0" result="hardAlpha"/>
<feOffset dy="20"/>
<feComposite in2="hardAlpha" operator="out"/>
<feColorMatrix type="matrix" values="0 0 0 0 0 0 0 0 0 0 0 0 0 0 0 0 0 0 0.25 0"/>
<feBlend mode="normal" in2="BackgroundImageFix" result="effect1_dropShadow_2751_6394"/>
<feBlend mode="normal" in="SourceGraphic" in2="effect1_dropShadow_2751_6394" result="shape"/>
</filter>
<filter id="filter1_d_2751_6394" x="181.156" y="83.8057" width="366.844" height="335.193" filterUnits="userSpaceOnUse" color-interpolation-filters="sRGB">
<feFlood flood-opacity="0" result="BackgroundImageFix"/>
<feColorMatrix in="SourceAlpha" type="matrix" values="0 0 0 0 0 0 0 0 0 0 0 0 0 0 0 0 0 0 127 0" result="hardAlpha"/>
<feOffset dy="20"/>
<feComposite in2="hardAlpha" operator="out"/>
<feColorMatrix type="matrix" values="0 0 0 0 0 0 0 0 0 0 0 0 0 0 0 0 0 0 0.25 0"/>
<feBlend mode="normal" in2="BackgroundImageFix" result="effect1_dropShadow_2751_6394"/>
<feBlend mode="normal" in="SourceGraphic" in2="effect1_dropShadow_2751_6394" result="shape"/>
</filter>
</defs>
</svg>

